<?xml version="1.0" encoding="UTF-8" standalone="no"?>
<svg
   xmlns:dc="http://purl.org/dc/elements/1.1/"
   xmlns:cc="http://creativecommons.org/ns#"
   xmlns:rdf="http://www.w3.org/1999/02/22-rdf-syntax-ns#"
   xmlns:svg="http://www.w3.org/2000/svg"
   xmlns="http://www.w3.org/2000/svg"
   xmlns:sodipodi="http://sodipodi.sourceforge.net/DTD/sodipodi-0.dtd"
   xmlns:inkscape="http://www.inkscape.org/namespaces/inkscape"
   viewBox="0 0 512 512"
   version="1.1"
   id="svg817"
   sodipodi:docname="mask-key-5.svg"
   inkscape:version="0.92.5 (2060ec1f9f, 2020-04-08)">
  <metadata
     id="metadata823">
    <rdf:RDF>
      <cc:Work
         rdf:about="">
        <dc:format>image/svg+xml</dc:format>
        <dc:type
           rdf:resource="http://purl.org/dc/dcmitype/StillImage" />
        <dc:title></dc:title>
      </cc:Work>
    </rdf:RDF>
  </metadata>
  <defs
     id="defs821" />
  <sodipodi:namedview
     pagecolor="#ffffff"
     bordercolor="#666666"
     borderopacity="1"
     objecttolerance="10"
     gridtolerance="10"
     guidetolerance="10"
     inkscape:pageopacity="0"
     inkscape:pageshadow="2"
     inkscape:window-width="2560"
     inkscape:window-height="1384"
     id="namedview819"
     showgrid="false"
     inkscape:zoom="0.20836862"
     inkscape:cx="-1285.6746"
     inkscape:cy="561.52506"
     inkscape:window-x="0"
     inkscape:window-y="28"
     inkscape:window-maximized="1"
     inkscape:current-layer="svg817" />
  <path
     style="stroke-width:1"
     d="M 256.53516,0 C -97.545428,0 -29.520684,307.20117 129.76758,307.20117 c 31.92005,0 61.97669,-16.5534 81.13672,-44.68945 l 20.58398,-30.23047 c 12.52802,-18.39203 37.5755,-18.39203 50.10352,0 l 5.83593,8.57031 c 12.4023,-20.75728 30.03992,-38.07746 51.04883,-50.08984 -18.23764,-6.79924 -30.82463,-19.47439 -37.74023,-28.11328 -4.18401,-5.224 -4.18401,-12.87151 0,-18.10352 9.85602,-12.32002 31.20644,-32.83984 64.0625,-32.83984 32.85605,0 54.20843,20.52782 64.06445,32.83984 4.184,5.22401 4.184,12.87152 0,18.10352 -2.47498,3.09373 -5.67794,6.70384 -9.60351,10.37695 32.75056,2.856 62.36077,17.18061 84.76171,38.9082 C 534.53496,121.72864 482.6951,0 256.53516,0 Z M 147.19922,111.70508 c 32.85606,0 54.20843,20.52782 64.06445,32.83984 4.18401,5.22401 4.18401,12.87152 0,18.10352 -9.85602,12.32003 -31.21639,32.83984 -64.06445,32.83984 -32.84805,0 -54.208438,-20.52781 -64.064454,-32.83984 -4.184008,-5.224 -4.184008,-12.87151 0,-18.10352 9.856016,-12.32002 31.208404,-32.83984 64.064454,-32.83984 z"
     id="path1457"
     inkscape:connector-curvature="0"
     sodipodi:nodetypes="sscccccccsccccssccsccs" />
  <path
     id="path5219"
     d="m 512,311.84815 c 0,57.90243 -46.93932,104.84116 -104.84175,104.84116 -6.68366,0 -13.2184,-0.63263 -19.55478,-1.82818 l -14.30375,16.09202 a 14.296007,14.296007 0 0 1 -10.68552,4.79829 h -22.17343 v 23.82768 c 0,7.89589 -6.40071,14.2966 -14.29661,14.2966 h -23.82767 v 23.82767 c 0,7.8959 -6.40071,14.29661 -14.29661,14.29661 h -66.71747 c -7.8959,0 -14.2966,-6.40071 -14.2966,-14.29661 v -46.4991 c 0,-3.79157 1.5065,-7.42828 4.18711,-10.10949 l 96.38412,-96.38412 c -3.40914,-10.33763 -5.26055,-21.38355 -5.26055,-32.86313 0,-57.90243 46.93872,-104.84116 104.84116,-104.84175 C 465.23105,207.0052 512,253.77416 512,311.84815 Z m -104.84175,-28.5938 c 0,15.79179 12.80142,28.5932 28.5932,28.5932 15.79179,0 28.59321,-12.80141 28.59321,-28.5932 0,-15.79179 -12.80142,-28.59321 -28.59321,-28.59321 -15.79178,0 -28.5932,12.80142 -28.5932,28.59321 z"
     inkscape:connector-curvature="0"
     style="fill:currentColor;stroke-width:1" />
  <path
     style="fill:currentColor;stroke-width:1"
     inkscape:connector-curvature="0"
     d="m 512,311.84815 c 0,57.90243 -46.93932,104.84116 -104.84175,104.84116 -6.68366,0 -13.2184,-0.63263 -19.55478,-1.82818 l -14.30375,16.09202 a 14.296007,14.296007 0 0 1 -10.68552,4.79829 h -22.17343 v 23.82768 c 0,7.89589 -6.40071,14.2966 -14.29661,14.2966 h -23.82767 v 23.82767 c 0,7.8959 -6.40071,14.29661 -14.29661,14.29661 h -66.71747 c -7.8959,0 -14.2966,-6.40071 -14.2966,-14.29661 v -46.4991 c 0,-3.79157 1.5065,-7.42828 4.18711,-10.10949 l 96.38412,-96.38412 c -3.40914,-10.33763 -5.26055,-21.38355 -5.26055,-32.86313 0,-57.90243 46.93872,-104.84116 104.84116,-104.84175 C 465.23105,207.0052 512,253.77416 512,311.84815 Z m -104.84175,-28.5938 c 0,15.79179 12.80142,28.5932 28.5932,28.5932 15.79179,0 28.59321,-12.80141 28.59321,-28.5932 0,-15.79179 -12.80142,-28.59321 -28.59321,-28.59321 -15.79178,0 -28.5932,12.80142 -28.5932,28.59321 z"
     id="path1394" />
</svg>
