<?xml version="1.0" encoding="UTF-8" standalone="no"?>
<svg
   xmlns:dc="http://purl.org/dc/elements/1.1/"
   xmlns:cc="http://creativecommons.org/ns#"
   xmlns:rdf="http://www.w3.org/1999/02/22-rdf-syntax-ns#"
   xmlns:svg="http://www.w3.org/2000/svg"
   xmlns="http://www.w3.org/2000/svg"
   xmlns:sodipodi="http://sodipodi.sourceforge.net/DTD/sodipodi-0.dtd"
   xmlns:inkscape="http://www.inkscape.org/namespaces/inkscape"
   viewBox="0 0 512 512"
   version="1.1"
   id="svg817"
   sodipodi:docname="user-key-4.svg"
   inkscape:version="0.92.5 (2060ec1f9f, 2020-04-08)">
  <metadata
     id="metadata823">
    <rdf:RDF>
      <cc:Work
         rdf:about="">
        <dc:format>image/svg+xml</dc:format>
        <dc:type
           rdf:resource="http://purl.org/dc/dcmitype/StillImage" />
        <dc:title></dc:title>
      </cc:Work>
    </rdf:RDF>
  </metadata>
  <defs
     id="defs821" />
  <sodipodi:namedview
     pagecolor="#ffffff"
     bordercolor="#666666"
     borderopacity="1"
     objecttolerance="10"
     gridtolerance="10"
     guidetolerance="10"
     inkscape:pageopacity="0"
     inkscape:pageshadow="2"
     inkscape:window-width="2560"
     inkscape:window-height="1384"
     id="namedview819"
     showgrid="false"
     inkscape:zoom="0.14733887"
     inkscape:cx="1290.9906"
     inkscape:cy="171.15022"
     inkscape:window-x="0"
     inkscape:window-y="28"
     inkscape:window-maximized="1"
     inkscape:current-layer="svg817" />
  <path
     d="M 224 0 C 153.3 0 96 57.3 96 128 C 96 198.7 153.3 256 224 256 C 294.7 256 352 198.7 352 128 C 352 57.3 294.7 0 224 0 z M 134.40039 288 C 60.200392 288 -1.8947806e-14 348.20039 0 422.40039 L 0 464 C 0 490.5 21.5 512 48 512 L 166.84766 512 C 165.60547 507.41759 164.93359 502.62482 164.93359 497.70312 L 164.93359 451.20508 C 164.93359 436.26632 170.88617 421.90721 181.44141 411.34961 A 42.07629 42.07629 0 0 1 181.44336 411.3457 L 261.62305 331.16602 C 260.78409 324.82016 260.24414 318.38773 260.24414 311.84766 C 260.24414 308.23913 260.50488 304.197 261.27148 299.94531 C 249.25702 302.58807 236.78739 304 224 304 C 198 304 173.39961 298.2 151.09961 288 L 134.40039 288 z "
     id="path5208" />
  <path
     id="path5219"
     d="m 512,311.84815 c 0,57.90243 -46.93932,104.84116 -104.84175,104.84116 -6.68366,0 -13.2184,-0.63263 -19.55478,-1.82818 l -14.30375,16.09202 a 14.296007,14.296007 0 0 1 -10.68552,4.79829 h -22.17343 v 23.82768 c 0,7.89589 -6.40071,14.2966 -14.29661,14.2966 h -23.82767 v 23.82767 c 0,7.8959 -6.40071,14.29661 -14.29661,14.29661 h -66.71747 c -7.8959,0 -14.2966,-6.40071 -14.2966,-14.29661 v -46.4991 c 0,-3.79157 1.5065,-7.42828 4.18711,-10.10949 l 96.38412,-96.38412 c -3.40914,-10.33763 -5.26055,-21.38355 -5.26055,-32.86313 0,-57.90243 46.93872,-104.84116 104.84116,-104.84175 C 465.23105,207.0052 512,253.77416 512,311.84815 Z m -104.84175,-28.5938 c 0,15.79179 12.80142,28.5932 28.5932,28.5932 15.79179,0 28.59321,-12.80141 28.59321,-28.5932 0,-15.79179 -12.80142,-28.59321 -28.59321,-28.59321 -15.79178,0 -28.5932,12.80142 -28.5932,28.59321 z"
     inkscape:connector-curvature="0"
     style="fill:currentColor;stroke-width:1" />
</svg>
