<?xml version="1.0" encoding="UTF-8" standalone="no"?>
<!-- Created with Inkscape (http://www.inkscape.org/) -->

<svg
   xmlns:dc="http://purl.org/dc/elements/1.1/"
   xmlns:cc="http://creativecommons.org/ns#"
   xmlns:rdf="http://www.w3.org/1999/02/22-rdf-syntax-ns#"
   xmlns:svg="http://www.w3.org/2000/svg"
   xmlns="http://www.w3.org/2000/svg"
   xmlns:sodipodi="http://sodipodi.sourceforge.net/DTD/sodipodi-0.dtd"
   xmlns:inkscape="http://www.inkscape.org/namespaces/inkscape"
   width="64"
   height="64"
   id="svg6120"
   version="1.1"
   inkscape:version="0.92.5 (2060ec1f9f, 2020-04-08)"
   sodipodi:docname="node_partial3.svg">
  <defs
     id="defs6122" />
  <sodipodi:namedview
     id="base"
     pagecolor="#ffffff"
     bordercolor="#666666"
     borderopacity="1.0"
     inkscape:pageopacity="0.0"
     inkscape:pageshadow="2"
     inkscape:zoom="15.421875"
     inkscape:cx="24.240817"
     inkscape:cy="31.160846"
     inkscape:document-units="px"
     inkscape:current-layer="layer1"
     showgrid="true"
     inkscape:window-width="2560"
     inkscape:window-height="1412"
     inkscape:window-x="0"
     inkscape:window-y="28"
     inkscape:window-maximized="1">
    <inkscape:grid
       type="xygrid"
       id="grid6128"
       empspacing="5"
       visible="true"
       enabled="true"
       snapvisiblegridlinesonly="true" />
  </sodipodi:namedview>
  <metadata
     id="metadata6125">
    <rdf:RDF>
      <cc:Work
         rdf:about="">
        <dc:format>image/svg+xml</dc:format>
        <dc:type
           rdf:resource="http://purl.org/dc/dcmitype/StillImage" />
        <dc:title></dc:title>
      </cc:Work>
    </rdf:RDF>
  </metadata>
  <g
     inkscape:label="Layer 1"
     inkscape:groupmode="layer"
     id="layer1"
     transform="translate(0,-988.36218)">
    <path
       style="clip-rule:evenodd;fill-rule:evenodd;fill:#808080"
       d="M 32 2 L 32 9.5 C 38.273299 9.5 43.953666 12.077216 48.037109 16.228516 C 52.033265 20.291016 54.5 25.8608 54.5 32 C 54.5 44.4125 44.4125 54.5 32 54.5 C 27.903868 54.5 24.064689 53.396618 20.753906 51.478516 L 17 57.980469 C 17.023207 57.993892 17.047066 58.006169 17.070312 58.019531 C 17.313044 58.159056 17.565578 58.283113 17.8125 58.416016 A 30 30.000002 0 0 0 20.050781 59.507812 C 20.12761 59.541263 20.202136 59.578503 20.279297 59.611328 A 30 30.000002 0 0 0 22.869141 60.566406 C 22.98831 60.604536 23.108704 60.639105 23.228516 60.675781 A 30 30.000002 0 0 0 28.59375 61.791016 C 28.799598 61.814372 29.005789 61.83631 29.212891 61.855469 A 30 30.000002 0 0 0 31.861328 61.996094 C 31.871181 61.996139 31.88077 61.998012 31.890625 61.998047 C 31.919411 61.99815 31.947757 61.999978 31.976562 62 A 30 30.000002 0 0 0 34.931641 61.855469 C 34.934216 61.855219 34.936878 61.855719 34.939453 61.855469 A 30 30.000002 0 0 0 37.705078 61.441406 C 37.890866 61.405624 38.073268 61.361458 38.257812 61.322266 A 30 30.000002 0 0 0 40.496094 60.755859 C 40.67334 60.703571 40.851484 60.653114 41.027344 60.597656 A 30 30.000002 0 0 0 46.169922 58.431641 C 46.330187 58.345533 46.486029 58.252983 46.644531 58.164062 A 30 30.000002 0 0 0 48.533203 57.009766 C 48.72878 56.880207 48.926812 56.753125 49.119141 56.619141 A 30 30.000002 0 0 0 51.283203 54.980469 C 51.469165 54.824281 51.651912 54.664487 51.833984 54.503906 A 30 30.000002 0 0 0 51.837891 54.5 A 30 30.000002 0 0 0 53.873047 52.525391 C 53.903301 52.493161 53.934731 52.46205 53.964844 52.429688 A 30 30.000002 0 0 0 53.966797 52.425781 A 30 30.000002 0 0 0 55.828125 50.224609 C 55.841126 50.207632 55.854222 50.190834 55.867188 50.173828 A 30 30.000002 0 0 0 57.390625 47.951172 C 57.520622 47.744717 57.644461 47.53402 57.769531 47.324219 A 30 30.000002 0 0 0 58.832031 45.382812 C 58.909708 45.227463 58.99136 45.07484 59.066406 44.917969 A 30 30.000002 0 0 0 60.990234 39.675781 C 61.039663 39.488777 61.08302 39.29975 61.128906 39.111328 A 30 30.000002 0 0 0 61.578125 36.904297 C 61.611497 36.701739 61.650399 36.500787 61.679688 36.296875 A 30 30.000002 0 0 0 61.960938 33.527344 A 30 30.000002 0 0 0 61.964844 30.609375 C 61.963221 30.573769 61.964638 30.537527 61.962891 30.501953 A 30 30.000002 0 0 0 61.960938 30.486328 A 30 30.000002 0 0 0 61.667969 27.544922 A 30 30.000002 0 0 0 61.105469 24.757812 C 61.086557 24.681932 61.070271 24.604947 61.050781 24.529297 A 30 30.000002 0 0 0 60.265625 21.978516 C 60.164958 21.695039 60.069643 21.40848 59.960938 21.128906 A 30 30.000002 0 0 0 58.736328 18.392578 A 30 30.000002 0 0 0 57.269531 15.833984 C 57.253248 15.808577 57.237061 15.783167 57.220703 15.757812 A 30 30.000002 0 0 0 57.214844 15.75 A 30 30.000002 0 0 0 55.544922 13.416016 C 55.515829 13.379199 55.488246 13.341364 55.458984 13.304688 A 30 30.000002 0 0 0 55.455078 13.300781 A 30 30.000002 0 0 0 53.59375 11.183594 C 53.550277 11.138507 53.508596 11.09169 53.464844 11.046875 C 53.464518 11.046542 53.463216 11.047208 53.462891 11.046875 A 30 30.000002 0 0 0 51.345703 9.0742188 C 51.3348 9.0650101 51.325369 9.0541152 51.314453 9.0449219 A 30 30.000002 0 0 0 51.300781 9.0332031 A 30 30.000002 0 0 0 48.994141 7.2832031 C 48.949415 7.2523913 48.904276 7.2219813 48.859375 7.1914062 A 30 30.000002 0 0 0 46.402344 5.6835938 C 46.536565 5.7572207 46.669772 5.8325933 46.802734 5.9082031 C 46.571885 5.7770021 46.342046 5.6447314 46.107422 5.5195312 C 46.195426 5.5665222 46.281663 5.6162229 46.369141 5.6640625 A 30 30.000002 0 0 0 37.992188 2.6054688 C 37.971408 2.6012534 37.950483 2.5979223 37.929688 2.59375 A 30 30.000002 0 0 0 35.058594 2.1601562 C 35.023981 2.1566487 34.989726 2.1518273 34.955078 2.1484375 A 30 30.000002 0 0 0 32 2 z M 34.955078 2.1484375 A 30 30.000002 0 0 1 35.058594 2.1601562 C 35.214028 2.1759077 35.368718 2.1947752 35.523438 2.2128906 C 35.309481 2.1878686 35.096171 2.1611244 34.880859 2.140625 C 34.905697 2.1429928 34.930258 2.1460092 34.955078 2.1484375 z M 37.929688 2.59375 A 30 30.000002 0 0 1 37.992188 2.6054688 C 38.110739 2.6295178 38.229619 2.6522915 38.347656 2.6777344 C 38.140759 2.6331977 37.933072 2.5910294 37.724609 2.5507812 C 37.793308 2.5640631 37.861157 2.5800002 37.929688 2.59375 z M 48.859375 7.1914062 A 30 30.000002 0 0 1 48.994141 7.2832031 C 49.044362 7.317801 49.096484 7.3498705 49.146484 7.3847656 C 48.889015 7.2051255 48.628522 7.0291019 48.365234 6.8574219 C 48.531783 6.9660622 48.695139 7.0795704 48.859375 7.1914062 z M 51.300781 9.0332031 C 51.029534 8.8050423 50.751983 8.5857841 50.472656 8.3671875 C 50.751775 8.5856603 51.029716 8.8051947 51.300781 9.0332031 z M 51.345703 9.0742188 C 51.713998 9.385282 52.075138 9.704956 52.427734 10.033203 C 52.074872 9.70493 51.714098 9.3853668 51.345703 9.0742188 z M 53.462891 11.046875 C 53.128993 10.704899 52.789259 10.368728 52.439453 10.042969 C 52.789178 10.368872 53.12891 10.704814 53.462891 11.046875 z M 53.59375 11.183594 C 54.246193 11.860262 54.868034 12.565274 55.455078 13.300781 C 54.868035 12.565258 54.246197 11.860268 53.59375 11.183594 z M 55.544922 13.416016 C 55.842135 13.792134 56.130685 14.176001 56.410156 14.566406 C 56.130771 14.175811 55.842279 13.792316 55.544922 13.416016 z M 56.410156 14.566406 C 56.687736 14.954169 56.955797 15.348769 57.214844 15.75 C 56.955922 15.348957 56.687385 14.953987 56.410156 14.566406 z M 57.269531 15.833984 C 57.533713 16.246191 57.78728 16.664457 58.03125 17.089844 C 57.787129 16.664398 57.533579 16.24598 57.269531 15.833984 z M 58.03125 17.089844 C 58.276389 17.517268 58.511725 17.95194 58.736328 18.392578 C 58.511611 17.951716 58.276792 17.517765 58.03125 17.089844 z M 58.736328 18.392578 C 58.96255 18.836391 59.176755 19.286059 59.380859 19.742188 C 59.176538 19.286239 58.962405 18.836108 58.736328 18.392578 z M 59.380859 19.742188 C 59.584964 20.198316 59.778965 20.660905 59.960938 21.128906 C 59.77885 20.660606 59.585441 20.198719 59.380859 19.742188 z M 59.960938 21.128906 A 30 30.000002 0 0 1 60.191406 21.740234 A 30 30.000002 0 0 1 60.265625 21.978516 C 60.562184 22.813616 60.827412 23.662285 61.050781 24.529297 A 30 30.000002 0 0 1 61.105469 24.757812 C 61.333252 25.671776 61.527311 26.599307 61.667969 27.544922 C 61.336361 25.315593 60.75438 23.169508 59.960938 21.128906 z M 61.667969 27.544922 C 61.74023 28.030717 61.802034 28.520829 61.851562 29.013672 C 61.802857 28.520379 61.740254 28.030882 61.667969 27.544922 z M 61.851562 29.013672 C 61.900569 29.501321 61.936376 29.991803 61.960938 30.486328 C 61.936401 29.991887 61.899729 29.501511 61.851562 29.013672 z M 61.960938 33.527344 C 61.92574 34.230282 61.858207 34.92402 61.775391 35.613281 C 61.858128 34.923845 61.925735 34.230383 61.960938 33.527344 z M 61.679688 36.296875 A 30 30.000002 0 0 1 61.578125 36.904297 C 61.512025 37.305504 61.458819 37.711776 61.376953 38.107422 C 61.515807 37.435357 61.625641 36.752174 61.71875 36.064453 C 61.708144 36.142682 61.690896 36.21884 61.679688 36.296875 z M 61.376953 38.107422 C 61.306695 38.446971 61.210544 38.776102 61.128906 39.111328 A 30 30.000002 0 0 1 60.990234 39.675781 C 60.951239 39.823312 60.922038 39.974466 60.880859 40.121094 C 61.066868 39.457776 61.236234 38.788513 61.376953 38.107422 z M 59.066406 44.917969 A 30 30.000002 0 0 1 58.832031 45.382812 C 58.501056 46.04475 58.146855 46.691273 57.769531 47.324219 A 30 30.000002 0 0 1 57.390625 47.951172 C 57.309786 48.079556 57.238969 48.214732 57.15625 48.341797 C 57.934791 47.145468 58.630027 45.892199 59.234375 44.585938 C 59.18209 44.698829 59.120047 44.805842 59.066406 44.917969 z M 55.867188 50.173828 C 56.306119 49.598117 56.723953 49.003861 57.121094 48.396484 C 56.723588 49.00422 56.306429 49.597711 55.867188 50.173828 z M 55.828125 50.224609 C 55.542102 50.598075 55.24822 50.965369 54.945312 51.324219 C 55.248438 50.96462 55.541899 50.598374 55.828125 50.224609 z M 53.966797 52.425781 C 54.291561 52.076658 54.609964 51.721752 54.917969 51.357422 C 54.609764 51.721489 54.291774 52.076431 53.966797 52.425781 z M 53.873047 52.525391 C 53.556995 52.862074 53.233227 53.191701 52.902344 53.513672 C 53.233556 53.19182 53.556937 52.862135 53.873047 52.525391 z M 51.837891 54.5 C 52.174524 54.202993 52.503238 53.897567 52.826172 53.585938 C 52.503452 53.897784 52.174571 54.202948 51.837891 54.5 z M 51.283203 54.980469 C 50.737236 55.439022 50.173757 55.875575 49.595703 56.294922 C 50.173834 55.875599 50.737227 55.43903 51.283203 54.980469 z M 49.119141 56.619141 A 30 30.000002 0 0 1 48.533203 57.009766 C 48.253979 57.194736 47.982933 57.39259 47.697266 57.568359 C 48.299611 57.197894 48.885833 56.803432 49.458984 56.392578 C 49.348545 56.471759 49.230691 56.54143 49.119141 56.619141 z M 47.697266 57.568359 C 47.354332 57.779365 46.996418 57.966652 46.644531 58.164062 A 30 30.000002 0 0 1 46.169922 58.431641 C 46.064173 58.488458 45.963927 58.553794 45.857422 58.609375 C 46.483779 58.282668 47.097865 57.937013 47.697266 57.568359 z M 41.027344 60.597656 A 30 30.000002 0 0 1 40.496094 60.755859 C 39.761039 60.972704 39.015269 61.161401 38.257812 61.322266 A 30 30.000002 0 0 1 37.705078 61.441406 C 37.612566 61.459224 37.522502 61.483034 37.429688 61.5 C 38.822691 61.245466 40.181465 60.896701 41.5 60.457031 C 41.344671 60.508853 41.183795 60.548319 41.027344 60.597656 z M 34.939453 61.855469 C 35.654704 61.78597 36.360936 61.685197 37.060547 61.566406 C 36.36112 61.685194 35.654576 61.785983 34.939453 61.855469 z M 34.931641 61.855469 C 34.452442 61.901913 33.969723 61.938641 33.484375 61.962891 C 33.97029 61.939245 34.452084 61.901941 34.931641 61.855469 z M 29.212891 61.855469 A 30 30.000002 0 0 1 28.59375 61.791016 C 28.43469 61.772968 28.273524 61.762718 28.115234 61.742188 C 28.622558 61.807761 29.133475 61.860467 29.648438 61.900391 C 29.50216 61.88901 29.358566 61.868945 29.212891 61.855469 z M 23.228516 60.675781 A 30 30.000002 0 0 1 22.869141 60.566406 C 22.694715 60.510596 22.516772 60.463194 22.34375 60.404297 C 22.892862 60.590785 23.448806 60.762926 24.011719 60.917969 C 23.747261 60.844934 23.489987 60.755822 23.228516 60.675781 z M 20.279297 59.611328 A 30 30.000002 0 0 1 20.050781 59.507812 C 19.286609 59.175101 18.542135 58.808732 17.8125 58.416016 A 30 30.000002 0 0 1 17.070312 58.019531 C 18.689077 58.950018 20.400464 59.734494 22.191406 60.353516 C 21.5432 60.128959 20.906505 59.878154 20.279297 59.611328 z M 33.455078 2.0371094 C 33.647662 2.0463065 33.837688 2.0633598 34.029297 2.0761719 C 33.837733 2.0633787 33.647613 2.0462934 33.455078 2.0371094 z M 36.337891 2.3164062 C 36.535438 2.3450332 36.731459 2.3776987 36.927734 2.4101562 C 36.731552 2.3777554 36.535341 2.3449841 36.337891 2.3164062 z M 39.099609 2.8515625 C 39.321304 2.9053914 39.54394 2.9588537 39.763672 3.0175781 C 39.543519 2.9587988 39.32173 2.9054314 39.099609 2.8515625 z M 40.427734 3.2070312 C 40.653758 3.2730991 40.879741 3.336992 41.103516 3.4082031 C 40.879977 3.3371443 40.653514 3.2729613 40.427734 3.2070312 z M 41.767578 3.6328125 C 41.987813 3.7086569 42.209857 3.7824865 42.427734 3.8632812 C 42.209658 3.78249 41.988015 3.7086468 41.767578 3.6328125 z M 44.871094 4.8945312 C 45.127363 5.0164599 45.37866 5.1464719 45.630859 5.2753906 C 45.37858 5.146519 45.127447 5.0164083 44.871094 4.8945312 z M 47.273438 6.1777344 C 47.529695 6.3296573 47.781929 6.4872279 48.033203 6.6464844 C 47.781804 6.4872149 47.529831 6.3296588 47.273438 6.1777344 z M 49.501953 7.6367188 C 49.752199 7.8168084 49.999747 7.9999805 50.244141 8.1875 C 49.999885 8.0001282 49.752063 7.81666 49.501953 7.6367188 z M 2 32 C 2 32.628886 2.0263616 33.251839 2.0644531 33.871094 C 2.0262931 33.251547 2 32.629227 2 32 z M 9.546875 33.392578 C 9.5555472 33.533919 9.5687976 33.673827 9.5800781 33.814453 C 9.5688285 33.674073 9.5555278 33.533668 9.546875 33.392578 z M 2.1015625 34.369141 C 2.1388993 34.847113 2.186639 35.321567 2.2460938 35.792969 C 2.1866723 35.322122 2.1388988 34.846564 2.1015625 34.369141 z M 9.6777344 34.777344 C 9.6961268 34.926009 9.7130862 35.0749 9.734375 35.222656 C 9.7131183 35.074925 9.6960985 34.925981 9.6777344 34.777344 z M 2.3085938 36.271484 C 2.3936986 36.868855 2.4896481 37.463365 2.609375 38.048828 C 2.4894016 37.462806 2.3938455 36.869471 2.3085938 36.271484 z M 10.277344 37.861328 C 10.311174 37.986565 10.348832 38.11001 10.384766 38.234375 C 10.348885 38.110047 10.311124 37.986526 10.277344 37.861328 z M 2.6347656 38.160156 C 2.7526474 38.725527 2.8898645 39.28276 3.0390625 39.835938 C 2.8897422 39.282883 2.7527535 38.725427 2.6347656 38.160156 z M 10.685547 39.191406 C 10.723632 39.303955 10.759015 39.417552 10.798828 39.529297 C 10.759045 39.417516 10.723602 39.303989 10.685547 39.191406 z M 3.1640625 40.275391 C 3.3000059 40.750299 3.4470303 41.220611 3.6054688 41.685547 C 3.4468908 41.220697 3.3001321 40.750229 3.1640625 40.275391 z M 60.783203 40.460938 C 60.587206 41.128254 60.373081 41.788467 60.132812 42.435547 C 60.372809 41.788316 60.587459 41.128391 60.783203 40.460938 z M 3.71875 42.015625 C 3.9243762 42.596665 4.1430369 43.170433 4.3828125 43.734375 C 4.1430894 43.171072 3.92437 42.596013 3.71875 42.015625 z M 4.3828125 43.734375 C 4.6201719 44.292634 4.8768783 44.840573 5.1464844 45.380859 C 4.8767171 44.840738 4.6203241 44.292481 4.3828125 43.734375 z M 11.859375 42.019531 C 11.900424 42.101686 11.944307 42.182092 11.986328 42.263672 C 11.944392 42.182185 11.900342 42.101591 11.859375 42.019531 z M 60.121094 42.466797 C 59.879088 43.116316 59.610992 43.75354 59.326172 44.380859 C 59.610934 43.753011 59.879209 43.116881 60.121094 42.466797 z M 12.529297 43.259766 C 12.568571 43.327389 12.606528 43.395714 12.646484 43.462891 C 12.606526 43.395656 12.568572 43.327449 12.529297 43.259766 z M 5.296875 45.675781 C 5.5447496 46.159033 5.8052352 46.633986 6.078125 47.101562 C 5.8051446 46.634229 5.5448463 46.158788 5.296875 45.675781 z M 14.193359 45.736328 C 14.228527 45.781782 14.265275 45.825917 14.300781 45.871094 C 14.265279 45.825879 14.228522 45.78182 14.193359 45.736328 z M 6.171875 47.263672 C 6.8087291 48.339382 7.5114676 49.371734 8.2734375 50.355469 C 7.5109928 49.371931 6.8091693 48.339204 6.171875 47.263672 z M 8.3691406 50.474609 C 8.7489251 50.959815 9.1404636 51.43399 9.5488281 51.894531 C 9.1406081 51.434462 8.7488285 50.959298 8.3691406 50.474609 z M 9.5488281 51.894531 C 10.399059 52.853395 11.310105 53.756501 12.275391 54.599609 C 11.309961 53.756784 10.399282 52.853004 9.5488281 51.894531 z M 12.300781 54.621094 C 13.746066 55.880639 15.313277 57.001764 16.982422 57.96875 C 15.313347 57.001801 13.74627 55.880211 12.300781 54.621094 z M 45.636719 58.722656 C 45.017077 59.039506 44.387821 59.3392 43.744141 59.613281 C 44.387729 59.339374 45.017159 59.039305 45.636719 58.722656 z M 43.744141 59.613281 C 43.103302 59.886152 42.447999 60.130743 41.785156 60.359375 C 42.448293 60.130768 43.103009 59.886143 43.744141 59.613281 z M 24.138672 60.955078 C 25.330228 61.277573 26.551254 61.52663 27.796875 61.701172 C 26.551609 61.526071 25.329737 61.278314 24.138672 60.955078 z M 30.042969 61.929688 C 30.631212 61.967555 31.223294 61.992579 31.820312 61.996094 C 31.223431 61.99257 30.630979 61.967675 30.042969 61.929688 z "
       transform="translate(0,988.36218)"
       id="path3543" />
    <path
       style="clip-rule:evenodd;fill-rule:evenodd;fill:#e6e6e6"
       d="M 32 2 A 30 30.000002 0 0 1 51.314453 9.0449219 C 46.096211 4.6502547 39.360154 2 32 2 z M 32 2 C 15.425 2 2 15.425 2 32 C 2 43.10788 8.0338614 52.794534 17 57.980469 L 20.753906 51.478516 C 14.03203 47.584196 9.5 40.316368 9.5 32 C 9.5 19.5875 19.5875 9.5 32 9.5 L 32 2 z M 51.345703 9.0742188 A 30 30.000002 0 0 1 53.464844 11.046875 C 52.790464 10.356117 52.083697 9.6975316 51.345703 9.0742188 z M 53.59375 11.183594 A 30 30.000002 0 0 1 55.458984 13.304688 C 54.870932 12.567624 54.247466 11.861583 53.59375 11.183594 z M 55.544922 13.416016 A 30 30.000002 0 0 1 57.220703 15.757812 C 56.69934 14.949699 56.139349 14.168253 55.544922 13.416016 z M 57.265625 15.828125 A 30 30.000002 0 0 1 58.736328 18.392578 C 58.287122 17.511302 57.796713 16.656359 57.265625 15.828125 z M 58.736328 18.392578 A 30 30.000002 0 0 1 59.960938 21.128906 C 59.596994 20.192904 59.188771 19.280204 58.736328 18.392578 z M 59.960938 21.128906 A 30 30.000002 0 0 1 60.191406 21.740234 A 30 30.000002 0 0 1 61.667969 27.544922 C 61.336361 25.315593 60.75438 23.169508 59.960938 21.128906 z M 61.667969 27.544922 A 30 30.000002 0 0 1 61.962891 30.501953 C 61.913794 29.502221 61.812491 28.516512 61.667969 27.544922 z M 61.964844 30.605469 A 30 30.000002 0 0 1 61.960938 33.527344 C 61.986262 33.021581 62 32.512079 62 32 C 62 31.532454 61.985977 31.067771 61.964844 30.605469 z M 61.960938 33.527344 A 30 30.000002 0 0 1 55.867188 50.173828 C 59.424034 45.508603 61.648255 39.771941 61.960938 33.527344 z M 55.859375 50.185547 A 30 30.000002 0 0 1 53.964844 52.429688 C 54.631922 51.712774 55.264348 50.96524 55.859375 50.185547 z M 53.873047 52.525391 A 30 30.000002 0 0 1 51.833984 54.503906 C 52.544795 53.876998 53.224558 53.216211 53.873047 52.525391 z M 51.283203 54.980469 A 30 30.000002 0 0 1 34.939453 61.855469 C 41.134363 61.253532 46.773455 58.768174 51.283203 54.980469 z M 34.939453 61.855469 A 30 30.000002 0 0 1 31.962891 62 C 31.975321 62.000015 31.987566 62 32 62 C 32.992109 62 33.972119 61.949461 34.939453 61.855469 z M 17.070312 58.019531 C 21.437883 60.530068 26.493477 61.978708 31.890625 61.998047 A 30 30.000002 0 0 1 17.070312 58.019531 z "
       id="path1060"
       transform="translate(0,988.36218)" />
    <polygon
       transform="matrix(1.8656716,0,0,1.8656716,-413.40111,870.06368)"
       points="233.145,80.32 231.015,82.45 235.965,87.4 236.055,87.31 236.145,87.4 247.095,76.45 244.965,74.32 236.055,83.24 "
       id="polygon3609"
       style="stroke-width:2;fill:#808080" />
  </g>
</svg>
