<?xml version="1.0" encoding="UTF-8" standalone="no"?>
<svg
   xmlns:dc="http://purl.org/dc/elements/1.1/"
   xmlns:cc="http://creativecommons.org/ns#"
   xmlns:rdf="http://www.w3.org/1999/02/22-rdf-syntax-ns#"
   xmlns:svg="http://www.w3.org/2000/svg"
   xmlns="http://www.w3.org/2000/svg"
   xmlns:sodipodi="http://sodipodi.sourceforge.net/DTD/sodipodi-0.dtd"
   xmlns:inkscape="http://www.inkscape.org/namespaces/inkscape"
   width="64"
   height="64"
   id="svg3019"
   version="1.1"
   inkscape:version="1.0.2 (e86c870879, 2021-01-15)"
   sodipodi:docname="environment_table.svg">
  <defs
     id="defs3021" />
  <sodipodi:namedview
     id="base"
     pagecolor="#ffffff"
     bordercolor="#666666"
     borderopacity="1.0"
     inkscape:pageopacity="0.0"
     inkscape:pageshadow="2"
     inkscape:zoom="9.7006212"
     inkscape:cx="26.554903"
     inkscape:cy="45.437732"
     inkscape:document-units="px"
     inkscape:current-layer="layer1"
     showgrid="true"
     inkscape:window-width="2006"
     inkscape:window-height="1229"
     inkscape:window-x="26"
     inkscape:window-y="23"
     inkscape:window-maximized="0"
     inkscape:document-rotation="0">
    <inkscape:grid
       type="xygrid"
       id="grid3027"
       empspacing="8"
       visible="true"
       enabled="true"
       snapvisiblegridlinesonly="true"
       dotted="false" />
  </sodipodi:namedview>
  <metadata
     id="metadata3024">
    <rdf:RDF>
      <cc:Work
         rdf:about="">
        <dc:format>image/svg+xml</dc:format>
        <dc:type
           rdf:resource="http://purl.org/dc/dcmitype/StillImage" />
        <dc:title></dc:title>
      </cc:Work>
    </rdf:RDF>
  </metadata>
  <g
     inkscape:label="Layer 1"
     inkscape:groupmode="layer"
     id="layer1"
     transform="translate(0,-988.36218)">
    <rect
       ry="0.1661879"
       rx="1.883485"
       y="992.90137"
       x="5.0480514"
       height="55"
       width="54"
       id="rect3029-9-0"
       style="fill:#ffffff;fill-opacity:1;stroke:none" />
    <g
       id="layer1-3"
       transform="matrix(0.61279705,0,0,0.61279705,12.213554,1005.2781)"
       style="fill:#808080;fill-opacity:1">
      <path
         style="fill:#808080;fill-opacity:1;stroke-width:0.125313"
         d="M 43.463644,20.605052 C 41.646604,9.4145811 37.360893,1.5574423 32.373427,1.5574423 c -4.987466,0 -9.273179,7.8571388 -11.09022,19.0476097 z M 20.343358,32.635115 c 0,2.781954 0.150375,5.451131 0.413536,8.020049 h 23.22054 c 0.26315,-2.568918 0.41353,-5.238095 0.41353,-8.020049 0,-2.781947 -0.15038,-5.451123 -0.41353,-8.020042 h -23.22054 c -0.26316,2.568919 -0.413536,5.238095 -0.413536,8.020042 z M 61.032554,20.605052 C 57.448594,12.096286 50.192964,5.5173383 41.233074,2.8606993 c 3.05764,4.2355864 5.1629,10.6140347 6.26566,17.7443527 z M 23.501253,2.8606993 C 14.55389,5.5173383 7.285722,12.096286 3.714295,20.605052 H 17.248122 C 18.338347,13.474734 20.443609,7.0962857 23.501253,2.8606993 Z M 62.373414,24.615073 h -14.37343 c 0.26316,2.631581 0.41353,5.325815 0.41353,8.020042 0,2.694234 -0.15037,5.388468 -0.41353,8.020049 h 14.36089 c 0.68923,-2.568918 1.07769,-5.238095 1.07769,-8.020049 0,-2.781947 -0.38846,-5.451123 -1.06515,-8.020042 z m -46.040079,8.020042 c 0,-2.694227 0.150375,-5.388461 0.413534,-8.020042 H 2.373444 c -0.676692,2.568919 -1.077696,5.238095 -1.077696,8.020042 0,2.781954 0.401004,5.451131 1.077696,8.020049 h 14.360894 c -0.250625,-2.631581 -0.401003,-5.325815 -0.401003,-8.020049 z m 4.949872,12.03007 c 1.817041,11.190472 6.102754,19.04761 11.09022,19.04761 4.987466,0 9.273177,-7.857138 11.090217,-19.04761 z m 19.962397,17.744353 c 8.94736,-2.656639 16.21553,-9.235586 19.79949,-17.744353 h -13.53383 c -1.10276,7.130327 -3.20802,13.508767 -6.26566,17.744353 z M 3.714295,44.665185 C 7.298257,53.173952 14.55389,59.752899 23.513781,62.409538 20.456141,58.173952 18.350878,51.795512 17.248122,44.665185 Z"
         id="path10" />
    </g>
    <rect
       ry="0.1661879"
       rx="1.883485"
       y="993.02637"
       x="5.0480514"
       height="55"
       width="54"
       id="rect3029-98"
       style="fill:none;stroke:#000000;stroke-width:2;stroke-linecap:square;stroke-linejoin:round;stroke-miterlimit:0;stroke-dasharray:none;stroke-opacity:1" />
    <rect
       ry="0.1661879"
       rx="1.883485"
       y="993.02637"
       x="4.9751601"
       height="10"
       width="54"
       id="rect3839-4"
       style="fill:#000000;fill-opacity:1;stroke:none" />
  </g>
</svg>
