<?xml version="1.0" encoding="utf-8" standalone="no"?>
<!DOCTYPE svg PUBLIC "-//W3C//DTD SVG 1.1//EN"
  "http://www.w3.org/Graphics/SVG/1.1/DTD/svg11.dtd">
<svg xmlns:xlink="http://www.w3.org/1999/xlink" width="360pt" height="360pt" viewBox="0 0 360 360" xmlns="http://www.w3.org/2000/svg" version="1.1">
 <metadata>
  <rdf:RDF xmlns:dc="http://purl.org/dc/elements/1.1/" xmlns:cc="http://creativecommons.org/ns#" xmlns:rdf="http://www.w3.org/1999/02/22-rdf-syntax-ns#">
   <cc:Work>
    <dc:type rdf:resource="http://purl.org/dc/dcmitype/StillImage"/>
    <dc:date>2022-05-18T11:02:43.699804</dc:date>
    <dc:format>image/svg+xml</dc:format>
    <dc:creator>
     <cc:Agent>
      <dc:title>Matplotlib v3.5.0, https://matplotlib.org/</dc:title>
     </cc:Agent>
    </dc:creator>
   </cc:Work>
  </rdf:RDF>
 </metadata>
 <defs>
  <style type="text/css">*{stroke-linejoin: round; stroke-linecap: butt}</style>
 </defs>
 <g id="figure_1">
  <g id="patch_1">
   <path d="M 0 360 
L 360 360 
L 360 0 
L 0 0 
z
" style="fill: #ffffff"/>
  </g>
  <g id="axes_1">
   <g id="patch_2">
    <path d="M 65.54 150.48 
L 349.2 150.48 
L 349.2 14.76 
L 65.54 14.76 
z
" style="fill: #ffffff"/>
   </g>
   <g id="matplotlib.axis_1">
    <g id="xtick_1">
     <g id="line2d_1">
      <defs>
       <path id="m18678a0fa9" d="M 0 0 
L 0 3.5 
" style="stroke: #000000; stroke-width: 0.8"/>
      </defs>
      <g>
       <use xlink:href="#m18678a0fa9" x="65.54" y="150.48" style="stroke: #000000; stroke-width: 0.8"/>
      </g>
     </g>
     <g id="text_1">
      <!-- 0 -->
      <g transform="translate(62.35875 165.078438)scale(0.1 -0.1)">
       <defs>
        <path id="DejaVuSans-30" d="M 2034 4250 
Q 1547 4250 1301 3770 
Q 1056 3291 1056 2328 
Q 1056 1369 1301 889 
Q 1547 409 2034 409 
Q 2525 409 2770 889 
Q 3016 1369 3016 2328 
Q 3016 3291 2770 3770 
Q 2525 4250 2034 4250 
z
M 2034 4750 
Q 2819 4750 3233 4129 
Q 3647 3509 3647 2328 
Q 3647 1150 3233 529 
Q 2819 -91 2034 -91 
Q 1250 -91 836 529 
Q 422 1150 422 2328 
Q 422 3509 836 4129 
Q 1250 4750 2034 4750 
z
" transform="scale(0.015625)"/>
       </defs>
       <use xlink:href="#DejaVuSans-30"/>
      </g>
     </g>
    </g>
    <g id="xtick_2">
     <g id="line2d_2">
      <g>
       <use xlink:href="#m18678a0fa9" x="107.877313" y="150.48" style="stroke: #000000; stroke-width: 0.8"/>
      </g>
     </g>
     <g id="text_2">
      <!-- 10 -->
      <g transform="translate(101.514813 165.078438)scale(0.1 -0.1)">
       <defs>
        <path id="DejaVuSans-31" d="M 794 531 
L 1825 531 
L 1825 4091 
L 703 3866 
L 703 4441 
L 1819 4666 
L 2450 4666 
L 2450 531 
L 3481 531 
L 3481 0 
L 794 0 
L 794 531 
z
" transform="scale(0.015625)"/>
       </defs>
       <use xlink:href="#DejaVuSans-31"/>
       <use xlink:href="#DejaVuSans-30" x="63.623047"/>
      </g>
     </g>
    </g>
    <g id="xtick_3">
     <g id="line2d_3">
      <g>
       <use xlink:href="#m18678a0fa9" x="150.214627" y="150.48" style="stroke: #000000; stroke-width: 0.8"/>
      </g>
     </g>
     <g id="text_3">
      <!-- 20 -->
      <g transform="translate(143.852127 165.078438)scale(0.1 -0.1)">
       <defs>
        <path id="DejaVuSans-32" d="M 1228 531 
L 3431 531 
L 3431 0 
L 469 0 
L 469 531 
Q 828 903 1448 1529 
Q 2069 2156 2228 2338 
Q 2531 2678 2651 2914 
Q 2772 3150 2772 3378 
Q 2772 3750 2511 3984 
Q 2250 4219 1831 4219 
Q 1534 4219 1204 4116 
Q 875 4013 500 3803 
L 500 4441 
Q 881 4594 1212 4672 
Q 1544 4750 1819 4750 
Q 2544 4750 2975 4387 
Q 3406 4025 3406 3419 
Q 3406 3131 3298 2873 
Q 3191 2616 2906 2266 
Q 2828 2175 2409 1742 
Q 1991 1309 1228 531 
z
" transform="scale(0.015625)"/>
       </defs>
       <use xlink:href="#DejaVuSans-32"/>
       <use xlink:href="#DejaVuSans-30" x="63.623047"/>
      </g>
     </g>
    </g>
    <g id="xtick_4">
     <g id="line2d_4">
      <g>
       <use xlink:href="#m18678a0fa9" x="192.55194" y="150.48" style="stroke: #000000; stroke-width: 0.8"/>
      </g>
     </g>
     <g id="text_4">
      <!-- 30 -->
      <g transform="translate(186.18944 165.078438)scale(0.1 -0.1)">
       <defs>
        <path id="DejaVuSans-33" d="M 2597 2516 
Q 3050 2419 3304 2112 
Q 3559 1806 3559 1356 
Q 3559 666 3084 287 
Q 2609 -91 1734 -91 
Q 1441 -91 1130 -33 
Q 819 25 488 141 
L 488 750 
Q 750 597 1062 519 
Q 1375 441 1716 441 
Q 2309 441 2620 675 
Q 2931 909 2931 1356 
Q 2931 1769 2642 2001 
Q 2353 2234 1838 2234 
L 1294 2234 
L 1294 2753 
L 1863 2753 
Q 2328 2753 2575 2939 
Q 2822 3125 2822 3475 
Q 2822 3834 2567 4026 
Q 2313 4219 1838 4219 
Q 1578 4219 1281 4162 
Q 984 4106 628 3988 
L 628 4550 
Q 988 4650 1302 4700 
Q 1616 4750 1894 4750 
Q 2613 4750 3031 4423 
Q 3450 4097 3450 3541 
Q 3450 3153 3228 2886 
Q 3006 2619 2597 2516 
z
" transform="scale(0.015625)"/>
       </defs>
       <use xlink:href="#DejaVuSans-33"/>
       <use xlink:href="#DejaVuSans-30" x="63.623047"/>
      </g>
     </g>
    </g>
    <g id="xtick_5">
     <g id="line2d_5">
      <g>
       <use xlink:href="#m18678a0fa9" x="234.889254" y="150.48" style="stroke: #000000; stroke-width: 0.8"/>
      </g>
     </g>
     <g id="text_5">
      <!-- 40 -->
      <g transform="translate(228.526754 165.078438)scale(0.1 -0.1)">
       <defs>
        <path id="DejaVuSans-34" d="M 2419 4116 
L 825 1625 
L 2419 1625 
L 2419 4116 
z
M 2253 4666 
L 3047 4666 
L 3047 1625 
L 3713 1625 
L 3713 1100 
L 3047 1100 
L 3047 0 
L 2419 0 
L 2419 1100 
L 313 1100 
L 313 1709 
L 2253 4666 
z
" transform="scale(0.015625)"/>
       </defs>
       <use xlink:href="#DejaVuSans-34"/>
       <use xlink:href="#DejaVuSans-30" x="63.623047"/>
      </g>
     </g>
    </g>
    <g id="xtick_6">
     <g id="line2d_6">
      <g>
       <use xlink:href="#m18678a0fa9" x="277.226567" y="150.48" style="stroke: #000000; stroke-width: 0.8"/>
      </g>
     </g>
     <g id="text_6">
      <!-- 50 -->
      <g transform="translate(270.864067 165.078438)scale(0.1 -0.1)">
       <defs>
        <path id="DejaVuSans-35" d="M 691 4666 
L 3169 4666 
L 3169 4134 
L 1269 4134 
L 1269 2991 
Q 1406 3038 1543 3061 
Q 1681 3084 1819 3084 
Q 2600 3084 3056 2656 
Q 3513 2228 3513 1497 
Q 3513 744 3044 326 
Q 2575 -91 1722 -91 
Q 1428 -91 1123 -41 
Q 819 9 494 109 
L 494 744 
Q 775 591 1075 516 
Q 1375 441 1709 441 
Q 2250 441 2565 725 
Q 2881 1009 2881 1497 
Q 2881 1984 2565 2268 
Q 2250 2553 1709 2553 
Q 1456 2553 1204 2497 
Q 953 2441 691 2322 
L 691 4666 
z
" transform="scale(0.015625)"/>
       </defs>
       <use xlink:href="#DejaVuSans-35"/>
       <use xlink:href="#DejaVuSans-30" x="63.623047"/>
      </g>
     </g>
    </g>
    <g id="xtick_7">
     <g id="line2d_7">
      <g>
       <use xlink:href="#m18678a0fa9" x="319.563881" y="150.48" style="stroke: #000000; stroke-width: 0.8"/>
      </g>
     </g>
     <g id="text_7">
      <!-- 60 -->
      <g transform="translate(313.201381 165.078438)scale(0.1 -0.1)">
       <defs>
        <path id="DejaVuSans-36" d="M 2113 2584 
Q 1688 2584 1439 2293 
Q 1191 2003 1191 1497 
Q 1191 994 1439 701 
Q 1688 409 2113 409 
Q 2538 409 2786 701 
Q 3034 994 3034 1497 
Q 3034 2003 2786 2293 
Q 2538 2584 2113 2584 
z
M 3366 4563 
L 3366 3988 
Q 3128 4100 2886 4159 
Q 2644 4219 2406 4219 
Q 1781 4219 1451 3797 
Q 1122 3375 1075 2522 
Q 1259 2794 1537 2939 
Q 1816 3084 2150 3084 
Q 2853 3084 3261 2657 
Q 3669 2231 3669 1497 
Q 3669 778 3244 343 
Q 2819 -91 2113 -91 
Q 1303 -91 875 529 
Q 447 1150 447 2328 
Q 447 3434 972 4092 
Q 1497 4750 2381 4750 
Q 2619 4750 2861 4703 
Q 3103 4656 3366 4563 
z
" transform="scale(0.015625)"/>
       </defs>
       <use xlink:href="#DejaVuSans-36"/>
       <use xlink:href="#DejaVuSans-30" x="63.623047"/>
      </g>
     </g>
    </g>
   </g>
   <g id="matplotlib.axis_2">
    <g id="ytick_1">
     <g id="line2d_8">
      <defs>
       <path id="m1c952e4942" d="M 0 0 
L -3.5 0 
" style="stroke: #000000; stroke-width: 0.8"/>
      </defs>
      <g>
       <use xlink:href="#m1c952e4942" x="65.54" y="131.091429" style="stroke: #000000; stroke-width: 0.8"/>
      </g>
     </g>
     <g id="text_8">
      <!-- 2 -->
      <g transform="translate(52.1775 134.890647)scale(0.1 -0.1)">
       <use xlink:href="#DejaVuSans-32"/>
      </g>
     </g>
    </g>
    <g id="ytick_2">
     <g id="line2d_9">
      <g>
       <use xlink:href="#m1c952e4942" x="65.54" y="92.314286" style="stroke: #000000; stroke-width: 0.8"/>
      </g>
     </g>
     <g id="text_9">
      <!-- 3 -->
      <g transform="translate(52.1775 96.113504)scale(0.1 -0.1)">
       <use xlink:href="#DejaVuSans-33"/>
      </g>
     </g>
    </g>
    <g id="ytick_3">
     <g id="line2d_10">
      <g>
       <use xlink:href="#m1c952e4942" x="65.54" y="53.537143" style="stroke: #000000; stroke-width: 0.8"/>
      </g>
     </g>
     <g id="text_10">
      <!-- 4 -->
      <g transform="translate(52.1775 57.336362)scale(0.1 -0.1)">
       <use xlink:href="#DejaVuSans-34"/>
      </g>
     </g>
    </g>
    <g id="ytick_4">
     <g id="line2d_11">
      <g>
       <use xlink:href="#m1c952e4942" x="65.54" y="14.76" style="stroke: #000000; stroke-width: 0.8"/>
      </g>
     </g>
     <g id="text_11">
      <!-- 5 -->
      <g transform="translate(52.1775 18.559219)scale(0.1 -0.1)">
       <use xlink:href="#DejaVuSans-35"/>
      </g>
     </g>
    </g>
    <g id="text_12">
     <!-- RMSE validation (meV/atom) -->
     <g transform="translate(46.097813 154.444219)rotate(-90)scale(0.1 -0.1)">
      <defs>
       <path id="DejaVuSans-52" d="M 2841 2188 
Q 3044 2119 3236 1894 
Q 3428 1669 3622 1275 
L 4263 0 
L 3584 0 
L 2988 1197 
Q 2756 1666 2539 1819 
Q 2322 1972 1947 1972 
L 1259 1972 
L 1259 0 
L 628 0 
L 628 4666 
L 2053 4666 
Q 2853 4666 3247 4331 
Q 3641 3997 3641 3322 
Q 3641 2881 3436 2590 
Q 3231 2300 2841 2188 
z
M 1259 4147 
L 1259 2491 
L 2053 2491 
Q 2509 2491 2742 2702 
Q 2975 2913 2975 3322 
Q 2975 3731 2742 3939 
Q 2509 4147 2053 4147 
L 1259 4147 
z
" transform="scale(0.015625)"/>
       <path id="DejaVuSans-4d" d="M 628 4666 
L 1569 4666 
L 2759 1491 
L 3956 4666 
L 4897 4666 
L 4897 0 
L 4281 0 
L 4281 4097 
L 3078 897 
L 2444 897 
L 1241 4097 
L 1241 0 
L 628 0 
L 628 4666 
z
" transform="scale(0.015625)"/>
       <path id="DejaVuSans-53" d="M 3425 4513 
L 3425 3897 
Q 3066 4069 2747 4153 
Q 2428 4238 2131 4238 
Q 1616 4238 1336 4038 
Q 1056 3838 1056 3469 
Q 1056 3159 1242 3001 
Q 1428 2844 1947 2747 
L 2328 2669 
Q 3034 2534 3370 2195 
Q 3706 1856 3706 1288 
Q 3706 609 3251 259 
Q 2797 -91 1919 -91 
Q 1588 -91 1214 -16 
Q 841 59 441 206 
L 441 856 
Q 825 641 1194 531 
Q 1563 422 1919 422 
Q 2459 422 2753 634 
Q 3047 847 3047 1241 
Q 3047 1584 2836 1778 
Q 2625 1972 2144 2069 
L 1759 2144 
Q 1053 2284 737 2584 
Q 422 2884 422 3419 
Q 422 4038 858 4394 
Q 1294 4750 2059 4750 
Q 2388 4750 2728 4690 
Q 3069 4631 3425 4513 
z
" transform="scale(0.015625)"/>
       <path id="DejaVuSans-45" d="M 628 4666 
L 3578 4666 
L 3578 4134 
L 1259 4134 
L 1259 2753 
L 3481 2753 
L 3481 2222 
L 1259 2222 
L 1259 531 
L 3634 531 
L 3634 0 
L 628 0 
L 628 4666 
z
" transform="scale(0.015625)"/>
       <path id="DejaVuSans-20" transform="scale(0.015625)"/>
       <path id="DejaVuSans-76" d="M 191 3500 
L 800 3500 
L 1894 563 
L 2988 3500 
L 3597 3500 
L 2284 0 
L 1503 0 
L 191 3500 
z
" transform="scale(0.015625)"/>
       <path id="DejaVuSans-61" d="M 2194 1759 
Q 1497 1759 1228 1600 
Q 959 1441 959 1056 
Q 959 750 1161 570 
Q 1363 391 1709 391 
Q 2188 391 2477 730 
Q 2766 1069 2766 1631 
L 2766 1759 
L 2194 1759 
z
M 3341 1997 
L 3341 0 
L 2766 0 
L 2766 531 
Q 2569 213 2275 61 
Q 1981 -91 1556 -91 
Q 1019 -91 701 211 
Q 384 513 384 1019 
Q 384 1609 779 1909 
Q 1175 2209 1959 2209 
L 2766 2209 
L 2766 2266 
Q 2766 2663 2505 2880 
Q 2244 3097 1772 3097 
Q 1472 3097 1187 3025 
Q 903 2953 641 2809 
L 641 3341 
Q 956 3463 1253 3523 
Q 1550 3584 1831 3584 
Q 2591 3584 2966 3190 
Q 3341 2797 3341 1997 
z
" transform="scale(0.015625)"/>
       <path id="DejaVuSans-6c" d="M 603 4863 
L 1178 4863 
L 1178 0 
L 603 0 
L 603 4863 
z
" transform="scale(0.015625)"/>
       <path id="DejaVuSans-69" d="M 603 3500 
L 1178 3500 
L 1178 0 
L 603 0 
L 603 3500 
z
M 603 4863 
L 1178 4863 
L 1178 4134 
L 603 4134 
L 603 4863 
z
" transform="scale(0.015625)"/>
       <path id="DejaVuSans-64" d="M 2906 2969 
L 2906 4863 
L 3481 4863 
L 3481 0 
L 2906 0 
L 2906 525 
Q 2725 213 2448 61 
Q 2172 -91 1784 -91 
Q 1150 -91 751 415 
Q 353 922 353 1747 
Q 353 2572 751 3078 
Q 1150 3584 1784 3584 
Q 2172 3584 2448 3432 
Q 2725 3281 2906 2969 
z
M 947 1747 
Q 947 1113 1208 752 
Q 1469 391 1925 391 
Q 2381 391 2643 752 
Q 2906 1113 2906 1747 
Q 2906 2381 2643 2742 
Q 2381 3103 1925 3103 
Q 1469 3103 1208 2742 
Q 947 2381 947 1747 
z
" transform="scale(0.015625)"/>
       <path id="DejaVuSans-74" d="M 1172 4494 
L 1172 3500 
L 2356 3500 
L 2356 3053 
L 1172 3053 
L 1172 1153 
Q 1172 725 1289 603 
Q 1406 481 1766 481 
L 2356 481 
L 2356 0 
L 1766 0 
Q 1100 0 847 248 
Q 594 497 594 1153 
L 594 3053 
L 172 3053 
L 172 3500 
L 594 3500 
L 594 4494 
L 1172 4494 
z
" transform="scale(0.015625)"/>
       <path id="DejaVuSans-6f" d="M 1959 3097 
Q 1497 3097 1228 2736 
Q 959 2375 959 1747 
Q 959 1119 1226 758 
Q 1494 397 1959 397 
Q 2419 397 2687 759 
Q 2956 1122 2956 1747 
Q 2956 2369 2687 2733 
Q 2419 3097 1959 3097 
z
M 1959 3584 
Q 2709 3584 3137 3096 
Q 3566 2609 3566 1747 
Q 3566 888 3137 398 
Q 2709 -91 1959 -91 
Q 1206 -91 779 398 
Q 353 888 353 1747 
Q 353 2609 779 3096 
Q 1206 3584 1959 3584 
z
" transform="scale(0.015625)"/>
       <path id="DejaVuSans-6e" d="M 3513 2113 
L 3513 0 
L 2938 0 
L 2938 2094 
Q 2938 2591 2744 2837 
Q 2550 3084 2163 3084 
Q 1697 3084 1428 2787 
Q 1159 2491 1159 1978 
L 1159 0 
L 581 0 
L 581 3500 
L 1159 3500 
L 1159 2956 
Q 1366 3272 1645 3428 
Q 1925 3584 2291 3584 
Q 2894 3584 3203 3211 
Q 3513 2838 3513 2113 
z
" transform="scale(0.015625)"/>
       <path id="DejaVuSans-28" d="M 1984 4856 
Q 1566 4138 1362 3434 
Q 1159 2731 1159 2009 
Q 1159 1288 1364 580 
Q 1569 -128 1984 -844 
L 1484 -844 
Q 1016 -109 783 600 
Q 550 1309 550 2009 
Q 550 2706 781 3412 
Q 1013 4119 1484 4856 
L 1984 4856 
z
" transform="scale(0.015625)"/>
       <path id="DejaVuSans-6d" d="M 3328 2828 
Q 3544 3216 3844 3400 
Q 4144 3584 4550 3584 
Q 5097 3584 5394 3201 
Q 5691 2819 5691 2113 
L 5691 0 
L 5113 0 
L 5113 2094 
Q 5113 2597 4934 2840 
Q 4756 3084 4391 3084 
Q 3944 3084 3684 2787 
Q 3425 2491 3425 1978 
L 3425 0 
L 2847 0 
L 2847 2094 
Q 2847 2600 2669 2842 
Q 2491 3084 2119 3084 
Q 1678 3084 1418 2786 
Q 1159 2488 1159 1978 
L 1159 0 
L 581 0 
L 581 3500 
L 1159 3500 
L 1159 2956 
Q 1356 3278 1631 3431 
Q 1906 3584 2284 3584 
Q 2666 3584 2933 3390 
Q 3200 3197 3328 2828 
z
" transform="scale(0.015625)"/>
       <path id="DejaVuSans-65" d="M 3597 1894 
L 3597 1613 
L 953 1613 
Q 991 1019 1311 708 
Q 1631 397 2203 397 
Q 2534 397 2845 478 
Q 3156 559 3463 722 
L 3463 178 
Q 3153 47 2828 -22 
Q 2503 -91 2169 -91 
Q 1331 -91 842 396 
Q 353 884 353 1716 
Q 353 2575 817 3079 
Q 1281 3584 2069 3584 
Q 2775 3584 3186 3129 
Q 3597 2675 3597 1894 
z
M 3022 2063 
Q 3016 2534 2758 2815 
Q 2500 3097 2075 3097 
Q 1594 3097 1305 2825 
Q 1016 2553 972 2059 
L 3022 2063 
z
" transform="scale(0.015625)"/>
       <path id="DejaVuSans-56" d="M 1831 0 
L 50 4666 
L 709 4666 
L 2188 738 
L 3669 4666 
L 4325 4666 
L 2547 0 
L 1831 0 
z
" transform="scale(0.015625)"/>
       <path id="DejaVuSans-2f" d="M 1625 4666 
L 2156 4666 
L 531 -594 
L 0 -594 
L 1625 4666 
z
" transform="scale(0.015625)"/>
       <path id="DejaVuSans-29" d="M 513 4856 
L 1013 4856 
Q 1481 4119 1714 3412 
Q 1947 2706 1947 2009 
Q 1947 1309 1714 600 
Q 1481 -109 1013 -844 
L 513 -844 
Q 928 -128 1133 580 
Q 1338 1288 1338 2009 
Q 1338 2731 1133 3434 
Q 928 4138 513 4856 
z
" transform="scale(0.015625)"/>
      </defs>
      <use xlink:href="#DejaVuSans-52"/>
      <use xlink:href="#DejaVuSans-4d" x="69.482422"/>
      <use xlink:href="#DejaVuSans-53" x="155.761719"/>
      <use xlink:href="#DejaVuSans-45" x="219.238281"/>
      <use xlink:href="#DejaVuSans-20" x="282.421875"/>
      <use xlink:href="#DejaVuSans-76" x="314.208984"/>
      <use xlink:href="#DejaVuSans-61" x="373.388672"/>
      <use xlink:href="#DejaVuSans-6c" x="434.667969"/>
      <use xlink:href="#DejaVuSans-69" x="462.451172"/>
      <use xlink:href="#DejaVuSans-64" x="490.234375"/>
      <use xlink:href="#DejaVuSans-61" x="553.710938"/>
      <use xlink:href="#DejaVuSans-74" x="614.990234"/>
      <use xlink:href="#DejaVuSans-69" x="654.199219"/>
      <use xlink:href="#DejaVuSans-6f" x="681.982422"/>
      <use xlink:href="#DejaVuSans-6e" x="743.164062"/>
      <use xlink:href="#DejaVuSans-20" x="806.542969"/>
      <use xlink:href="#DejaVuSans-28" x="838.330078"/>
      <use xlink:href="#DejaVuSans-6d" x="877.34375"/>
      <use xlink:href="#DejaVuSans-65" x="974.755859"/>
      <use xlink:href="#DejaVuSans-56" x="1036.279297"/>
      <use xlink:href="#DejaVuSans-2f" x="1104.6875"/>
      <use xlink:href="#DejaVuSans-61" x="1138.378906"/>
      <use xlink:href="#DejaVuSans-74" x="1199.658203"/>
      <use xlink:href="#DejaVuSans-6f" x="1238.867188"/>
      <use xlink:href="#DejaVuSans-6d" x="1300.048828"/>
      <use xlink:href="#DejaVuSans-29" x="1397.460938"/>
     </g>
    </g>
   </g>
   <g id="line2d_12">
    <path d="M 129.04597 119.179384 
L 154.448358 127.383442 
L 171.383284 131.173968 
L 179.850746 132.886917 
L 188.318209 134.388518 
L 196.785672 134.363207 
L 226.421791 134.717023 
L 239.122985 134.884772 
L 243.356716 134.944792 
L 256.05791 135.071811 
L 264.525373 135.083974 
L 281.460299 134.981422 
L 302.628955 134.947034 
L 328.031343 134.848221 
" clip-path="url(#p2381b2a655)" style="fill: none; stroke: #1f77b4; stroke-width: 1.5; stroke-linecap: square"/>
    <defs>
     <path id="m137e33bef2" d="M 0 3 
C 0.795609 3 1.55874 2.683901 2.12132 2.12132 
C 2.683901 1.55874 3 0.795609 3 0 
C 3 -0.795609 2.683901 -1.55874 2.12132 -2.12132 
C 1.55874 -2.683901 0.795609 -3 0 -3 
C -0.795609 -3 -1.55874 -2.683901 -2.12132 -2.12132 
C -2.683901 -1.55874 -3 -0.795609 -3 0 
C -3 0.795609 -2.683901 1.55874 -2.12132 2.12132 
C -1.55874 2.683901 -0.795609 3 0 3 
z
" style="stroke: #1f77b4"/>
    </defs>
    <g clip-path="url(#p2381b2a655)">
     <use xlink:href="#m137e33bef2" x="129.04597" y="119.179384" style="fill: #1f77b4; stroke: #1f77b4"/>
     <use xlink:href="#m137e33bef2" x="154.448358" y="127.383442" style="fill: #1f77b4; stroke: #1f77b4"/>
     <use xlink:href="#m137e33bef2" x="171.383284" y="131.173968" style="fill: #1f77b4; stroke: #1f77b4"/>
     <use xlink:href="#m137e33bef2" x="179.850746" y="132.886917" style="fill: #1f77b4; stroke: #1f77b4"/>
     <use xlink:href="#m137e33bef2" x="188.318209" y="134.388518" style="fill: #1f77b4; stroke: #1f77b4"/>
     <use xlink:href="#m137e33bef2" x="196.785672" y="134.363207" style="fill: #1f77b4; stroke: #1f77b4"/>
     <use xlink:href="#m137e33bef2" x="226.421791" y="134.717023" style="fill: #1f77b4; stroke: #1f77b4"/>
     <use xlink:href="#m137e33bef2" x="239.122985" y="134.884772" style="fill: #1f77b4; stroke: #1f77b4"/>
     <use xlink:href="#m137e33bef2" x="243.356716" y="134.944792" style="fill: #1f77b4; stroke: #1f77b4"/>
     <use xlink:href="#m137e33bef2" x="256.05791" y="135.071811" style="fill: #1f77b4; stroke: #1f77b4"/>
     <use xlink:href="#m137e33bef2" x="264.525373" y="135.083974" style="fill: #1f77b4; stroke: #1f77b4"/>
     <use xlink:href="#m137e33bef2" x="281.460299" y="134.981422" style="fill: #1f77b4; stroke: #1f77b4"/>
     <use xlink:href="#m137e33bef2" x="302.628955" y="134.947034" style="fill: #1f77b4; stroke: #1f77b4"/>
     <use xlink:href="#m137e33bef2" x="328.031343" y="134.848221" style="fill: #1f77b4; stroke: #1f77b4"/>
    </g>
   </g>
   <g id="line2d_13">
    <path d="M 107.877313 100.508706 
L 124.812239 118.492913 
L 141.747164 123.866248 
L 158.68209 127.81226 
L 175.617015 132.342345 
L 192.55194 133.69696 
L 209.486866 133.148274 
L 226.421791 133.621627 
L 243.356716 133.339675 
L 260.291642 133.675614 
L 277.226567 134.254575 
L 294.161493 134.061915 
L 311.096418 133.897032 
L 328.031343 133.961382 
L 344.966269 133.98157 
" clip-path="url(#p2381b2a655)" style="fill: none; stroke: #ff7f0e; stroke-width: 1.5; stroke-linecap: square"/>
    <defs>
     <path id="m5bbbb6ef46" d="M 0 3 
C 0.795609 3 1.55874 2.683901 2.12132 2.12132 
C 2.683901 1.55874 3 0.795609 3 0 
C 3 -0.795609 2.683901 -1.55874 2.12132 -2.12132 
C 1.55874 -2.683901 0.795609 -3 0 -3 
C -0.795609 -3 -1.55874 -2.683901 -2.12132 -2.12132 
C -2.683901 -1.55874 -3 -0.795609 -3 0 
C -3 0.795609 -2.683901 1.55874 -2.12132 2.12132 
C -1.55874 2.683901 -0.795609 3 0 3 
z
" style="stroke: #ff7f0e"/>
    </defs>
    <g clip-path="url(#p2381b2a655)">
     <use xlink:href="#m5bbbb6ef46" x="107.877313" y="100.508706" style="fill: #ff7f0e; stroke: #ff7f0e"/>
     <use xlink:href="#m5bbbb6ef46" x="124.812239" y="118.492913" style="fill: #ff7f0e; stroke: #ff7f0e"/>
     <use xlink:href="#m5bbbb6ef46" x="141.747164" y="123.866248" style="fill: #ff7f0e; stroke: #ff7f0e"/>
     <use xlink:href="#m5bbbb6ef46" x="158.68209" y="127.81226" style="fill: #ff7f0e; stroke: #ff7f0e"/>
     <use xlink:href="#m5bbbb6ef46" x="175.617015" y="132.342345" style="fill: #ff7f0e; stroke: #ff7f0e"/>
     <use xlink:href="#m5bbbb6ef46" x="192.55194" y="133.69696" style="fill: #ff7f0e; stroke: #ff7f0e"/>
     <use xlink:href="#m5bbbb6ef46" x="209.486866" y="133.148274" style="fill: #ff7f0e; stroke: #ff7f0e"/>
     <use xlink:href="#m5bbbb6ef46" x="226.421791" y="133.621627" style="fill: #ff7f0e; stroke: #ff7f0e"/>
     <use xlink:href="#m5bbbb6ef46" x="243.356716" y="133.339675" style="fill: #ff7f0e; stroke: #ff7f0e"/>
     <use xlink:href="#m5bbbb6ef46" x="260.291642" y="133.675614" style="fill: #ff7f0e; stroke: #ff7f0e"/>
     <use xlink:href="#m5bbbb6ef46" x="277.226567" y="134.254575" style="fill: #ff7f0e; stroke: #ff7f0e"/>
     <use xlink:href="#m5bbbb6ef46" x="294.161493" y="134.061915" style="fill: #ff7f0e; stroke: #ff7f0e"/>
     <use xlink:href="#m5bbbb6ef46" x="311.096418" y="133.897032" style="fill: #ff7f0e; stroke: #ff7f0e"/>
     <use xlink:href="#m5bbbb6ef46" x="328.031343" y="133.961382" style="fill: #ff7f0e; stroke: #ff7f0e"/>
     <use xlink:href="#m5bbbb6ef46" x="344.966269" y="133.98157" style="fill: #ff7f0e; stroke: #ff7f0e"/>
    </g>
   </g>
   <g id="line2d_14">
    <path d="M 344.966269 134.020821 
L 344.966269 134.050249 
L 344.966269 134.094514 
L 344.966269 134.172416 
L 340.732537 134.298579 
L 336.498806 134.487225 
L 323.797612 134.72647 
L 311.096418 134.968239 
L 298.395224 135.20222 
L 272.992836 135.130409 
L 251.824179 134.263271 
L 247.590448 131.167692 
L 217.954328 126.019057 
L 188.318209 115.886272 
L 162.915821 101.032269 
L 124.812239 76.622265 
L 112.111045 39.33668 
L 107.37074 -1 
" clip-path="url(#p2381b2a655)" style="fill: none; stroke: #2ca02c; stroke-width: 1.5; stroke-linecap: square"/>
    <defs>
     <path id="m1d37e75340" d="M 0 3 
C 0.795609 3 1.55874 2.683901 2.12132 2.12132 
C 2.683901 1.55874 3 0.795609 3 0 
C 3 -0.795609 2.683901 -1.55874 2.12132 -2.12132 
C 1.55874 -2.683901 0.795609 -3 0 -3 
C -0.795609 -3 -1.55874 -2.683901 -2.12132 -2.12132 
C -2.683901 -1.55874 -3 -0.795609 -3 0 
C -3 0.795609 -2.683901 1.55874 -2.12132 2.12132 
C -1.55874 2.683901 -0.795609 3 0 3 
z
" style="stroke: #2ca02c"/>
    </defs>
    <g clip-path="url(#p2381b2a655)">
     <use xlink:href="#m1d37e75340" x="344.966269" y="134.020821" style="fill: #2ca02c; stroke: #2ca02c"/>
     <use xlink:href="#m1d37e75340" x="344.966269" y="134.050249" style="fill: #2ca02c; stroke: #2ca02c"/>
     <use xlink:href="#m1d37e75340" x="344.966269" y="134.094514" style="fill: #2ca02c; stroke: #2ca02c"/>
     <use xlink:href="#m1d37e75340" x="344.966269" y="134.172416" style="fill: #2ca02c; stroke: #2ca02c"/>
     <use xlink:href="#m1d37e75340" x="340.732537" y="134.298579" style="fill: #2ca02c; stroke: #2ca02c"/>
     <use xlink:href="#m1d37e75340" x="336.498806" y="134.487225" style="fill: #2ca02c; stroke: #2ca02c"/>
     <use xlink:href="#m1d37e75340" x="323.797612" y="134.72647" style="fill: #2ca02c; stroke: #2ca02c"/>
     <use xlink:href="#m1d37e75340" x="311.096418" y="134.968239" style="fill: #2ca02c; stroke: #2ca02c"/>
     <use xlink:href="#m1d37e75340" x="298.395224" y="135.20222" style="fill: #2ca02c; stroke: #2ca02c"/>
     <use xlink:href="#m1d37e75340" x="272.992836" y="135.130409" style="fill: #2ca02c; stroke: #2ca02c"/>
     <use xlink:href="#m1d37e75340" x="251.824179" y="134.263271" style="fill: #2ca02c; stroke: #2ca02c"/>
     <use xlink:href="#m1d37e75340" x="247.590448" y="131.167692" style="fill: #2ca02c; stroke: #2ca02c"/>
     <use xlink:href="#m1d37e75340" x="217.954328" y="126.019057" style="fill: #2ca02c; stroke: #2ca02c"/>
     <use xlink:href="#m1d37e75340" x="188.318209" y="115.886272" style="fill: #2ca02c; stroke: #2ca02c"/>
     <use xlink:href="#m1d37e75340" x="162.915821" y="101.032269" style="fill: #2ca02c; stroke: #2ca02c"/>
     <use xlink:href="#m1d37e75340" x="124.812239" y="76.622265" style="fill: #2ca02c; stroke: #2ca02c"/>
     <use xlink:href="#m1d37e75340" x="112.111045" y="39.33668" style="fill: #2ca02c; stroke: #2ca02c"/>
     <use xlink:href="#m1d37e75340" x="107.37074" y="-1" style="fill: #2ca02c; stroke: #2ca02c"/>
    </g>
   </g>
   <g id="line2d_15">
    <path d="M 328.031343 134.092155 
L 319.563881 134.18043 
L 311.096418 134.377362 
L 294.161493 134.622331 
L 272.992836 134.864861 
L 260.291642 134.912649 
L 243.356716 134.958217 
L 213.720597 134.776614 
L 188.318209 132.746754 
L 167.149552 130.852233 
L 141.747164 123.264642 
L 124.812239 118.380403 
L 116.344776 113.579227 
L 107.877313 95.795265 
L 95.176119 74.83838 
L 95.176119 61.095115 
L 90.942388 23.655502 
L 87.539656 -1 
" clip-path="url(#p2381b2a655)" style="fill: none; stroke: #d62728; stroke-width: 1.5; stroke-linecap: square"/>
    <defs>
     <path id="m9776a873fc" d="M 0 3 
C 0.795609 3 1.55874 2.683901 2.12132 2.12132 
C 2.683901 1.55874 3 0.795609 3 0 
C 3 -0.795609 2.683901 -1.55874 2.12132 -2.12132 
C 1.55874 -2.683901 0.795609 -3 0 -3 
C -0.795609 -3 -1.55874 -2.683901 -2.12132 -2.12132 
C -2.683901 -1.55874 -3 -0.795609 -3 0 
C -3 0.795609 -2.683901 1.55874 -2.12132 2.12132 
C -1.55874 2.683901 -0.795609 3 0 3 
z
" style="stroke: #d62728"/>
    </defs>
    <g clip-path="url(#p2381b2a655)">
     <use xlink:href="#m9776a873fc" x="328.031343" y="134.092155" style="fill: #d62728; stroke: #d62728"/>
     <use xlink:href="#m9776a873fc" x="319.563881" y="134.18043" style="fill: #d62728; stroke: #d62728"/>
     <use xlink:href="#m9776a873fc" x="311.096418" y="134.377362" style="fill: #d62728; stroke: #d62728"/>
     <use xlink:href="#m9776a873fc" x="294.161493" y="134.622331" style="fill: #d62728; stroke: #d62728"/>
     <use xlink:href="#m9776a873fc" x="272.992836" y="134.864861" style="fill: #d62728; stroke: #d62728"/>
     <use xlink:href="#m9776a873fc" x="260.291642" y="134.912649" style="fill: #d62728; stroke: #d62728"/>
     <use xlink:href="#m9776a873fc" x="243.356716" y="134.958217" style="fill: #d62728; stroke: #d62728"/>
     <use xlink:href="#m9776a873fc" x="213.720597" y="134.776614" style="fill: #d62728; stroke: #d62728"/>
     <use xlink:href="#m9776a873fc" x="188.318209" y="132.746754" style="fill: #d62728; stroke: #d62728"/>
     <use xlink:href="#m9776a873fc" x="167.149552" y="130.852233" style="fill: #d62728; stroke: #d62728"/>
     <use xlink:href="#m9776a873fc" x="141.747164" y="123.264642" style="fill: #d62728; stroke: #d62728"/>
     <use xlink:href="#m9776a873fc" x="124.812239" y="118.380403" style="fill: #d62728; stroke: #d62728"/>
     <use xlink:href="#m9776a873fc" x="116.344776" y="113.579227" style="fill: #d62728; stroke: #d62728"/>
     <use xlink:href="#m9776a873fc" x="107.877313" y="95.795265" style="fill: #d62728; stroke: #d62728"/>
     <use xlink:href="#m9776a873fc" x="95.176119" y="74.83838" style="fill: #d62728; stroke: #d62728"/>
     <use xlink:href="#m9776a873fc" x="95.176119" y="61.095115" style="fill: #d62728; stroke: #d62728"/>
     <use xlink:href="#m9776a873fc" x="90.942388" y="23.655502" style="fill: #d62728; stroke: #d62728"/>
     <use xlink:href="#m9776a873fc" x="87.539656" y="-1" style="fill: #d62728; stroke: #d62728"/>
    </g>
   </g>
   <g id="patch_3">
    <path d="M 65.54 150.48 
L 65.54 14.76 
" style="fill: none; stroke: #000000; stroke-width: 0.8; stroke-linejoin: miter; stroke-linecap: square"/>
   </g>
   <g id="patch_4">
    <path d="M 349.2 150.48 
L 349.2 14.76 
" style="fill: none; stroke: #000000; stroke-width: 0.8; stroke-linejoin: miter; stroke-linecap: square"/>
   </g>
   <g id="patch_5">
    <path d="M 65.54 150.48 
L 349.2 150.48 
" style="fill: none; stroke: #000000; stroke-width: 0.8; stroke-linejoin: miter; stroke-linecap: square"/>
   </g>
   <g id="patch_6">
    <path d="M 65.54 14.76 
L 349.2 14.76 
" style="fill: none; stroke: #000000; stroke-width: 0.8; stroke-linejoin: miter; stroke-linecap: square"/>
   </g>
   <g id="legend_1">
    <g id="patch_7">
     <path d="M 229.6625 81.4725 
L 342.2 81.4725 
Q 344.2 81.4725 344.2 79.4725 
L 344.2 21.76 
Q 344.2 19.76 342.2 19.76 
L 229.6625 19.76 
Q 227.6625 19.76 227.6625 21.76 
L 227.6625 79.4725 
Q 227.6625 81.4725 229.6625 81.4725 
z
" style="fill: #ffffff; opacity: 0.8; stroke: #cccccc; stroke-linejoin: miter"/>
    </g>
    <g id="line2d_16">
     <path d="M 231.6625 27.858437 
L 241.6625 27.858437 
L 251.6625 27.858437 
" style="fill: none; stroke: #1f77b4; stroke-width: 1.5; stroke-linecap: square"/>
     <g>
      <use xlink:href="#m137e33bef2" x="241.6625" y="27.858437" style="fill: #1f77b4; stroke: #1f77b4"/>
     </g>
    </g>
    <g id="text_13">
     <!-- ARDR -->
     <g transform="translate(259.6625 31.358437)scale(0.1 -0.1)">
      <defs>
       <path id="DejaVuSans-41" d="M 2188 4044 
L 1331 1722 
L 3047 1722 
L 2188 4044 
z
M 1831 4666 
L 2547 4666 
L 4325 0 
L 3669 0 
L 3244 1197 
L 1141 1197 
L 716 0 
L 50 0 
L 1831 4666 
z
" transform="scale(0.015625)"/>
       <path id="DejaVuSans-44" d="M 1259 4147 
L 1259 519 
L 2022 519 
Q 2988 519 3436 956 
Q 3884 1394 3884 2338 
Q 3884 3275 3436 3711 
Q 2988 4147 2022 4147 
L 1259 4147 
z
M 628 4666 
L 1925 4666 
Q 3281 4666 3915 4102 
Q 4550 3538 4550 2338 
Q 4550 1131 3912 565 
Q 3275 0 1925 0 
L 628 0 
L 628 4666 
z
" transform="scale(0.015625)"/>
      </defs>
      <use xlink:href="#DejaVuSans-41"/>
      <use xlink:href="#DejaVuSans-52" x="68.408203"/>
      <use xlink:href="#DejaVuSans-44" x="137.890625"/>
      <use xlink:href="#DejaVuSans-52" x="214.892578"/>
     </g>
    </g>
    <g id="line2d_17">
     <path d="M 231.6625 42.536563 
L 241.6625 42.536563 
L 251.6625 42.536563 
" style="fill: none; stroke: #ff7f0e; stroke-width: 1.5; stroke-linecap: square"/>
     <g>
      <use xlink:href="#m5bbbb6ef46" x="241.6625" y="42.536563" style="fill: #ff7f0e; stroke: #ff7f0e"/>
     </g>
    </g>
    <g id="text_14">
     <!-- RFE -->
     <g transform="translate(259.6625 46.036563)scale(0.1 -0.1)">
      <defs>
       <path id="DejaVuSans-46" d="M 628 4666 
L 3309 4666 
L 3309 4134 
L 1259 4134 
L 1259 2759 
L 3109 2759 
L 3109 2228 
L 1259 2228 
L 1259 0 
L 628 0 
L 628 4666 
z
" transform="scale(0.015625)"/>
      </defs>
      <use xlink:href="#DejaVuSans-52"/>
      <use xlink:href="#DejaVuSans-46" x="69.482422"/>
      <use xlink:href="#DejaVuSans-45" x="127.001953"/>
     </g>
    </g>
    <g id="line2d_18">
     <path d="M 231.6625 57.214687 
L 241.6625 57.214687 
L 251.6625 57.214687 
" style="fill: none; stroke: #2ca02c; stroke-width: 1.5; stroke-linecap: square"/>
     <g>
      <use xlink:href="#m1d37e75340" x="241.6625" y="57.214687" style="fill: #2ca02c; stroke: #2ca02c"/>
     </g>
    </g>
    <g id="text_15">
     <!-- LASSO -->
     <g transform="translate(259.6625 60.714687)scale(0.1 -0.1)">
      <defs>
       <path id="DejaVuSans-4c" d="M 628 4666 
L 1259 4666 
L 1259 531 
L 3531 531 
L 3531 0 
L 628 0 
L 628 4666 
z
" transform="scale(0.015625)"/>
       <path id="DejaVuSans-4f" d="M 2522 4238 
Q 1834 4238 1429 3725 
Q 1025 3213 1025 2328 
Q 1025 1447 1429 934 
Q 1834 422 2522 422 
Q 3209 422 3611 934 
Q 4013 1447 4013 2328 
Q 4013 3213 3611 3725 
Q 3209 4238 2522 4238 
z
M 2522 4750 
Q 3503 4750 4090 4092 
Q 4678 3434 4678 2328 
Q 4678 1225 4090 567 
Q 3503 -91 2522 -91 
Q 1538 -91 948 565 
Q 359 1222 359 2328 
Q 359 3434 948 4092 
Q 1538 4750 2522 4750 
z
" transform="scale(0.015625)"/>
      </defs>
      <use xlink:href="#DejaVuSans-4c"/>
      <use xlink:href="#DejaVuSans-41" x="57.962891"/>
      <use xlink:href="#DejaVuSans-53" x="126.371094"/>
      <use xlink:href="#DejaVuSans-53" x="189.847656"/>
      <use xlink:href="#DejaVuSans-4f" x="253.324219"/>
     </g>
    </g>
    <g id="line2d_19">
     <path d="M 231.6625 71.892812 
L 241.6625 71.892812 
L 251.6625 71.892812 
" style="fill: none; stroke: #d62728; stroke-width: 1.5; stroke-linecap: square"/>
     <g>
      <use xlink:href="#m9776a873fc" x="241.6625" y="71.892812" style="fill: #d62728; stroke: #d62728"/>
     </g>
    </g>
    <g id="text_16">
     <!-- adaptive-LASSO -->
     <g transform="translate(259.6625 75.392812)scale(0.1 -0.1)">
      <defs>
       <path id="DejaVuSans-70" d="M 1159 525 
L 1159 -1331 
L 581 -1331 
L 581 3500 
L 1159 3500 
L 1159 2969 
Q 1341 3281 1617 3432 
Q 1894 3584 2278 3584 
Q 2916 3584 3314 3078 
Q 3713 2572 3713 1747 
Q 3713 922 3314 415 
Q 2916 -91 2278 -91 
Q 1894 -91 1617 61 
Q 1341 213 1159 525 
z
M 3116 1747 
Q 3116 2381 2855 2742 
Q 2594 3103 2138 3103 
Q 1681 3103 1420 2742 
Q 1159 2381 1159 1747 
Q 1159 1113 1420 752 
Q 1681 391 2138 391 
Q 2594 391 2855 752 
Q 3116 1113 3116 1747 
z
" transform="scale(0.015625)"/>
       <path id="DejaVuSans-2d" d="M 313 2009 
L 1997 2009 
L 1997 1497 
L 313 1497 
L 313 2009 
z
" transform="scale(0.015625)"/>
      </defs>
      <use xlink:href="#DejaVuSans-61"/>
      <use xlink:href="#DejaVuSans-64" x="61.279297"/>
      <use xlink:href="#DejaVuSans-61" x="124.755859"/>
      <use xlink:href="#DejaVuSans-70" x="186.035156"/>
      <use xlink:href="#DejaVuSans-74" x="249.511719"/>
      <use xlink:href="#DejaVuSans-69" x="288.720703"/>
      <use xlink:href="#DejaVuSans-76" x="316.503906"/>
      <use xlink:href="#DejaVuSans-65" x="375.683594"/>
      <use xlink:href="#DejaVuSans-2d" x="437.207031"/>
      <use xlink:href="#DejaVuSans-4c" x="473.291016"/>
      <use xlink:href="#DejaVuSans-41" x="531.253906"/>
      <use xlink:href="#DejaVuSans-53" x="599.662109"/>
      <use xlink:href="#DejaVuSans-53" x="663.138672"/>
      <use xlink:href="#DejaVuSans-4f" x="726.615234"/>
     </g>
    </g>
   </g>
  </g>
  <g id="axes_2">
   <g id="patch_8">
    <path d="M 65.54 318.04 
L 349.2 318.04 
L 349.2 182.32 
L 65.54 182.32 
z
" style="fill: #ffffff"/>
   </g>
   <g id="matplotlib.axis_3">
    <g id="xtick_8">
     <g id="line2d_20">
      <g>
       <use xlink:href="#m18678a0fa9" x="65.54" y="318.04" style="stroke: #000000; stroke-width: 0.8"/>
      </g>
     </g>
     <g id="text_17">
      <!-- 0 -->
      <g transform="translate(62.35875 332.638438)scale(0.1 -0.1)">
       <use xlink:href="#DejaVuSans-30"/>
      </g>
     </g>
    </g>
    <g id="xtick_9">
     <g id="line2d_21">
      <g>
       <use xlink:href="#m18678a0fa9" x="107.877313" y="318.04" style="stroke: #000000; stroke-width: 0.8"/>
      </g>
     </g>
     <g id="text_18">
      <!-- 10 -->
      <g transform="translate(101.514813 332.638438)scale(0.1 -0.1)">
       <use xlink:href="#DejaVuSans-31"/>
       <use xlink:href="#DejaVuSans-30" x="63.623047"/>
      </g>
     </g>
    </g>
    <g id="xtick_10">
     <g id="line2d_22">
      <g>
       <use xlink:href="#m18678a0fa9" x="150.214627" y="318.04" style="stroke: #000000; stroke-width: 0.8"/>
      </g>
     </g>
     <g id="text_19">
      <!-- 20 -->
      <g transform="translate(143.852127 332.638438)scale(0.1 -0.1)">
       <use xlink:href="#DejaVuSans-32"/>
       <use xlink:href="#DejaVuSans-30" x="63.623047"/>
      </g>
     </g>
    </g>
    <g id="xtick_11">
     <g id="line2d_23">
      <g>
       <use xlink:href="#m18678a0fa9" x="192.55194" y="318.04" style="stroke: #000000; stroke-width: 0.8"/>
      </g>
     </g>
     <g id="text_20">
      <!-- 30 -->
      <g transform="translate(186.18944 332.638438)scale(0.1 -0.1)">
       <use xlink:href="#DejaVuSans-33"/>
       <use xlink:href="#DejaVuSans-30" x="63.623047"/>
      </g>
     </g>
    </g>
    <g id="xtick_12">
     <g id="line2d_24">
      <g>
       <use xlink:href="#m18678a0fa9" x="234.889254" y="318.04" style="stroke: #000000; stroke-width: 0.8"/>
      </g>
     </g>
     <g id="text_21">
      <!-- 40 -->
      <g transform="translate(228.526754 332.638438)scale(0.1 -0.1)">
       <use xlink:href="#DejaVuSans-34"/>
       <use xlink:href="#DejaVuSans-30" x="63.623047"/>
      </g>
     </g>
    </g>
    <g id="xtick_13">
     <g id="line2d_25">
      <g>
       <use xlink:href="#m18678a0fa9" x="277.226567" y="318.04" style="stroke: #000000; stroke-width: 0.8"/>
      </g>
     </g>
     <g id="text_22">
      <!-- 50 -->
      <g transform="translate(270.864067 332.638438)scale(0.1 -0.1)">
       <use xlink:href="#DejaVuSans-35"/>
       <use xlink:href="#DejaVuSans-30" x="63.623047"/>
      </g>
     </g>
    </g>
    <g id="xtick_14">
     <g id="line2d_26">
      <g>
       <use xlink:href="#m18678a0fa9" x="319.563881" y="318.04" style="stroke: #000000; stroke-width: 0.8"/>
      </g>
     </g>
     <g id="text_23">
      <!-- 60 -->
      <g transform="translate(313.201381 332.638438)scale(0.1 -0.1)">
       <use xlink:href="#DejaVuSans-36"/>
       <use xlink:href="#DejaVuSans-30" x="63.623047"/>
      </g>
     </g>
    </g>
    <g id="text_24">
     <!-- Number of nonzero parameters -->
     <g transform="translate(128.595781 346.316563)scale(0.1 -0.1)">
      <defs>
       <path id="DejaVuSans-4e" d="M 628 4666 
L 1478 4666 
L 3547 763 
L 3547 4666 
L 4159 4666 
L 4159 0 
L 3309 0 
L 1241 3903 
L 1241 0 
L 628 0 
L 628 4666 
z
" transform="scale(0.015625)"/>
       <path id="DejaVuSans-75" d="M 544 1381 
L 544 3500 
L 1119 3500 
L 1119 1403 
Q 1119 906 1312 657 
Q 1506 409 1894 409 
Q 2359 409 2629 706 
Q 2900 1003 2900 1516 
L 2900 3500 
L 3475 3500 
L 3475 0 
L 2900 0 
L 2900 538 
Q 2691 219 2414 64 
Q 2138 -91 1772 -91 
Q 1169 -91 856 284 
Q 544 659 544 1381 
z
M 1991 3584 
L 1991 3584 
z
" transform="scale(0.015625)"/>
       <path id="DejaVuSans-62" d="M 3116 1747 
Q 3116 2381 2855 2742 
Q 2594 3103 2138 3103 
Q 1681 3103 1420 2742 
Q 1159 2381 1159 1747 
Q 1159 1113 1420 752 
Q 1681 391 2138 391 
Q 2594 391 2855 752 
Q 3116 1113 3116 1747 
z
M 1159 2969 
Q 1341 3281 1617 3432 
Q 1894 3584 2278 3584 
Q 2916 3584 3314 3078 
Q 3713 2572 3713 1747 
Q 3713 922 3314 415 
Q 2916 -91 2278 -91 
Q 1894 -91 1617 61 
Q 1341 213 1159 525 
L 1159 0 
L 581 0 
L 581 4863 
L 1159 4863 
L 1159 2969 
z
" transform="scale(0.015625)"/>
       <path id="DejaVuSans-72" d="M 2631 2963 
Q 2534 3019 2420 3045 
Q 2306 3072 2169 3072 
Q 1681 3072 1420 2755 
Q 1159 2438 1159 1844 
L 1159 0 
L 581 0 
L 581 3500 
L 1159 3500 
L 1159 2956 
Q 1341 3275 1631 3429 
Q 1922 3584 2338 3584 
Q 2397 3584 2469 3576 
Q 2541 3569 2628 3553 
L 2631 2963 
z
" transform="scale(0.015625)"/>
       <path id="DejaVuSans-66" d="M 2375 4863 
L 2375 4384 
L 1825 4384 
Q 1516 4384 1395 4259 
Q 1275 4134 1275 3809 
L 1275 3500 
L 2222 3500 
L 2222 3053 
L 1275 3053 
L 1275 0 
L 697 0 
L 697 3053 
L 147 3053 
L 147 3500 
L 697 3500 
L 697 3744 
Q 697 4328 969 4595 
Q 1241 4863 1831 4863 
L 2375 4863 
z
" transform="scale(0.015625)"/>
       <path id="DejaVuSans-7a" d="M 353 3500 
L 3084 3500 
L 3084 2975 
L 922 459 
L 3084 459 
L 3084 0 
L 275 0 
L 275 525 
L 2438 3041 
L 353 3041 
L 353 3500 
z
" transform="scale(0.015625)"/>
       <path id="DejaVuSans-73" d="M 2834 3397 
L 2834 2853 
Q 2591 2978 2328 3040 
Q 2066 3103 1784 3103 
Q 1356 3103 1142 2972 
Q 928 2841 928 2578 
Q 928 2378 1081 2264 
Q 1234 2150 1697 2047 
L 1894 2003 
Q 2506 1872 2764 1633 
Q 3022 1394 3022 966 
Q 3022 478 2636 193 
Q 2250 -91 1575 -91 
Q 1294 -91 989 -36 
Q 684 19 347 128 
L 347 722 
Q 666 556 975 473 
Q 1284 391 1588 391 
Q 1994 391 2212 530 
Q 2431 669 2431 922 
Q 2431 1156 2273 1281 
Q 2116 1406 1581 1522 
L 1381 1569 
Q 847 1681 609 1914 
Q 372 2147 372 2553 
Q 372 3047 722 3315 
Q 1072 3584 1716 3584 
Q 2034 3584 2315 3537 
Q 2597 3491 2834 3397 
z
" transform="scale(0.015625)"/>
      </defs>
      <use xlink:href="#DejaVuSans-4e"/>
      <use xlink:href="#DejaVuSans-75" x="74.804688"/>
      <use xlink:href="#DejaVuSans-6d" x="138.183594"/>
      <use xlink:href="#DejaVuSans-62" x="235.595703"/>
      <use xlink:href="#DejaVuSans-65" x="299.072266"/>
      <use xlink:href="#DejaVuSans-72" x="360.595703"/>
      <use xlink:href="#DejaVuSans-20" x="401.708984"/>
      <use xlink:href="#DejaVuSans-6f" x="433.496094"/>
      <use xlink:href="#DejaVuSans-66" x="494.677734"/>
      <use xlink:href="#DejaVuSans-20" x="529.882812"/>
      <use xlink:href="#DejaVuSans-6e" x="561.669922"/>
      <use xlink:href="#DejaVuSans-6f" x="625.048828"/>
      <use xlink:href="#DejaVuSans-6e" x="686.230469"/>
      <use xlink:href="#DejaVuSans-7a" x="749.609375"/>
      <use xlink:href="#DejaVuSans-65" x="802.099609"/>
      <use xlink:href="#DejaVuSans-72" x="863.623047"/>
      <use xlink:href="#DejaVuSans-6f" x="902.486328"/>
      <use xlink:href="#DejaVuSans-20" x="963.667969"/>
      <use xlink:href="#DejaVuSans-70" x="995.455078"/>
      <use xlink:href="#DejaVuSans-61" x="1058.931641"/>
      <use xlink:href="#DejaVuSans-72" x="1120.210938"/>
      <use xlink:href="#DejaVuSans-61" x="1161.324219"/>
      <use xlink:href="#DejaVuSans-6d" x="1222.603516"/>
      <use xlink:href="#DejaVuSans-65" x="1320.015625"/>
      <use xlink:href="#DejaVuSans-74" x="1381.539062"/>
      <use xlink:href="#DejaVuSans-65" x="1420.748047"/>
      <use xlink:href="#DejaVuSans-72" x="1482.271484"/>
      <use xlink:href="#DejaVuSans-73" x="1523.384766"/>
     </g>
    </g>
   </g>
   <g id="matplotlib.axis_4">
    <g id="ytick_5">
     <g id="line2d_27">
      <g>
       <use xlink:href="#m1c952e4942" x="65.54" y="318.04" style="stroke: #000000; stroke-width: 0.8"/>
      </g>
     </g>
     <g id="text_25">
      <!-- −7800 -->
      <g transform="translate(24.710313 321.839219)scale(0.1 -0.1)">
       <defs>
        <path id="DejaVuSans-2212" d="M 678 2272 
L 4684 2272 
L 4684 1741 
L 678 1741 
L 678 2272 
z
" transform="scale(0.015625)"/>
        <path id="DejaVuSans-37" d="M 525 4666 
L 3525 4666 
L 3525 4397 
L 1831 0 
L 1172 0 
L 2766 4134 
L 525 4134 
L 525 4666 
z
" transform="scale(0.015625)"/>
        <path id="DejaVuSans-38" d="M 2034 2216 
Q 1584 2216 1326 1975 
Q 1069 1734 1069 1313 
Q 1069 891 1326 650 
Q 1584 409 2034 409 
Q 2484 409 2743 651 
Q 3003 894 3003 1313 
Q 3003 1734 2745 1975 
Q 2488 2216 2034 2216 
z
M 1403 2484 
Q 997 2584 770 2862 
Q 544 3141 544 3541 
Q 544 4100 942 4425 
Q 1341 4750 2034 4750 
Q 2731 4750 3128 4425 
Q 3525 4100 3525 3541 
Q 3525 3141 3298 2862 
Q 3072 2584 2669 2484 
Q 3125 2378 3379 2068 
Q 3634 1759 3634 1313 
Q 3634 634 3220 271 
Q 2806 -91 2034 -91 
Q 1263 -91 848 271 
Q 434 634 434 1313 
Q 434 1759 690 2068 
Q 947 2378 1403 2484 
z
M 1172 3481 
Q 1172 3119 1398 2916 
Q 1625 2713 2034 2713 
Q 2441 2713 2670 2916 
Q 2900 3119 2900 3481 
Q 2900 3844 2670 4047 
Q 2441 4250 2034 4250 
Q 1625 4250 1398 4047 
Q 1172 3844 1172 3481 
z
" transform="scale(0.015625)"/>
       </defs>
       <use xlink:href="#DejaVuSans-2212"/>
       <use xlink:href="#DejaVuSans-37" x="83.789062"/>
       <use xlink:href="#DejaVuSans-38" x="147.412109"/>
       <use xlink:href="#DejaVuSans-30" x="211.035156"/>
       <use xlink:href="#DejaVuSans-30" x="274.658203"/>
      </g>
     </g>
    </g>
    <g id="ytick_6">
     <g id="line2d_28">
      <g>
       <use xlink:href="#m1c952e4942" x="65.54" y="284.11" style="stroke: #000000; stroke-width: 0.8"/>
      </g>
     </g>
     <g id="text_26">
      <!-- −7600 -->
      <g transform="translate(24.710313 287.909219)scale(0.1 -0.1)">
       <use xlink:href="#DejaVuSans-2212"/>
       <use xlink:href="#DejaVuSans-37" x="83.789062"/>
       <use xlink:href="#DejaVuSans-36" x="147.412109"/>
       <use xlink:href="#DejaVuSans-30" x="211.035156"/>
       <use xlink:href="#DejaVuSans-30" x="274.658203"/>
      </g>
     </g>
    </g>
    <g id="ytick_7">
     <g id="line2d_29">
      <g>
       <use xlink:href="#m1c952e4942" x="65.54" y="250.18" style="stroke: #000000; stroke-width: 0.8"/>
      </g>
     </g>
     <g id="text_27">
      <!-- −7400 -->
      <g transform="translate(24.710313 253.979219)scale(0.1 -0.1)">
       <use xlink:href="#DejaVuSans-2212"/>
       <use xlink:href="#DejaVuSans-37" x="83.789062"/>
       <use xlink:href="#DejaVuSans-34" x="147.412109"/>
       <use xlink:href="#DejaVuSans-30" x="211.035156"/>
       <use xlink:href="#DejaVuSans-30" x="274.658203"/>
      </g>
     </g>
    </g>
    <g id="ytick_8">
     <g id="line2d_30">
      <g>
       <use xlink:href="#m1c952e4942" x="65.54" y="216.25" style="stroke: #000000; stroke-width: 0.8"/>
      </g>
     </g>
     <g id="text_28">
      <!-- −7200 -->
      <g transform="translate(24.710313 220.049219)scale(0.1 -0.1)">
       <use xlink:href="#DejaVuSans-2212"/>
       <use xlink:href="#DejaVuSans-37" x="83.789062"/>
       <use xlink:href="#DejaVuSans-32" x="147.412109"/>
       <use xlink:href="#DejaVuSans-30" x="211.035156"/>
       <use xlink:href="#DejaVuSans-30" x="274.658203"/>
      </g>
     </g>
    </g>
    <g id="ytick_9">
     <g id="line2d_31">
      <g>
       <use xlink:href="#m1c952e4942" x="65.54" y="182.32" style="stroke: #000000; stroke-width: 0.8"/>
      </g>
     </g>
     <g id="text_29">
      <!-- −7000 -->
      <g transform="translate(24.710313 186.119219)scale(0.1 -0.1)">
       <use xlink:href="#DejaVuSans-2212"/>
       <use xlink:href="#DejaVuSans-37" x="83.789062"/>
       <use xlink:href="#DejaVuSans-30" x="147.412109"/>
       <use xlink:href="#DejaVuSans-30" x="211.035156"/>
       <use xlink:href="#DejaVuSans-30" x="274.658203"/>
      </g>
     </g>
    </g>
    <g id="text_30">
     <!-- BIC -->
     <g transform="translate(18.630625 258.576875)rotate(-90)scale(0.1 -0.1)">
      <defs>
       <path id="DejaVuSans-42" d="M 1259 2228 
L 1259 519 
L 2272 519 
Q 2781 519 3026 730 
Q 3272 941 3272 1375 
Q 3272 1813 3026 2020 
Q 2781 2228 2272 2228 
L 1259 2228 
z
M 1259 4147 
L 1259 2741 
L 2194 2741 
Q 2656 2741 2882 2914 
Q 3109 3088 3109 3444 
Q 3109 3797 2882 3972 
Q 2656 4147 2194 4147 
L 1259 4147 
z
M 628 4666 
L 2241 4666 
Q 2963 4666 3353 4366 
Q 3744 4066 3744 3513 
Q 3744 3084 3544 2831 
Q 3344 2578 2956 2516 
Q 3422 2416 3680 2098 
Q 3938 1781 3938 1306 
Q 3938 681 3513 340 
Q 3088 0 2303 0 
L 628 0 
L 628 4666 
z
" transform="scale(0.015625)"/>
       <path id="DejaVuSans-49" d="M 628 4666 
L 1259 4666 
L 1259 0 
L 628 0 
L 628 4666 
z
" transform="scale(0.015625)"/>
       <path id="DejaVuSans-43" d="M 4122 4306 
L 4122 3641 
Q 3803 3938 3442 4084 
Q 3081 4231 2675 4231 
Q 1875 4231 1450 3742 
Q 1025 3253 1025 2328 
Q 1025 1406 1450 917 
Q 1875 428 2675 428 
Q 3081 428 3442 575 
Q 3803 722 4122 1019 
L 4122 359 
Q 3791 134 3420 21 
Q 3050 -91 2638 -91 
Q 1578 -91 968 557 
Q 359 1206 359 2328 
Q 359 3453 968 4101 
Q 1578 4750 2638 4750 
Q 3056 4750 3426 4639 
Q 3797 4528 4122 4306 
z
" transform="scale(0.015625)"/>
      </defs>
      <use xlink:href="#DejaVuSans-42"/>
      <use xlink:href="#DejaVuSans-49" x="68.603516"/>
      <use xlink:href="#DejaVuSans-43" x="98.095703"/>
     </g>
    </g>
   </g>
   <g id="line2d_32">
    <path d="M 129.04597 275.111909 
L 154.448358 295.667042 
L 171.383284 306.266364 
L 179.850746 307.025304 
L 188.318209 307.216382 
L 196.785672 306.159625 
L 226.421791 302.335308 
L 239.122985 299.973768 
L 243.356716 298.871795 
L 256.05791 296.038263 
L 264.525373 293.941849 
L 281.460299 289.645256 
L 302.628955 284.239726 
L 328.031343 277.682519 
" clip-path="url(#p5a3a56b616)" style="fill: none; stroke: #1f77b4; stroke-width: 1.5; stroke-linecap: square"/>
    <g clip-path="url(#p5a3a56b616)">
     <use xlink:href="#m137e33bef2" x="129.04597" y="275.111909" style="fill: #1f77b4; stroke: #1f77b4"/>
     <use xlink:href="#m137e33bef2" x="154.448358" y="295.667042" style="fill: #1f77b4; stroke: #1f77b4"/>
     <use xlink:href="#m137e33bef2" x="171.383284" y="306.266364" style="fill: #1f77b4; stroke: #1f77b4"/>
     <use xlink:href="#m137e33bef2" x="179.850746" y="307.025304" style="fill: #1f77b4; stroke: #1f77b4"/>
     <use xlink:href="#m137e33bef2" x="188.318209" y="307.216382" style="fill: #1f77b4; stroke: #1f77b4"/>
     <use xlink:href="#m137e33bef2" x="196.785672" y="306.159625" style="fill: #1f77b4; stroke: #1f77b4"/>
     <use xlink:href="#m137e33bef2" x="226.421791" y="302.335308" style="fill: #1f77b4; stroke: #1f77b4"/>
     <use xlink:href="#m137e33bef2" x="239.122985" y="299.973768" style="fill: #1f77b4; stroke: #1f77b4"/>
     <use xlink:href="#m137e33bef2" x="243.356716" y="298.871795" style="fill: #1f77b4; stroke: #1f77b4"/>
     <use xlink:href="#m137e33bef2" x="256.05791" y="296.038263" style="fill: #1f77b4; stroke: #1f77b4"/>
     <use xlink:href="#m137e33bef2" x="264.525373" y="293.941849" style="fill: #1f77b4; stroke: #1f77b4"/>
     <use xlink:href="#m137e33bef2" x="281.460299" y="289.645256" style="fill: #1f77b4; stroke: #1f77b4"/>
     <use xlink:href="#m137e33bef2" x="302.628955" y="284.239726" style="fill: #1f77b4; stroke: #1f77b4"/>
     <use xlink:href="#m137e33bef2" x="328.031343" y="277.682519" style="fill: #1f77b4; stroke: #1f77b4"/>
    </g>
   </g>
   <g id="line2d_33">
    <path d="M 107.877313 242.496168 
L 124.812239 275.324747 
L 141.747164 290.25754 
L 158.68209 298.733379 
L 175.617015 305.515865 
L 192.55194 307.305225 
L 209.486866 304.716023 
L 226.421791 302.93796 
L 243.356716 299.897191 
L 260.291642 296.646876 
L 277.226567 292.735772 
L 294.161493 288.803496 
L 311.096418 284.574259 
L 328.031343 280.276467 
L 344.966269 275.909194 
" clip-path="url(#p5a3a56b616)" style="fill: none; stroke: #ff7f0e; stroke-width: 1.5; stroke-linecap: square"/>
    <g clip-path="url(#p5a3a56b616)">
     <use xlink:href="#m5bbbb6ef46" x="107.877313" y="242.496168" style="fill: #ff7f0e; stroke: #ff7f0e"/>
     <use xlink:href="#m5bbbb6ef46" x="124.812239" y="275.324747" style="fill: #ff7f0e; stroke: #ff7f0e"/>
     <use xlink:href="#m5bbbb6ef46" x="141.747164" y="290.25754" style="fill: #ff7f0e; stroke: #ff7f0e"/>
     <use xlink:href="#m5bbbb6ef46" x="158.68209" y="298.733379" style="fill: #ff7f0e; stroke: #ff7f0e"/>
     <use xlink:href="#m5bbbb6ef46" x="175.617015" y="305.515865" style="fill: #ff7f0e; stroke: #ff7f0e"/>
     <use xlink:href="#m5bbbb6ef46" x="192.55194" y="307.305225" style="fill: #ff7f0e; stroke: #ff7f0e"/>
     <use xlink:href="#m5bbbb6ef46" x="209.486866" y="304.716023" style="fill: #ff7f0e; stroke: #ff7f0e"/>
     <use xlink:href="#m5bbbb6ef46" x="226.421791" y="302.93796" style="fill: #ff7f0e; stroke: #ff7f0e"/>
     <use xlink:href="#m5bbbb6ef46" x="243.356716" y="299.897191" style="fill: #ff7f0e; stroke: #ff7f0e"/>
     <use xlink:href="#m5bbbb6ef46" x="260.291642" y="296.646876" style="fill: #ff7f0e; stroke: #ff7f0e"/>
     <use xlink:href="#m5bbbb6ef46" x="277.226567" y="292.735772" style="fill: #ff7f0e; stroke: #ff7f0e"/>
     <use xlink:href="#m5bbbb6ef46" x="294.161493" y="288.803496" style="fill: #ff7f0e; stroke: #ff7f0e"/>
     <use xlink:href="#m5bbbb6ef46" x="311.096418" y="284.574259" style="fill: #ff7f0e; stroke: #ff7f0e"/>
     <use xlink:href="#m5bbbb6ef46" x="328.031343" y="280.276467" style="fill: #ff7f0e; stroke: #ff7f0e"/>
     <use xlink:href="#m5bbbb6ef46" x="344.966269" y="275.909194" style="fill: #ff7f0e; stroke: #ff7f0e"/>
    </g>
   </g>
   <g id="line2d_34">
    <path d="M 344.966269 275.908136 
L 344.966269 275.906068 
L 344.966269 275.899412 
L 344.966269 275.884012 
L 340.732537 276.937775 
L 336.498806 277.943173 
L 323.797612 281.055204 
L 311.096418 283.829083 
L 298.395224 285.993372 
L 272.992836 290.320323 
L 251.824179 291.625704 
L 247.590448 283.010326 
L 217.954328 273.14237 
L 188.318209 252.484671 
L 162.915821 224.695339 
L 124.812239 189.60126 
L 112.111045 139.114325 
L 103.643582 65.181656 
L 95.867901 -1 
" clip-path="url(#p5a3a56b616)" style="fill: none; stroke: #2ca02c; stroke-width: 1.5; stroke-linecap: square"/>
    <g clip-path="url(#p5a3a56b616)">
     <use xlink:href="#m1d37e75340" x="344.966269" y="275.908136" style="fill: #2ca02c; stroke: #2ca02c"/>
     <use xlink:href="#m1d37e75340" x="344.966269" y="275.906068" style="fill: #2ca02c; stroke: #2ca02c"/>
     <use xlink:href="#m1d37e75340" x="344.966269" y="275.899412" style="fill: #2ca02c; stroke: #2ca02c"/>
     <use xlink:href="#m1d37e75340" x="344.966269" y="275.884012" style="fill: #2ca02c; stroke: #2ca02c"/>
     <use xlink:href="#m1d37e75340" x="340.732537" y="276.937775" style="fill: #2ca02c; stroke: #2ca02c"/>
     <use xlink:href="#m1d37e75340" x="336.498806" y="277.943173" style="fill: #2ca02c; stroke: #2ca02c"/>
     <use xlink:href="#m1d37e75340" x="323.797612" y="281.055204" style="fill: #2ca02c; stroke: #2ca02c"/>
     <use xlink:href="#m1d37e75340" x="311.096418" y="283.829083" style="fill: #2ca02c; stroke: #2ca02c"/>
     <use xlink:href="#m1d37e75340" x="298.395224" y="285.993372" style="fill: #2ca02c; stroke: #2ca02c"/>
     <use xlink:href="#m1d37e75340" x="272.992836" y="290.320323" style="fill: #2ca02c; stroke: #2ca02c"/>
     <use xlink:href="#m1d37e75340" x="251.824179" y="291.625704" style="fill: #2ca02c; stroke: #2ca02c"/>
     <use xlink:href="#m1d37e75340" x="247.590448" y="283.010326" style="fill: #2ca02c; stroke: #2ca02c"/>
     <use xlink:href="#m1d37e75340" x="217.954328" y="273.14237" style="fill: #2ca02c; stroke: #2ca02c"/>
     <use xlink:href="#m1d37e75340" x="188.318209" y="252.484671" style="fill: #2ca02c; stroke: #2ca02c"/>
     <use xlink:href="#m1d37e75340" x="162.915821" y="224.695339" style="fill: #2ca02c; stroke: #2ca02c"/>
     <use xlink:href="#m1d37e75340" x="124.812239" y="189.60126" style="fill: #2ca02c; stroke: #2ca02c"/>
     <use xlink:href="#m1d37e75340" x="112.111045" y="139.114325" style="fill: #2ca02c; stroke: #2ca02c"/>
     <use xlink:href="#m1d37e75340" x="103.643582" y="65.181656" style="fill: #2ca02c; stroke: #2ca02c"/>
     <use xlink:href="#m1d37e75340" x="95.867901" y="-1" style="fill: #2ca02c; stroke: #2ca02c"/>
    </g>
   </g>
   <g id="line2d_35">
    <path d="M 328.031343 280.266478 
L 319.563881 282.415305 
L 311.096418 284.522752 
L 294.161493 288.692432 
L 272.992836 293.764922 
L 260.291642 296.357928 
L 243.356716 299.145553 
L 213.720597 303.88197 
L 188.318209 304.110047 
L 167.149552 300.250605 
L 141.747164 286.466012 
L 124.812239 274.435386 
L 116.344776 262.67754 
L 107.877313 231.448995 
L 95.176119 192.839393 
L 95.176119 175.107765 
L 90.942388 127.075849 
L 82.474925 64.005567 
L 78.241194 2.64882 
L 78.07848 -1 
" clip-path="url(#p5a3a56b616)" style="fill: none; stroke: #d62728; stroke-width: 1.5; stroke-linecap: square"/>
    <g clip-path="url(#p5a3a56b616)">
     <use xlink:href="#m9776a873fc" x="328.031343" y="280.266478" style="fill: #d62728; stroke: #d62728"/>
     <use xlink:href="#m9776a873fc" x="319.563881" y="282.415305" style="fill: #d62728; stroke: #d62728"/>
     <use xlink:href="#m9776a873fc" x="311.096418" y="284.522752" style="fill: #d62728; stroke: #d62728"/>
     <use xlink:href="#m9776a873fc" x="294.161493" y="288.692432" style="fill: #d62728; stroke: #d62728"/>
     <use xlink:href="#m9776a873fc" x="272.992836" y="293.764922" style="fill: #d62728; stroke: #d62728"/>
     <use xlink:href="#m9776a873fc" x="260.291642" y="296.357928" style="fill: #d62728; stroke: #d62728"/>
     <use xlink:href="#m9776a873fc" x="243.356716" y="299.145553" style="fill: #d62728; stroke: #d62728"/>
     <use xlink:href="#m9776a873fc" x="213.720597" y="303.88197" style="fill: #d62728; stroke: #d62728"/>
     <use xlink:href="#m9776a873fc" x="188.318209" y="304.110047" style="fill: #d62728; stroke: #d62728"/>
     <use xlink:href="#m9776a873fc" x="167.149552" y="300.250605" style="fill: #d62728; stroke: #d62728"/>
     <use xlink:href="#m9776a873fc" x="141.747164" y="286.466012" style="fill: #d62728; stroke: #d62728"/>
     <use xlink:href="#m9776a873fc" x="124.812239" y="274.435386" style="fill: #d62728; stroke: #d62728"/>
     <use xlink:href="#m9776a873fc" x="116.344776" y="262.67754" style="fill: #d62728; stroke: #d62728"/>
     <use xlink:href="#m9776a873fc" x="107.877313" y="231.448995" style="fill: #d62728; stroke: #d62728"/>
     <use xlink:href="#m9776a873fc" x="95.176119" y="192.839393" style="fill: #d62728; stroke: #d62728"/>
     <use xlink:href="#m9776a873fc" x="95.176119" y="175.107765" style="fill: #d62728; stroke: #d62728"/>
     <use xlink:href="#m9776a873fc" x="90.942388" y="127.075849" style="fill: #d62728; stroke: #d62728"/>
     <use xlink:href="#m9776a873fc" x="82.474925" y="64.005567" style="fill: #d62728; stroke: #d62728"/>
     <use xlink:href="#m9776a873fc" x="78.241194" y="2.64882" style="fill: #d62728; stroke: #d62728"/>
     <use xlink:href="#m9776a873fc" x="78.07848" y="-1" style="fill: #d62728; stroke: #d62728"/>
    </g>
   </g>
   <g id="patch_9">
    <path d="M 65.54 318.04 
L 65.54 182.32 
" style="fill: none; stroke: #000000; stroke-width: 0.8; stroke-linejoin: miter; stroke-linecap: square"/>
   </g>
   <g id="patch_10">
    <path d="M 349.2 318.04 
L 349.2 182.32 
" style="fill: none; stroke: #000000; stroke-width: 0.8; stroke-linejoin: miter; stroke-linecap: square"/>
   </g>
   <g id="patch_11">
    <path d="M 65.54 318.04 
L 349.2 318.04 
" style="fill: none; stroke: #000000; stroke-width: 0.8; stroke-linejoin: miter; stroke-linecap: square"/>
   </g>
   <g id="patch_12">
    <path d="M 65.54 182.32 
L 349.2 182.32 
" style="fill: none; stroke: #000000; stroke-width: 0.8; stroke-linejoin: miter; stroke-linecap: square"/>
   </g>
  </g>
 </g>
 <defs>
  <clipPath id="p2381b2a655">
   <rect x="65.54" y="14.76" width="283.66" height="135.72"/>
  </clipPath>
  <clipPath id="p5a3a56b616">
   <rect x="65.54" y="182.32" width="283.66" height="135.72"/>
  </clipPath>
 </defs>
</svg>
