<?xml version="1.0" encoding="utf-8" standalone="no"?>
<!DOCTYPE svg PUBLIC "-//W3C//DTD SVG 1.1//EN"
  "http://www.w3.org/Graphics/SVG/1.1/DTD/svg11.dtd">
<!-- Created with matplotlib (https://matplotlib.org/) -->
<svg height="314.428004pt" version="1.1" viewBox="0 0 408.10125 314.428004" width="408.10125pt" xmlns="http://www.w3.org/2000/svg" xmlns:xlink="http://www.w3.org/1999/xlink">
 <defs>
  <style type="text/css">
*{stroke-linecap:butt;stroke-linejoin:round;}
  </style>
 </defs>
 <g id="figure_1">
  <g id="patch_1">
   <path d="M 0 314.428004 
L 408.10125 314.428004 
L 408.10125 0 
L 0 0 
z
" style="fill:#ffffff;"/>
  </g>
  <g id="axes_1">
   <g id="patch_2">
    <path d="M 43.78125 276.871754 
L 400.90125 276.871754 
L 400.90125 10.759754 
L 43.78125 10.759754 
z
" style="fill:#ffffff;"/>
   </g>
   <g id="matplotlib.axis_1">
    <g id="xtick_1">
     <g id="line2d_1">
      <defs>
       <path d="M 0 0 
L 0 3.5 
" id="m892712bafd" style="stroke:#000000;stroke-width:0.8;"/>
      </defs>
      <g>
       <use style="stroke:#000000;stroke-width:0.8;" x="95.111766" xlink:href="#m892712bafd" y="276.871754"/>
      </g>
     </g>
     <g id="text_1">
      <!-- 1 -->
      <defs>
       <path d="M 12.40625 8.296875 
L 28.515625 8.296875 
L 28.515625 63.921875 
L 10.984375 60.40625 
L 10.984375 69.390625 
L 28.421875 72.90625 
L 38.28125 72.90625 
L 38.28125 8.296875 
L 54.390625 8.296875 
L 54.390625 0 
L 12.40625 0 
z
" id="DejaVuSans-49"/>
      </defs>
      <g transform="translate(91.930516 291.470192)scale(0.1 -0.1)">
       <use xlink:href="#DejaVuSans-49"/>
      </g>
     </g>
    </g>
    <g id="xtick_2">
     <g id="line2d_2">
      <g>
       <use style="stroke:#000000;stroke-width:0.8;" x="153.60808" xlink:href="#m892712bafd" y="276.871754"/>
      </g>
     </g>
     <g id="text_2">
      <!-- 2 -->
      <defs>
       <path d="M 19.1875 8.296875 
L 53.609375 8.296875 
L 53.609375 0 
L 7.328125 0 
L 7.328125 8.296875 
Q 12.9375 14.109375 22.625 23.890625 
Q 32.328125 33.6875 34.8125 36.53125 
Q 39.546875 41.84375 41.421875 45.53125 
Q 43.3125 49.21875 43.3125 52.78125 
Q 43.3125 58.59375 39.234375 62.25 
Q 35.15625 65.921875 28.609375 65.921875 
Q 23.96875 65.921875 18.8125 64.3125 
Q 13.671875 62.703125 7.8125 59.421875 
L 7.8125 69.390625 
Q 13.765625 71.78125 18.9375 73 
Q 24.125 74.21875 28.421875 74.21875 
Q 39.75 74.21875 46.484375 68.546875 
Q 53.21875 62.890625 53.21875 53.421875 
Q 53.21875 48.921875 51.53125 44.890625 
Q 49.859375 40.875 45.40625 35.40625 
Q 44.1875 33.984375 37.640625 27.21875 
Q 31.109375 20.453125 19.1875 8.296875 
z
" id="DejaVuSans-50"/>
      </defs>
      <g transform="translate(150.42683 291.470192)scale(0.1 -0.1)">
       <use xlink:href="#DejaVuSans-50"/>
      </g>
     </g>
    </g>
    <g id="xtick_3">
     <g id="line2d_3">
      <g>
       <use style="stroke:#000000;stroke-width:0.8;" x="212.104395" xlink:href="#m892712bafd" y="276.871754"/>
      </g>
     </g>
     <g id="text_3">
      <!-- 3 -->
      <defs>
       <path d="M 40.578125 39.3125 
Q 47.65625 37.796875 51.625 33 
Q 55.609375 28.21875 55.609375 21.1875 
Q 55.609375 10.40625 48.1875 4.484375 
Q 40.765625 -1.421875 27.09375 -1.421875 
Q 22.515625 -1.421875 17.65625 -0.515625 
Q 12.796875 0.390625 7.625 2.203125 
L 7.625 11.71875 
Q 11.71875 9.328125 16.59375 8.109375 
Q 21.484375 6.890625 26.8125 6.890625 
Q 36.078125 6.890625 40.9375 10.546875 
Q 45.796875 14.203125 45.796875 21.1875 
Q 45.796875 27.640625 41.28125 31.265625 
Q 36.765625 34.90625 28.71875 34.90625 
L 20.21875 34.90625 
L 20.21875 43.015625 
L 29.109375 43.015625 
Q 36.375 43.015625 40.234375 45.921875 
Q 44.09375 48.828125 44.09375 54.296875 
Q 44.09375 59.90625 40.109375 62.90625 
Q 36.140625 65.921875 28.71875 65.921875 
Q 24.65625 65.921875 20.015625 65.03125 
Q 15.375 64.15625 9.8125 62.3125 
L 9.8125 71.09375 
Q 15.4375 72.65625 20.34375 73.4375 
Q 25.25 74.21875 29.59375 74.21875 
Q 40.828125 74.21875 47.359375 69.109375 
Q 53.90625 64.015625 53.90625 55.328125 
Q 53.90625 49.265625 50.4375 45.09375 
Q 46.96875 40.921875 40.578125 39.3125 
z
" id="DejaVuSans-51"/>
      </defs>
      <g transform="translate(208.923145 291.470192)scale(0.1 -0.1)">
       <use xlink:href="#DejaVuSans-51"/>
      </g>
     </g>
    </g>
    <g id="xtick_4">
     <g id="line2d_4">
      <g>
       <use style="stroke:#000000;stroke-width:0.8;" x="270.600709" xlink:href="#m892712bafd" y="276.871754"/>
      </g>
     </g>
     <g id="text_4">
      <!-- 4 -->
      <defs>
       <path d="M 37.796875 64.3125 
L 12.890625 25.390625 
L 37.796875 25.390625 
z
M 35.203125 72.90625 
L 47.609375 72.90625 
L 47.609375 25.390625 
L 58.015625 25.390625 
L 58.015625 17.1875 
L 47.609375 17.1875 
L 47.609375 0 
L 37.796875 0 
L 37.796875 17.1875 
L 4.890625 17.1875 
L 4.890625 26.703125 
z
" id="DejaVuSans-52"/>
      </defs>
      <g transform="translate(267.419459 291.470192)scale(0.1 -0.1)">
       <use xlink:href="#DejaVuSans-52"/>
      </g>
     </g>
    </g>
    <g id="xtick_5">
     <g id="line2d_5">
      <g>
       <use style="stroke:#000000;stroke-width:0.8;" x="329.097024" xlink:href="#m892712bafd" y="276.871754"/>
      </g>
     </g>
     <g id="text_5">
      <!-- 5 -->
      <defs>
       <path d="M 10.796875 72.90625 
L 49.515625 72.90625 
L 49.515625 64.59375 
L 19.828125 64.59375 
L 19.828125 46.734375 
Q 21.96875 47.46875 24.109375 47.828125 
Q 26.265625 48.1875 28.421875 48.1875 
Q 40.625 48.1875 47.75 41.5 
Q 54.890625 34.8125 54.890625 23.390625 
Q 54.890625 11.625 47.5625 5.09375 
Q 40.234375 -1.421875 26.90625 -1.421875 
Q 22.3125 -1.421875 17.546875 -0.640625 
Q 12.796875 0.140625 7.71875 1.703125 
L 7.71875 11.625 
Q 12.109375 9.234375 16.796875 8.0625 
Q 21.484375 6.890625 26.703125 6.890625 
Q 35.15625 6.890625 40.078125 11.328125 
Q 45.015625 15.765625 45.015625 23.390625 
Q 45.015625 31 40.078125 35.4375 
Q 35.15625 39.890625 26.703125 39.890625 
Q 22.75 39.890625 18.8125 39.015625 
Q 14.890625 38.140625 10.796875 36.28125 
z
" id="DejaVuSans-53"/>
      </defs>
      <g transform="translate(325.915774 291.470192)scale(0.1 -0.1)">
       <use xlink:href="#DejaVuSans-53"/>
      </g>
     </g>
    </g>
    <g id="xtick_6">
     <g id="line2d_6">
      <g>
       <use style="stroke:#000000;stroke-width:0.8;" x="387.593338" xlink:href="#m892712bafd" y="276.871754"/>
      </g>
     </g>
     <g id="text_6">
      <!-- 6 -->
      <defs>
       <path d="M 33.015625 40.375 
Q 26.375 40.375 22.484375 35.828125 
Q 18.609375 31.296875 18.609375 23.390625 
Q 18.609375 15.53125 22.484375 10.953125 
Q 26.375 6.390625 33.015625 6.390625 
Q 39.65625 6.390625 43.53125 10.953125 
Q 47.40625 15.53125 47.40625 23.390625 
Q 47.40625 31.296875 43.53125 35.828125 
Q 39.65625 40.375 33.015625 40.375 
z
M 52.59375 71.296875 
L 52.59375 62.3125 
Q 48.875 64.0625 45.09375 64.984375 
Q 41.3125 65.921875 37.59375 65.921875 
Q 27.828125 65.921875 22.671875 59.328125 
Q 17.53125 52.734375 16.796875 39.40625 
Q 19.671875 43.65625 24.015625 45.921875 
Q 28.375 48.1875 33.59375 48.1875 
Q 44.578125 48.1875 50.953125 41.515625 
Q 57.328125 34.859375 57.328125 23.390625 
Q 57.328125 12.15625 50.6875 5.359375 
Q 44.046875 -1.421875 33.015625 -1.421875 
Q 20.359375 -1.421875 13.671875 8.265625 
Q 6.984375 17.96875 6.984375 36.375 
Q 6.984375 53.65625 15.1875 63.9375 
Q 23.390625 74.21875 37.203125 74.21875 
Q 40.921875 74.21875 44.703125 73.484375 
Q 48.484375 72.75 52.59375 71.296875 
z
" id="DejaVuSans-54"/>
      </defs>
      <g transform="translate(384.412088 291.470192)scale(0.1 -0.1)">
       <use xlink:href="#DejaVuSans-54"/>
      </g>
     </g>
    </g>
    <g id="text_7">
     <!-- Temperature -->
     <defs>
      <path d="M -0.296875 72.90625 
L 61.375 72.90625 
L 61.375 64.59375 
L 35.5 64.59375 
L 35.5 0 
L 25.59375 0 
L 25.59375 64.59375 
L -0.296875 64.59375 
z
" id="DejaVuSans-84"/>
      <path d="M 56.203125 29.59375 
L 56.203125 25.203125 
L 14.890625 25.203125 
Q 15.484375 15.921875 20.484375 11.0625 
Q 25.484375 6.203125 34.421875 6.203125 
Q 39.59375 6.203125 44.453125 7.46875 
Q 49.3125 8.734375 54.109375 11.28125 
L 54.109375 2.78125 
Q 49.265625 0.734375 44.1875 -0.34375 
Q 39.109375 -1.421875 33.890625 -1.421875 
Q 20.796875 -1.421875 13.15625 6.1875 
Q 5.515625 13.8125 5.515625 26.8125 
Q 5.515625 40.234375 12.765625 48.109375 
Q 20.015625 56 32.328125 56 
Q 43.359375 56 49.78125 48.890625 
Q 56.203125 41.796875 56.203125 29.59375 
z
M 47.21875 32.234375 
Q 47.125 39.59375 43.09375 43.984375 
Q 39.0625 48.390625 32.421875 48.390625 
Q 24.90625 48.390625 20.390625 44.140625 
Q 15.875 39.890625 15.1875 32.171875 
z
" id="DejaVuSans-101"/>
      <path d="M 52 44.1875 
Q 55.375 50.25 60.0625 53.125 
Q 64.75 56 71.09375 56 
Q 79.640625 56 84.28125 50.015625 
Q 88.921875 44.046875 88.921875 33.015625 
L 88.921875 0 
L 79.890625 0 
L 79.890625 32.71875 
Q 79.890625 40.578125 77.09375 44.375 
Q 74.3125 48.1875 68.609375 48.1875 
Q 61.625 48.1875 57.5625 43.546875 
Q 53.515625 38.921875 53.515625 30.90625 
L 53.515625 0 
L 44.484375 0 
L 44.484375 32.71875 
Q 44.484375 40.625 41.703125 44.40625 
Q 38.921875 48.1875 33.109375 48.1875 
Q 26.21875 48.1875 22.15625 43.53125 
Q 18.109375 38.875 18.109375 30.90625 
L 18.109375 0 
L 9.078125 0 
L 9.078125 54.6875 
L 18.109375 54.6875 
L 18.109375 46.1875 
Q 21.1875 51.21875 25.484375 53.609375 
Q 29.78125 56 35.6875 56 
Q 41.65625 56 45.828125 52.96875 
Q 50 49.953125 52 44.1875 
z
" id="DejaVuSans-109"/>
      <path d="M 18.109375 8.203125 
L 18.109375 -20.796875 
L 9.078125 -20.796875 
L 9.078125 54.6875 
L 18.109375 54.6875 
L 18.109375 46.390625 
Q 20.953125 51.265625 25.265625 53.625 
Q 29.59375 56 35.59375 56 
Q 45.5625 56 51.78125 48.09375 
Q 58.015625 40.1875 58.015625 27.296875 
Q 58.015625 14.40625 51.78125 6.484375 
Q 45.5625 -1.421875 35.59375 -1.421875 
Q 29.59375 -1.421875 25.265625 0.953125 
Q 20.953125 3.328125 18.109375 8.203125 
z
M 48.6875 27.296875 
Q 48.6875 37.203125 44.609375 42.84375 
Q 40.53125 48.484375 33.40625 48.484375 
Q 26.265625 48.484375 22.1875 42.84375 
Q 18.109375 37.203125 18.109375 27.296875 
Q 18.109375 17.390625 22.1875 11.75 
Q 26.265625 6.109375 33.40625 6.109375 
Q 40.53125 6.109375 44.609375 11.75 
Q 48.6875 17.390625 48.6875 27.296875 
z
" id="DejaVuSans-112"/>
      <path d="M 41.109375 46.296875 
Q 39.59375 47.171875 37.8125 47.578125 
Q 36.03125 48 33.890625 48 
Q 26.265625 48 22.1875 43.046875 
Q 18.109375 38.09375 18.109375 28.8125 
L 18.109375 0 
L 9.078125 0 
L 9.078125 54.6875 
L 18.109375 54.6875 
L 18.109375 46.1875 
Q 20.953125 51.171875 25.484375 53.578125 
Q 30.03125 56 36.53125 56 
Q 37.453125 56 38.578125 55.875 
Q 39.703125 55.765625 41.0625 55.515625 
z
" id="DejaVuSans-114"/>
      <path d="M 34.28125 27.484375 
Q 23.390625 27.484375 19.1875 25 
Q 14.984375 22.515625 14.984375 16.5 
Q 14.984375 11.71875 18.140625 8.90625 
Q 21.296875 6.109375 26.703125 6.109375 
Q 34.1875 6.109375 38.703125 11.40625 
Q 43.21875 16.703125 43.21875 25.484375 
L 43.21875 27.484375 
z
M 52.203125 31.203125 
L 52.203125 0 
L 43.21875 0 
L 43.21875 8.296875 
Q 40.140625 3.328125 35.546875 0.953125 
Q 30.953125 -1.421875 24.3125 -1.421875 
Q 15.921875 -1.421875 10.953125 3.296875 
Q 6 8.015625 6 15.921875 
Q 6 25.140625 12.171875 29.828125 
Q 18.359375 34.515625 30.609375 34.515625 
L 43.21875 34.515625 
L 43.21875 35.40625 
Q 43.21875 41.609375 39.140625 45 
Q 35.0625 48.390625 27.6875 48.390625 
Q 23 48.390625 18.546875 47.265625 
Q 14.109375 46.140625 10.015625 43.890625 
L 10.015625 52.203125 
Q 14.9375 54.109375 19.578125 55.046875 
Q 24.21875 56 28.609375 56 
Q 40.484375 56 46.34375 49.84375 
Q 52.203125 43.703125 52.203125 31.203125 
z
" id="DejaVuSans-97"/>
      <path d="M 18.3125 70.21875 
L 18.3125 54.6875 
L 36.8125 54.6875 
L 36.8125 47.703125 
L 18.3125 47.703125 
L 18.3125 18.015625 
Q 18.3125 11.328125 20.140625 9.421875 
Q 21.96875 7.515625 27.59375 7.515625 
L 36.8125 7.515625 
L 36.8125 0 
L 27.59375 0 
Q 17.1875 0 13.234375 3.875 
Q 9.28125 7.765625 9.28125 18.015625 
L 9.28125 47.703125 
L 2.6875 47.703125 
L 2.6875 54.6875 
L 9.28125 54.6875 
L 9.28125 70.21875 
z
" id="DejaVuSans-116"/>
      <path d="M 8.5 21.578125 
L 8.5 54.6875 
L 17.484375 54.6875 
L 17.484375 21.921875 
Q 17.484375 14.15625 20.5 10.265625 
Q 23.53125 6.390625 29.59375 6.390625 
Q 36.859375 6.390625 41.078125 11.03125 
Q 45.3125 15.671875 45.3125 23.6875 
L 45.3125 54.6875 
L 54.296875 54.6875 
L 54.296875 0 
L 45.3125 0 
L 45.3125 8.40625 
Q 42.046875 3.421875 37.71875 1 
Q 33.40625 -1.421875 27.6875 -1.421875 
Q 18.265625 -1.421875 13.375 4.4375 
Q 8.5 10.296875 8.5 21.578125 
z
M 31.109375 56 
z
" id="DejaVuSans-117"/>
     </defs>
     <g transform="translate(189.724063 305.148317)scale(0.1 -0.1)">
      <use xlink:href="#DejaVuSans-84"/>
      <use x="60.818359" xlink:href="#DejaVuSans-101"/>
      <use x="122.341797" xlink:href="#DejaVuSans-109"/>
      <use x="219.753906" xlink:href="#DejaVuSans-112"/>
      <use x="283.230469" xlink:href="#DejaVuSans-101"/>
      <use x="344.753906" xlink:href="#DejaVuSans-114"/>
      <use x="385.867188" xlink:href="#DejaVuSans-97"/>
      <use x="447.146484" xlink:href="#DejaVuSans-116"/>
      <use x="486.355469" xlink:href="#DejaVuSans-117"/>
      <use x="549.734375" xlink:href="#DejaVuSans-114"/>
      <use x="590.816406" xlink:href="#DejaVuSans-101"/>
     </g>
    </g>
   </g>
   <g id="matplotlib.axis_2">
    <g id="ytick_1">
     <g id="line2d_7">
      <defs>
       <path d="M 0 0 
L -3.5 0 
" id="mdba60eb4a5" style="stroke:#000000;stroke-width:0.8;"/>
      </defs>
      <g>
       <use style="stroke:#000000;stroke-width:0.8;" x="43.78125" xlink:href="#mdba60eb4a5" y="264.775754"/>
      </g>
     </g>
     <g id="text_8">
      <!-- 0.0 -->
      <defs>
       <path d="M 31.78125 66.40625 
Q 24.171875 66.40625 20.328125 58.90625 
Q 16.5 51.421875 16.5 36.375 
Q 16.5 21.390625 20.328125 13.890625 
Q 24.171875 6.390625 31.78125 6.390625 
Q 39.453125 6.390625 43.28125 13.890625 
Q 47.125 21.390625 47.125 36.375 
Q 47.125 51.421875 43.28125 58.90625 
Q 39.453125 66.40625 31.78125 66.40625 
z
M 31.78125 74.21875 
Q 44.046875 74.21875 50.515625 64.515625 
Q 56.984375 54.828125 56.984375 36.375 
Q 56.984375 17.96875 50.515625 8.265625 
Q 44.046875 -1.421875 31.78125 -1.421875 
Q 19.53125 -1.421875 13.0625 8.265625 
Q 6.59375 17.96875 6.59375 36.375 
Q 6.59375 54.828125 13.0625 64.515625 
Q 19.53125 74.21875 31.78125 74.21875 
z
" id="DejaVuSans-48"/>
       <path d="M 10.6875 12.40625 
L 21 12.40625 
L 21 0 
L 10.6875 0 
z
" id="DejaVuSans-46"/>
      </defs>
      <g transform="translate(20.878125 268.574973)scale(0.1 -0.1)">
       <use xlink:href="#DejaVuSans-48"/>
       <use x="63.623047" xlink:href="#DejaVuSans-46"/>
       <use x="95.410156" xlink:href="#DejaVuSans-48"/>
      </g>
     </g>
    </g>
    <g id="ytick_2">
     <g id="line2d_8">
      <g>
       <use style="stroke:#000000;stroke-width:0.8;" x="43.78125" xlink:href="#mdba60eb4a5" y="228.521964"/>
      </g>
     </g>
     <g id="text_9">
      <!-- 0.2 -->
      <g transform="translate(20.878125 232.321182)scale(0.1 -0.1)">
       <use xlink:href="#DejaVuSans-48"/>
       <use x="63.623047" xlink:href="#DejaVuSans-46"/>
       <use x="95.410156" xlink:href="#DejaVuSans-50"/>
      </g>
     </g>
    </g>
    <g id="ytick_3">
     <g id="line2d_9">
      <g>
       <use style="stroke:#000000;stroke-width:0.8;" x="43.78125" xlink:href="#mdba60eb4a5" y="192.268173"/>
      </g>
     </g>
     <g id="text_10">
      <!-- 0.4 -->
      <g transform="translate(20.878125 196.067392)scale(0.1 -0.1)">
       <use xlink:href="#DejaVuSans-48"/>
       <use x="63.623047" xlink:href="#DejaVuSans-46"/>
       <use x="95.410156" xlink:href="#DejaVuSans-52"/>
      </g>
     </g>
    </g>
    <g id="ytick_4">
     <g id="line2d_10">
      <g>
       <use style="stroke:#000000;stroke-width:0.8;" x="43.78125" xlink:href="#mdba60eb4a5" y="156.014382"/>
      </g>
     </g>
     <g id="text_11">
      <!-- 0.6 -->
      <g transform="translate(20.878125 159.813601)scale(0.1 -0.1)">
       <use xlink:href="#DejaVuSans-48"/>
       <use x="63.623047" xlink:href="#DejaVuSans-46"/>
       <use x="95.410156" xlink:href="#DejaVuSans-54"/>
      </g>
     </g>
    </g>
    <g id="ytick_5">
     <g id="line2d_11">
      <g>
       <use style="stroke:#000000;stroke-width:0.8;" x="43.78125" xlink:href="#mdba60eb4a5" y="119.760591"/>
      </g>
     </g>
     <g id="text_12">
      <!-- 0.8 -->
      <defs>
       <path d="M 31.78125 34.625 
Q 24.75 34.625 20.71875 30.859375 
Q 16.703125 27.09375 16.703125 20.515625 
Q 16.703125 13.921875 20.71875 10.15625 
Q 24.75 6.390625 31.78125 6.390625 
Q 38.8125 6.390625 42.859375 10.171875 
Q 46.921875 13.96875 46.921875 20.515625 
Q 46.921875 27.09375 42.890625 30.859375 
Q 38.875 34.625 31.78125 34.625 
z
M 21.921875 38.8125 
Q 15.578125 40.375 12.03125 44.71875 
Q 8.5 49.078125 8.5 55.328125 
Q 8.5 64.0625 14.71875 69.140625 
Q 20.953125 74.21875 31.78125 74.21875 
Q 42.671875 74.21875 48.875 69.140625 
Q 55.078125 64.0625 55.078125 55.328125 
Q 55.078125 49.078125 51.53125 44.71875 
Q 48 40.375 41.703125 38.8125 
Q 48.828125 37.15625 52.796875 32.3125 
Q 56.78125 27.484375 56.78125 20.515625 
Q 56.78125 9.90625 50.3125 4.234375 
Q 43.84375 -1.421875 31.78125 -1.421875 
Q 19.734375 -1.421875 13.25 4.234375 
Q 6.78125 9.90625 6.78125 20.515625 
Q 6.78125 27.484375 10.78125 32.3125 
Q 14.796875 37.15625 21.921875 38.8125 
z
M 18.3125 54.390625 
Q 18.3125 48.734375 21.84375 45.5625 
Q 25.390625 42.390625 31.78125 42.390625 
Q 38.140625 42.390625 41.71875 45.5625 
Q 45.3125 48.734375 45.3125 54.390625 
Q 45.3125 60.0625 41.71875 63.234375 
Q 38.140625 66.40625 31.78125 66.40625 
Q 25.390625 66.40625 21.84375 63.234375 
Q 18.3125 60.0625 18.3125 54.390625 
z
" id="DejaVuSans-56"/>
      </defs>
      <g transform="translate(20.878125 123.55981)scale(0.1 -0.1)">
       <use xlink:href="#DejaVuSans-48"/>
       <use x="63.623047" xlink:href="#DejaVuSans-46"/>
       <use x="95.410156" xlink:href="#DejaVuSans-56"/>
      </g>
     </g>
    </g>
    <g id="ytick_6">
     <g id="line2d_12">
      <g>
       <use style="stroke:#000000;stroke-width:0.8;" x="43.78125" xlink:href="#mdba60eb4a5" y="83.5068"/>
      </g>
     </g>
     <g id="text_13">
      <!-- 1.0 -->
      <g transform="translate(20.878125 87.306019)scale(0.1 -0.1)">
       <use xlink:href="#DejaVuSans-49"/>
       <use x="63.623047" xlink:href="#DejaVuSans-46"/>
       <use x="95.410156" xlink:href="#DejaVuSans-48"/>
      </g>
     </g>
    </g>
    <g id="ytick_7">
     <g id="line2d_13">
      <g>
       <use style="stroke:#000000;stroke-width:0.8;" x="43.78125" xlink:href="#mdba60eb4a5" y="47.25301"/>
      </g>
     </g>
     <g id="text_14">
      <!-- 1.2 -->
      <g transform="translate(20.878125 51.052228)scale(0.1 -0.1)">
       <use xlink:href="#DejaVuSans-49"/>
       <use x="63.623047" xlink:href="#DejaVuSans-46"/>
       <use x="95.410156" xlink:href="#DejaVuSans-50"/>
      </g>
     </g>
    </g>
    <g id="ytick_8">
     <g id="line2d_14">
      <g>
       <use style="stroke:#000000;stroke-width:0.8;" x="43.78125" xlink:href="#mdba60eb4a5" y="10.999219"/>
      </g>
     </g>
     <g id="text_15">
      <!-- 1.4 -->
      <g transform="translate(20.878125 14.798437)scale(0.1 -0.1)">
       <use xlink:href="#DejaVuSans-49"/>
       <use x="63.623047" xlink:href="#DejaVuSans-46"/>
       <use x="95.410156" xlink:href="#DejaVuSans-52"/>
      </g>
     </g>
    </g>
    <g id="text_16">
     <!-- Heat capacity -->
     <defs>
      <path d="M 9.8125 72.90625 
L 19.671875 72.90625 
L 19.671875 43.015625 
L 55.515625 43.015625 
L 55.515625 72.90625 
L 65.375 72.90625 
L 65.375 0 
L 55.515625 0 
L 55.515625 34.71875 
L 19.671875 34.71875 
L 19.671875 0 
L 9.8125 0 
z
" id="DejaVuSans-72"/>
      <path id="DejaVuSans-32"/>
      <path d="M 48.78125 52.59375 
L 48.78125 44.1875 
Q 44.96875 46.296875 41.140625 47.34375 
Q 37.3125 48.390625 33.40625 48.390625 
Q 24.65625 48.390625 19.8125 42.84375 
Q 14.984375 37.3125 14.984375 27.296875 
Q 14.984375 17.28125 19.8125 11.734375 
Q 24.65625 6.203125 33.40625 6.203125 
Q 37.3125 6.203125 41.140625 7.25 
Q 44.96875 8.296875 48.78125 10.40625 
L 48.78125 2.09375 
Q 45.015625 0.34375 40.984375 -0.53125 
Q 36.96875 -1.421875 32.421875 -1.421875 
Q 20.0625 -1.421875 12.78125 6.34375 
Q 5.515625 14.109375 5.515625 27.296875 
Q 5.515625 40.671875 12.859375 48.328125 
Q 20.21875 56 33.015625 56 
Q 37.15625 56 41.109375 55.140625 
Q 45.0625 54.296875 48.78125 52.59375 
z
" id="DejaVuSans-99"/>
      <path d="M 9.421875 54.6875 
L 18.40625 54.6875 
L 18.40625 0 
L 9.421875 0 
z
M 9.421875 75.984375 
L 18.40625 75.984375 
L 18.40625 64.59375 
L 9.421875 64.59375 
z
" id="DejaVuSans-105"/>
      <path d="M 32.171875 -5.078125 
Q 28.375 -14.84375 24.75 -17.8125 
Q 21.140625 -20.796875 15.09375 -20.796875 
L 7.90625 -20.796875 
L 7.90625 -13.28125 
L 13.1875 -13.28125 
Q 16.890625 -13.28125 18.9375 -11.515625 
Q 21 -9.765625 23.484375 -3.21875 
L 25.09375 0.875 
L 2.984375 54.6875 
L 12.5 54.6875 
L 29.59375 11.921875 
L 46.6875 54.6875 
L 56.203125 54.6875 
z
" id="DejaVuSans-121"/>
     </defs>
     <g transform="translate(14.798438 178.375129)rotate(-90)scale(0.1 -0.1)">
      <use xlink:href="#DejaVuSans-72"/>
      <use x="75.195312" xlink:href="#DejaVuSans-101"/>
      <use x="136.71875" xlink:href="#DejaVuSans-97"/>
      <use x="197.998047" xlink:href="#DejaVuSans-116"/>
      <use x="237.207031" xlink:href="#DejaVuSans-32"/>
      <use x="268.994141" xlink:href="#DejaVuSans-99"/>
      <use x="323.974609" xlink:href="#DejaVuSans-97"/>
      <use x="385.253906" xlink:href="#DejaVuSans-112"/>
      <use x="448.730469" xlink:href="#DejaVuSans-97"/>
      <use x="510.009766" xlink:href="#DejaVuSans-99"/>
      <use x="564.990234" xlink:href="#DejaVuSans-105"/>
      <use x="592.773438" xlink:href="#DejaVuSans-116"/>
      <use x="631.982422" xlink:href="#DejaVuSans-121"/>
     </g>
    </g>
   </g>
   <g id="line2d_15">
    <path clip-path="url(#p213a4c73f3)" d="M 60.013977 264.775754 
L 62.938793 264.775754 
L 65.863609 264.775749 
L 68.788424 264.775713 
L 71.71324 264.775536 
L 74.638056 264.774878 
L 77.562872 264.772883 
L 80.487687 264.767749 
L 83.412503 264.756142 
L 86.337319 264.732505 
L 89.262135 264.688294 
L 92.18695 264.611204 
L 95.111766 264.48441 
L 98.036582 264.285847 
L 100.961397 263.987524 
L 103.886213 263.55485 
L 106.811029 262.94592 
L 109.735845 262.110706 
L 112.66066 260.990098 
L 115.585476 259.514754 
L 118.510292 257.603757 
L 121.435107 255.163147 
L 124.359923 252.084439 
L 127.284739 248.24336 
L 130.209555 243.499084 
L 133.13437 237.694333 
L 136.059186 230.65675 
L 138.984002 222.202034 
L 141.908818 212.139649 
L 144.833633 200.282635 
L 147.758449 186.464716 
L 150.683265 170.570343 
L 153.60808 152.58578 
L 156.532896 132.678621 
L 159.457712 111.304069 
L 162.382528 89.314141 
L 165.307343 68.014132 
L 168.232159 49.089541 
L 171.156975 34.350416 
L 174.081791 25.326368 
L 177.006606 22.855754 
L 179.931422 26.857019 
L 182.856238 36.390676 
L 185.781053 49.966049 
L 188.705869 65.935588 
L 191.630685 82.819828 
L 194.555501 99.485958 
L 197.480316 115.187163 
L 200.405132 129.513077 
L 203.329948 142.304162 
L 206.254764 153.56568 
L 209.179579 163.398028 
L 212.104395 171.947375 
L 215.029211 179.374089 
L 217.954026 185.834461 
L 220.878842 191.471374 
L 223.803658 196.410532 
L 226.728474 200.759878 
L 229.653289 204.610684 
L 232.578105 208.039382 
L 235.502921 211.109611 
L 238.427736 213.874214 
L 241.352552 216.377031 
L 244.277368 218.654466 
L 247.202184 220.736806 
L 250.126999 222.649322 
L 253.051815 224.413176 
L 255.976631 226.046158 
L 258.901447 227.563296 
L 261.826262 228.977342 
L 264.751078 230.299173 
L 267.675894 231.538112 
L 270.600709 232.702193 
L 273.525525 233.798376 
L 276.450341 234.832722 
L 279.375157 235.810533 
L 282.299972 236.736475 
L 285.224788 237.61467 
L 288.149604 238.448778 
L 291.07442 239.242066 
L 293.999235 239.997458 
L 296.924051 240.717585 
L 299.848867 241.404821 
L 302.773682 242.06132 
L 305.698498 242.689038 
L 308.623314 243.289761 
L 311.54813 243.865121 
L 314.472945 244.416618 
L 317.397761 244.945631 
L 320.322577 245.45343 
L 323.247393 245.94119 
L 326.172208 246.41 
L 329.097024 246.860869 
L 332.02184 247.294738 
L 334.946655 247.712479 
L 337.871471 248.114909 
L 340.796287 248.502791 
L 343.721103 248.876836 
L 346.645918 249.237714 
L 349.570734 249.58605 
L 352.49555 249.922433 
L 355.420365 250.247417 
L 358.345181 250.56152 
L 361.269997 250.865235 
L 364.194813 251.159022 
L 367.119628 251.443319 
L 370.044444 251.718536 
L 372.96926 251.985065 
L 375.894076 252.243272 
L 378.818891 252.493508 
L 381.743707 252.736101 
L 384.668523 252.971366 
" style="fill:none;stroke:#d3d3d3;stroke-linecap:square;stroke-width:5;"/>
   </g>
   <g id="line2d_16">
    <path clip-path="url(#p213a4c73f3)" d="M 60.013977 264.775754 
L 62.938793 264.775754 
L 65.863609 264.775749 
L 68.788424 264.775713 
L 71.71324 264.775536 
L 74.638056 264.774878 
L 77.562872 264.772883 
L 80.487687 264.767749 
L 83.412503 264.756142 
L 86.337319 264.732505 
L 89.262135 264.688294 
L 92.18695 264.611204 
L 95.111766 264.48441 
L 98.036582 264.285847 
L 100.961397 263.987525 
L 103.886213 263.554855 
L 106.811029 262.945945 
L 109.735845 262.110812 
L 112.66066 260.990502 
L 115.585476 259.51614 
L 118.510292 257.608104 
L 121.435107 255.175704 
L 124.359923 252.118132 
L 127.284739 248.327866 
L 130.209555 243.69823 
L 133.13437 238.137079 
L 136.059186 231.588278 
L 138.984002 224.061149 
L 141.908818 215.664933 
L 144.833633 206.640601 
L 147.758449 197.377504 
L 150.683265 188.400485 
L 153.60808 180.317694 
L 156.532896 173.732041 
L 159.457712 169.135965 
L 162.382528 166.820919 
L 165.307343 166.831091 
L 168.232159 168.974461 
L 171.156975 172.882311 
L 174.081791 178.09288 
L 177.006606 184.132537 
L 179.931422 190.576239 
L 182.856238 197.081051 
L 185.781053 203.395858 
L 188.705869 209.354856 
L 191.630685 214.862676 
L 194.555501 219.877113 
L 197.480316 224.393059 
L 200.405132 228.429292 
L 203.329948 232.018487 
L 206.254764 235.200156 
L 209.179579 238.015948 
L 212.104395 240.506712 
L 215.029211 242.710812 
L 217.954026 244.663278 
L 220.878842 246.395493 
L 223.803658 247.935214 
L 226.728474 249.30677 
L 229.653289 250.531364 
L 232.578105 251.627398 
L 235.502921 252.610812 
L 238.427736 253.495394 
L 241.352552 254.293072 
L 244.277368 255.014169 
L 247.202184 255.667625 
L 250.126999 256.261198 
L 253.051815 256.801628 
L 255.976631 257.294783 
L 258.901447 257.745781 
L 261.826262 258.159099 
L 264.751078 258.538658 
L 267.675894 258.887901 
L 270.600709 259.20986 
L 273.525525 259.507211 
L 276.450341 259.782317 
L 279.375157 260.037274 
L 282.299972 260.273946 
L 285.224788 260.493989 
L 288.149604 260.698881 
L 291.07442 260.889945 
L 293.999235 261.068365 
L 296.924051 261.235204 
L 299.848867 261.391417 
L 302.773682 261.537866 
L 305.698498 261.675328 
L 308.623314 261.804507 
L 311.54813 261.92604 
L 314.472945 262.040504 
L 317.397761 262.148425 
L 320.322577 262.250282 
L 323.247393 262.346511 
L 326.172208 262.437509 
L 329.097024 262.523642 
L 332.02184 262.605243 
L 334.946655 262.682617 
L 337.871471 262.756046 
L 340.796287 262.825788 
L 343.721103 262.892082 
L 346.645918 262.955145 
L 349.570734 263.015181 
L 352.49555 263.072377 
L 355.420365 263.126905 
L 358.345181 263.178926 
L 361.269997 263.228588 
L 364.194813 263.27603 
L 367.119628 263.321379 
L 370.044444 263.364754 
L 372.96926 263.406266 
L 375.894076 263.446019 
L 378.818891 263.484108 
L 381.743707 263.520624 
L 384.668523 263.55565 
" style="fill:none;stroke:#1f77b4;stroke-linecap:square;stroke-width:1.5;"/>
   </g>
   <g id="line2d_17">
    <path clip-path="url(#p213a4c73f3)" d="M 60.013977 264.775754 
L 62.938793 264.775754 
L 65.863609 264.775749 
L 68.788424 264.775713 
L 71.71324 264.775536 
L 74.638056 264.774878 
L 77.562872 264.772883 
L 80.487687 264.767749 
L 83.412503 264.756142 
L 86.337319 264.732505 
L 89.262135 264.688294 
L 92.18695 264.611204 
L 95.111766 264.48441 
L 98.036582 264.285847 
L 100.961397 263.987524 
L 103.886213 263.55485 
L 106.811029 262.94592 
L 109.735845 262.110706 
L 112.66066 260.990098 
L 115.585476 259.514754 
L 118.510292 257.603757 
L 121.435107 255.163147 
L 124.359923 252.084442 
L 127.284739 248.243373 
L 130.209555 243.499145 
L 133.13437 237.694596 
L 136.059186 230.657768 
L 138.984002 222.205627 
L 141.908818 212.151276 
L 144.833633 200.317254 
L 147.758449 186.559776 
L 150.683265 170.811434 
L 153.60808 153.150879 
L 156.532896 133.902588 
L 159.457712 113.752148 
L 162.382528 93.831722 
L 165.307343 75.700801 
L 168.232159 61.151655 
L 171.156975 51.837157 
L 174.081791 48.833761 
L 177.006606 52.331792 
L 179.931422 61.604552 
L 182.856238 75.259663 
L 185.781053 91.634204 
L 188.705869 109.159499 
L 191.630685 126.587954 
L 194.555501 143.067855 
L 197.480316 158.110775 
L 200.405132 171.508644 
L 203.329948 183.242916 
L 206.254764 193.407831 
L 209.179579 202.154517 
L 212.104395 209.654447 
L 215.029211 216.077792 
L 217.954026 221.582012 
L 220.878842 226.306899 
L 223.803658 230.373404 
L 226.728474 233.884469 
L 229.653289 236.926821 
L 232.578105 239.573075 
L 235.502921 241.883836 
L 238.427736 243.909626 
L 241.352552 245.692568 
L 244.277368 247.267837 
L 247.202184 248.664859 
L 250.126999 249.908321 
L 253.051815 251.018996 
L 255.976631 252.014415 
L 258.901447 252.909433 
L 261.826262 253.716671 
L 264.751078 254.446899 
L 267.675894 255.109334 
L 270.600709 255.711896 
L 273.525525 256.26141 
L 276.450341 256.763782 
L 279.375157 257.224134 
L 282.299972 257.64693 
L 285.224788 258.036064 
L 288.149604 258.39495 
L 291.07442 258.726587 
L 293.999235 259.033617 
L 296.924051 259.318375 
L 299.848867 259.582931 
L 302.773682 259.829119 
L 305.698498 260.058578 
L 308.623314 260.272766 
L 311.54813 260.472989 
L 314.472945 260.660419 
L 317.397761 260.836108 
L 320.322577 261.001003 
L 323.247393 261.15596 
L 326.172208 261.30175 
L 329.097024 261.439073 
L 332.02184 261.568565 
L 334.946655 261.690803 
L 337.871471 261.806311 
L 340.796287 261.915569 
L 343.721103 262.019015 
L 346.645918 262.117048 
L 349.570734 262.210036 
L 352.49555 262.298315 
L 355.420365 262.382193 
L 358.345181 262.461956 
L 361.269997 262.537865 
L 364.194813 262.610163 
L 367.119628 262.67907 
L 370.044444 262.744796 
L 372.96926 262.807529 
L 375.894076 262.867447 
L 378.818891 262.924714 
L 381.743707 262.979483 
L 384.668523 263.031895 
" style="fill:none;stroke:#ff7f0e;stroke-linecap:square;stroke-width:1.5;"/>
   </g>
   <g id="line2d_18">
    <path clip-path="url(#p213a4c73f3)" d="M 60.013977 264.775754 
L 62.938793 264.775754 
L 65.863609 264.775749 
L 68.788424 264.775713 
L 71.71324 264.775536 
L 74.638056 264.774878 
L 77.562872 264.772883 
L 80.487687 264.767749 
L 83.412503 264.756142 
L 86.337319 264.732505 
L 89.262135 264.688294 
L 92.18695 264.611204 
L 95.111766 264.48441 
L 98.036582 264.285847 
L 100.961397 263.987524 
L 103.886213 263.55485 
L 106.811029 262.94592 
L 109.735845 262.110706 
L 112.66066 260.990098 
L 115.585476 259.514754 
L 118.510292 257.603757 
L 121.435107 255.163147 
L 124.359923 252.084439 
L 127.284739 248.24336 
L 130.209555 243.499084 
L 133.13437 237.694333 
L 136.059186 230.65675 
L 138.984002 222.202034 
L 141.908818 212.139649 
L 144.833633 200.282636 
L 147.758449 186.464717 
L 150.683265 170.570345 
L 153.60808 152.585788 
L 156.532896 132.678648 
L 159.457712 111.304147 
L 162.382528 89.314353 
L 165.307343 68.014659 
L 168.232159 49.090745 
L 171.156975 34.352945 
L 174.081791 25.331274 
L 177.006606 22.864591 
L 179.931422 26.871902 
L 182.856238 36.414299 
L 185.781053 50.001669 
L 188.705869 65.986989 
L 191.630685 82.891287 
L 194.555501 99.582207 
L 197.480316 115.313338 
L 200.405132 129.674656 
L 203.329948 142.506894 
L 206.254764 153.815487 
L 209.179579 163.700915 
L 212.104395 172.309321 
L 215.029211 179.800949 
L 217.954026 186.331864 
L 220.878842 192.044636 
L 223.803658 197.064575 
L 226.728474 201.499166 
L 229.653289 205.439168 
L 232.578105 208.960463 
L 235.502921 212.126117 
L 238.427736 214.988384 
L 241.352552 217.590516 
L 244.277368 219.968341 
L 247.202184 222.151585 
L 250.126999 224.164986 
L 253.051815 226.029205 
L 255.976631 227.761568 
L 258.901447 229.376674 
L 261.826262 230.886892 
L 264.751078 232.302753 
L 267.675894 233.633279 
L 270.600709 234.886244 
L 273.525525 236.068384 
L 276.450341 237.185576 
L 279.375157 238.242973 
L 282.299972 239.245126 
L 285.224788 240.19607 
L 288.149604 241.099409 
L 291.07442 241.958375 
L 293.999235 242.775884 
L 296.924051 243.554576 
L 299.848867 244.296853 
L 302.773682 245.004912 
L 305.698498 245.680766 
L 308.623314 246.326267 
L 311.54813 246.943127 
L 314.472945 247.532929 
L 317.397761 248.097144 
L 320.322577 248.637139 
L 323.247393 249.154189 
L 326.172208 249.649486 
L 329.097024 250.124145 
L 332.02184 250.579211 
L 334.946655 251.015664 
L 337.871471 251.434425 
L 340.796287 251.836363 
L 343.721103 252.222293 
L 346.645918 252.592984 
L 349.570734 252.949164 
L 352.49555 253.291516 
L 355.420365 253.62069 
L 358.345181 253.937297 
L 361.269997 254.241917 
L 364.194813 254.535098 
L 367.119628 254.817359 
L 370.044444 255.089193 
L 372.96926 255.351066 
L 375.894076 255.60342 
L 378.818891 255.846675 
L 381.743707 256.081229 
L 384.668523 256.307461 
" style="fill:none;stroke:#2ca02c;stroke-linecap:square;stroke-width:1.5;"/>
   </g>
   <g id="line2d_19">
    <path clip-path="url(#p213a4c73f3)" d="M 60.013977 264.775754 
L 62.938793 264.775754 
L 65.863609 264.775749 
L 68.788424 264.775713 
L 71.71324 264.775536 
L 74.638056 264.774878 
L 77.562872 264.772883 
L 80.487687 264.767749 
L 83.412503 264.756142 
L 86.337319 264.732505 
L 89.262135 264.688294 
L 92.18695 264.611204 
L 95.111766 264.48441 
L 98.036582 264.285847 
L 100.961397 263.987524 
L 103.886213 263.55485 
L 106.811029 262.94592 
L 109.735845 262.110706 
L 112.66066 260.990098 
L 115.585476 259.514754 
L 118.510292 257.603757 
L 121.435107 255.163147 
L 124.359923 252.084439 
L 127.284739 248.24336 
L 130.209555 243.499084 
L 133.13437 237.694333 
L 136.059186 230.65675 
L 138.984002 222.202034 
L 141.908818 212.139649 
L 144.833633 200.282635 
L 147.758449 186.464716 
L 150.683265 170.570343 
L 153.60808 152.58578 
L 156.532896 132.678621 
L 159.457712 111.304069 
L 162.382528 89.314141 
L 165.307343 68.014132 
L 168.232159 49.089541 
L 171.156975 34.350416 
L 174.081791 25.326368 
L 177.006606 22.855754 
L 179.931422 26.857019 
L 182.856238 36.390676 
L 185.781053 49.966049 
L 188.705869 65.935588 
L 191.630685 82.819828 
L 194.555501 99.485958 
L 197.480316 115.187163 
L 200.405132 129.513077 
L 203.329948 142.304163 
L 206.254764 153.56568 
L 209.179579 163.398028 
L 212.104395 171.947375 
L 215.029211 179.37409 
L 217.954026 185.834462 
L 220.878842 191.471375 
L 223.803658 196.410533 
L 226.728474 200.759879 
L 229.653289 204.610686 
L 232.578105 208.039383 
L 235.502921 211.109613 
L 238.427736 213.874216 
L 241.352552 216.377035 
L 244.277368 218.654471 
L 247.202184 220.736812 
L 250.126999 222.64933 
L 253.051815 224.413185 
L 255.976631 226.046169 
L 258.901447 227.563309 
L 261.826262 228.977358 
L 264.751078 230.299192 
L 267.675894 231.538135 
L 270.600709 232.70222 
L 273.525525 233.798408 
L 276.450341 234.832759 
L 279.375157 235.810577 
L 282.299972 236.736525 
L 285.224788 237.614728 
L 288.149604 238.448845 
L 291.07442 239.242142 
L 293.999235 239.997544 
L 296.924051 240.717682 
L 299.848867 241.40493 
L 302.773682 242.061442 
L 305.698498 242.689175 
L 308.623314 243.289913 
L 311.54813 243.86529 
L 314.472945 244.416805 
L 317.397761 244.945836 
L 320.322577 245.453656 
L 323.247393 245.941437 
L 326.172208 246.41027 
L 329.097024 246.861164 
L 332.02184 247.295058 
L 334.946655 247.712827 
L 337.871471 248.115285 
L 340.796287 248.503197 
L 343.721103 248.877274 
L 346.645918 249.238184 
L 349.570734 249.586555 
L 352.49555 249.922974 
L 355.420365 250.247994 
L 358.345181 250.562137 
L 361.269997 250.865891 
L 364.194813 251.15972 
L 367.119628 251.444059 
L 370.044444 251.719322 
L 372.96926 251.985896 
L 375.894076 252.24415 
L 378.818891 252.494434 
L 381.743707 252.737077 
L 384.668523 252.972393 
" style="fill:none;stroke:#d62728;stroke-linecap:square;stroke-width:1.5;"/>
   </g>
   <g id="patch_3">
    <path d="M 43.78125 276.871754 
L 43.78125 10.759754 
" style="fill:none;stroke:#000000;stroke-linecap:square;stroke-linejoin:miter;stroke-width:0.8;"/>
   </g>
   <g id="patch_4">
    <path d="M 400.90125 276.871754 
L 400.90125 10.759754 
" style="fill:none;stroke:#000000;stroke-linecap:square;stroke-linejoin:miter;stroke-width:0.8;"/>
   </g>
   <g id="patch_5">
    <path d="M 43.78125 276.871754 
L 400.90125 276.871754 
" style="fill:none;stroke:#000000;stroke-linecap:square;stroke-linejoin:miter;stroke-width:0.8;"/>
   </g>
   <g id="patch_6">
    <path d="M 43.78125 10.759754 
L 400.90125 10.759754 
" style="fill:none;stroke:#000000;stroke-linecap:square;stroke-linejoin:miter;stroke-width:0.8;"/>
   </g>
   <g id="legend_1">
    <g id="patch_7">
     <path d="M 313.716875 92.150379 
L 393.90125 92.150379 
Q 395.90125 92.150379 395.90125 90.150379 
L 395.90125 17.759754 
Q 395.90125 15.759754 393.90125 15.759754 
L 313.716875 15.759754 
Q 311.716875 15.759754 311.716875 17.759754 
L 311.716875 90.150379 
Q 311.716875 92.150379 313.716875 92.150379 
z
" style="fill:#ffffff;opacity:0.8;stroke:#cccccc;stroke-linejoin:miter;"/>
    </g>
    <g id="line2d_20">
     <path d="M 315.716875 23.858192 
L 335.716875 23.858192 
" style="fill:none;stroke:#d3d3d3;stroke-linecap:square;stroke-width:5;"/>
    </g>
    <g id="line2d_21"/>
    <g id="text_17">
     <!-- reference -->
     <defs>
      <path d="M 37.109375 75.984375 
L 37.109375 68.5 
L 28.515625 68.5 
Q 23.6875 68.5 21.796875 66.546875 
Q 19.921875 64.59375 19.921875 59.515625 
L 19.921875 54.6875 
L 34.71875 54.6875 
L 34.71875 47.703125 
L 19.921875 47.703125 
L 19.921875 0 
L 10.890625 0 
L 10.890625 47.703125 
L 2.296875 47.703125 
L 2.296875 54.6875 
L 10.890625 54.6875 
L 10.890625 58.5 
Q 10.890625 67.625 15.140625 71.796875 
Q 19.390625 75.984375 28.609375 75.984375 
z
" id="DejaVuSans-102"/>
      <path d="M 54.890625 33.015625 
L 54.890625 0 
L 45.90625 0 
L 45.90625 32.71875 
Q 45.90625 40.484375 42.875 44.328125 
Q 39.84375 48.1875 33.796875 48.1875 
Q 26.515625 48.1875 22.3125 43.546875 
Q 18.109375 38.921875 18.109375 30.90625 
L 18.109375 0 
L 9.078125 0 
L 9.078125 54.6875 
L 18.109375 54.6875 
L 18.109375 46.1875 
Q 21.34375 51.125 25.703125 53.5625 
Q 30.078125 56 35.796875 56 
Q 45.21875 56 50.046875 50.171875 
Q 54.890625 44.34375 54.890625 33.015625 
z
" id="DejaVuSans-110"/>
     </defs>
     <g transform="translate(343.716875 27.358192)scale(0.1 -0.1)">
      <use xlink:href="#DejaVuSans-114"/>
      <use x="41.082031" xlink:href="#DejaVuSans-101"/>
      <use x="102.605469" xlink:href="#DejaVuSans-102"/>
      <use x="137.810547" xlink:href="#DejaVuSans-101"/>
      <use x="199.333984" xlink:href="#DejaVuSans-114"/>
      <use x="240.416016" xlink:href="#DejaVuSans-101"/>
      <use x="301.939453" xlink:href="#DejaVuSans-110"/>
      <use x="365.318359" xlink:href="#DejaVuSans-99"/>
      <use x="420.298828" xlink:href="#DejaVuSans-101"/>
     </g>
    </g>
    <g id="line2d_22">
     <path d="M 315.716875 38.536317 
L 335.716875 38.536317 
" style="fill:none;stroke:#1f77b4;stroke-linecap:square;stroke-width:1.5;"/>
    </g>
    <g id="line2d_23"/>
    <g id="text_18">
     <!-- $E_c=-80$ -->
     <defs>
      <path d="M 16.890625 72.90625 
L 62.984375 72.90625 
L 61.375 64.59375 
L 25.09375 64.59375 
L 20.90625 43.015625 
L 55.71875 43.015625 
L 54.109375 34.71875 
L 19.28125 34.71875 
L 14.203125 8.296875 
L 51.3125 8.296875 
L 49.703125 0 
L 2.6875 0 
z
" id="DejaVuSans-Oblique-69"/>
      <path d="M 53.609375 52.59375 
L 51.8125 43.703125 
Q 48.578125 46.046875 44.9375 47.21875 
Q 41.3125 48.390625 37.40625 48.390625 
Q 33.109375 48.390625 29.21875 46.875 
Q 25.34375 45.359375 22.703125 42.578125 
Q 18.5 38.328125 16.203125 32.609375 
Q 13.921875 26.90625 13.921875 20.796875 
Q 13.921875 13.421875 17.609375 9.8125 
Q 21.296875 6.203125 28.8125 6.203125 
Q 32.515625 6.203125 36.6875 7.328125 
Q 40.875 8.453125 45.40625 10.6875 
L 43.703125 1.8125 
Q 39.796875 0.203125 35.671875 -0.609375 
Q 31.546875 -1.421875 27.203125 -1.421875 
Q 16.3125 -1.421875 10.453125 4.015625 
Q 4.59375 9.46875 4.59375 19.578125 
Q 4.59375 28.078125 7.640625 35.234375 
Q 10.6875 42.390625 16.703125 48.09375 
Q 20.796875 52 26.3125 54 
Q 31.84375 56 38.375 56 
Q 42.1875 56 45.9375 55.140625 
Q 49.703125 54.296875 53.609375 52.59375 
z
" id="DejaVuSans-Oblique-99"/>
      <path d="M 10.59375 45.40625 
L 73.1875 45.40625 
L 73.1875 37.203125 
L 10.59375 37.203125 
z
M 10.59375 25.484375 
L 73.1875 25.484375 
L 73.1875 17.1875 
L 10.59375 17.1875 
z
" id="DejaVuSans-61"/>
      <path d="M 10.59375 35.5 
L 73.1875 35.5 
L 73.1875 27.203125 
L 10.59375 27.203125 
z
" id="DejaVuSans-8722"/>
     </defs>
     <g transform="translate(343.716875 42.036317)scale(0.1 -0.1)">
      <use transform="translate(0 0.78125)" xlink:href="#DejaVuSans-Oblique-69"/>
      <use transform="translate(63.183594 -15.625)scale(0.7)" xlink:href="#DejaVuSans-Oblique-99"/>
      <use transform="translate(123.886719 0.78125)" xlink:href="#DejaVuSans-61"/>
      <use transform="translate(246.640625 0.78125)" xlink:href="#DejaVuSans-8722"/>
      <use transform="translate(349.912109 0.78125)" xlink:href="#DejaVuSans-56"/>
      <use transform="translate(413.535156 0.78125)" xlink:href="#DejaVuSans-48"/>
     </g>
    </g>
    <g id="line2d_24">
     <path d="M 315.716875 53.214442 
L 335.716875 53.214442 
" style="fill:none;stroke:#ff7f0e;stroke-linecap:square;stroke-width:1.5;"/>
    </g>
    <g id="line2d_25"/>
    <g id="text_19">
     <!-- $E_c=-40$ -->
     <g transform="translate(343.716875 56.714442)scale(0.1 -0.1)">
      <use transform="translate(0 0.78125)" xlink:href="#DejaVuSans-Oblique-69"/>
      <use transform="translate(63.183594 -15.625)scale(0.7)" xlink:href="#DejaVuSans-Oblique-99"/>
      <use transform="translate(123.886719 0.78125)" xlink:href="#DejaVuSans-61"/>
      <use transform="translate(246.640625 0.78125)" xlink:href="#DejaVuSans-8722"/>
      <use transform="translate(349.912109 0.78125)" xlink:href="#DejaVuSans-52"/>
      <use transform="translate(413.535156 0.78125)" xlink:href="#DejaVuSans-48"/>
     </g>
    </g>
    <g id="line2d_26">
     <path d="M 315.716875 67.892567 
L 335.716875 67.892567 
" style="fill:none;stroke:#2ca02c;stroke-linecap:square;stroke-width:1.5;"/>
    </g>
    <g id="line2d_27"/>
    <g id="text_20">
     <!-- $E_c=0$ -->
     <g transform="translate(343.716875 71.392567)scale(0.1 -0.1)">
      <use transform="translate(0 0.78125)" xlink:href="#DejaVuSans-Oblique-69"/>
      <use transform="translate(63.183594 -15.625)scale(0.7)" xlink:href="#DejaVuSans-Oblique-99"/>
      <use transform="translate(123.886719 0.78125)" xlink:href="#DejaVuSans-61"/>
      <use transform="translate(227.158203 0.78125)" xlink:href="#DejaVuSans-48"/>
     </g>
    </g>
    <g id="line2d_28">
     <path d="M 315.716875 82.570692 
L 335.716875 82.570692 
" style="fill:none;stroke:#d62728;stroke-linecap:square;stroke-width:1.5;"/>
    </g>
    <g id="line2d_29"/>
    <g id="text_21">
     <!-- $E_c=40$ -->
     <g transform="translate(343.716875 86.070692)scale(0.1 -0.1)">
      <use transform="translate(0 0.78125)" xlink:href="#DejaVuSans-Oblique-69"/>
      <use transform="translate(63.183594 -15.625)scale(0.7)" xlink:href="#DejaVuSans-Oblique-99"/>
      <use transform="translate(123.886719 0.78125)" xlink:href="#DejaVuSans-61"/>
      <use transform="translate(227.158203 0.78125)" xlink:href="#DejaVuSans-52"/>
      <use transform="translate(290.78125 0.78125)" xlink:href="#DejaVuSans-48"/>
     </g>
    </g>
   </g>
  </g>
 </g>
 <defs>
  <clipPath id="p213a4c73f3">
   <rect height="266.112" width="357.12" x="43.78125" y="10.759754"/>
  </clipPath>
 </defs>
</svg>
