<?xml version="1.0" encoding="utf-8" standalone="no"?>
<!DOCTYPE svg PUBLIC "-//W3C//DTD SVG 1.1//EN"
  "http://www.w3.org/Graphics/SVG/1.1/DTD/svg11.dtd">
<!-- Created with matplotlib (https://matplotlib.org/) -->
<svg height="310.86825pt" version="1.1" viewBox="0 0 416.480937 310.86825" width="416.480937pt" xmlns="http://www.w3.org/2000/svg" xmlns:xlink="http://www.w3.org/1999/xlink">
 <defs>
  <style type="text/css">
*{stroke-linecap:butt;stroke-linejoin:round;}
  </style>
 </defs>
 <g id="figure_1">
  <g id="patch_1">
   <path d="M 0 310.86825 
L 416.480937 310.86825 
L 416.480937 0 
L 0 0 
z
" style="fill:#ffffff;"/>
  </g>
  <g id="axes_1">
   <g id="patch_2">
    <path d="M 52.160938 140.256 
L 409.280938 140.256 
L 409.280938 7.2 
L 52.160938 7.2 
z
" style="fill:#ffffff;"/>
   </g>
   <g id="matplotlib.axis_1">
    <g id="xtick_1">
     <g id="line2d_1">
      <defs>
       <path d="M 0 0 
L 0 3.5 
" id="m88badf49a6" style="stroke:#000000;stroke-width:0.8;"/>
      </defs>
      <g>
       <use style="stroke:#000000;stroke-width:0.8;" x="103.491453" xlink:href="#m88badf49a6" y="140.256"/>
      </g>
     </g>
    </g>
    <g id="xtick_2">
     <g id="line2d_2">
      <g>
       <use style="stroke:#000000;stroke-width:0.8;" x="161.987768" xlink:href="#m88badf49a6" y="140.256"/>
      </g>
     </g>
    </g>
    <g id="xtick_3">
     <g id="line2d_3">
      <g>
       <use style="stroke:#000000;stroke-width:0.8;" x="220.484082" xlink:href="#m88badf49a6" y="140.256"/>
      </g>
     </g>
    </g>
    <g id="xtick_4">
     <g id="line2d_4">
      <g>
       <use style="stroke:#000000;stroke-width:0.8;" x="278.980397" xlink:href="#m88badf49a6" y="140.256"/>
      </g>
     </g>
    </g>
    <g id="xtick_5">
     <g id="line2d_5">
      <g>
       <use style="stroke:#000000;stroke-width:0.8;" x="337.476711" xlink:href="#m88badf49a6" y="140.256"/>
      </g>
     </g>
    </g>
    <g id="xtick_6">
     <g id="line2d_6">
      <g>
       <use style="stroke:#000000;stroke-width:0.8;" x="395.973026" xlink:href="#m88badf49a6" y="140.256"/>
      </g>
     </g>
    </g>
    <g id="text_1">
     <!-- Temperature -->
     <defs>
      <path d="M -0.296875 72.90625 
L 61.375 72.90625 
L 61.375 64.59375 
L 35.5 64.59375 
L 35.5 0 
L 25.59375 0 
L 25.59375 64.59375 
L -0.296875 64.59375 
z
" id="DejaVuSans-84"/>
      <path d="M 56.203125 29.59375 
L 56.203125 25.203125 
L 14.890625 25.203125 
Q 15.484375 15.921875 20.484375 11.0625 
Q 25.484375 6.203125 34.421875 6.203125 
Q 39.59375 6.203125 44.453125 7.46875 
Q 49.3125 8.734375 54.109375 11.28125 
L 54.109375 2.78125 
Q 49.265625 0.734375 44.1875 -0.34375 
Q 39.109375 -1.421875 33.890625 -1.421875 
Q 20.796875 -1.421875 13.15625 6.1875 
Q 5.515625 13.8125 5.515625 26.8125 
Q 5.515625 40.234375 12.765625 48.109375 
Q 20.015625 56 32.328125 56 
Q 43.359375 56 49.78125 48.890625 
Q 56.203125 41.796875 56.203125 29.59375 
z
M 47.21875 32.234375 
Q 47.125 39.59375 43.09375 43.984375 
Q 39.0625 48.390625 32.421875 48.390625 
Q 24.90625 48.390625 20.390625 44.140625 
Q 15.875 39.890625 15.1875 32.171875 
z
" id="DejaVuSans-101"/>
      <path d="M 52 44.1875 
Q 55.375 50.25 60.0625 53.125 
Q 64.75 56 71.09375 56 
Q 79.640625 56 84.28125 50.015625 
Q 88.921875 44.046875 88.921875 33.015625 
L 88.921875 0 
L 79.890625 0 
L 79.890625 32.71875 
Q 79.890625 40.578125 77.09375 44.375 
Q 74.3125 48.1875 68.609375 48.1875 
Q 61.625 48.1875 57.5625 43.546875 
Q 53.515625 38.921875 53.515625 30.90625 
L 53.515625 0 
L 44.484375 0 
L 44.484375 32.71875 
Q 44.484375 40.625 41.703125 44.40625 
Q 38.921875 48.1875 33.109375 48.1875 
Q 26.21875 48.1875 22.15625 43.53125 
Q 18.109375 38.875 18.109375 30.90625 
L 18.109375 0 
L 9.078125 0 
L 9.078125 54.6875 
L 18.109375 54.6875 
L 18.109375 46.1875 
Q 21.1875 51.21875 25.484375 53.609375 
Q 29.78125 56 35.6875 56 
Q 41.65625 56 45.828125 52.96875 
Q 50 49.953125 52 44.1875 
z
" id="DejaVuSans-109"/>
      <path d="M 18.109375 8.203125 
L 18.109375 -20.796875 
L 9.078125 -20.796875 
L 9.078125 54.6875 
L 18.109375 54.6875 
L 18.109375 46.390625 
Q 20.953125 51.265625 25.265625 53.625 
Q 29.59375 56 35.59375 56 
Q 45.5625 56 51.78125 48.09375 
Q 58.015625 40.1875 58.015625 27.296875 
Q 58.015625 14.40625 51.78125 6.484375 
Q 45.5625 -1.421875 35.59375 -1.421875 
Q 29.59375 -1.421875 25.265625 0.953125 
Q 20.953125 3.328125 18.109375 8.203125 
z
M 48.6875 27.296875 
Q 48.6875 37.203125 44.609375 42.84375 
Q 40.53125 48.484375 33.40625 48.484375 
Q 26.265625 48.484375 22.1875 42.84375 
Q 18.109375 37.203125 18.109375 27.296875 
Q 18.109375 17.390625 22.1875 11.75 
Q 26.265625 6.109375 33.40625 6.109375 
Q 40.53125 6.109375 44.609375 11.75 
Q 48.6875 17.390625 48.6875 27.296875 
z
" id="DejaVuSans-112"/>
      <path d="M 41.109375 46.296875 
Q 39.59375 47.171875 37.8125 47.578125 
Q 36.03125 48 33.890625 48 
Q 26.265625 48 22.1875 43.046875 
Q 18.109375 38.09375 18.109375 28.8125 
L 18.109375 0 
L 9.078125 0 
L 9.078125 54.6875 
L 18.109375 54.6875 
L 18.109375 46.1875 
Q 20.953125 51.171875 25.484375 53.578125 
Q 30.03125 56 36.53125 56 
Q 37.453125 56 38.578125 55.875 
Q 39.703125 55.765625 41.0625 55.515625 
z
" id="DejaVuSans-114"/>
      <path d="M 34.28125 27.484375 
Q 23.390625 27.484375 19.1875 25 
Q 14.984375 22.515625 14.984375 16.5 
Q 14.984375 11.71875 18.140625 8.90625 
Q 21.296875 6.109375 26.703125 6.109375 
Q 34.1875 6.109375 38.703125 11.40625 
Q 43.21875 16.703125 43.21875 25.484375 
L 43.21875 27.484375 
z
M 52.203125 31.203125 
L 52.203125 0 
L 43.21875 0 
L 43.21875 8.296875 
Q 40.140625 3.328125 35.546875 0.953125 
Q 30.953125 -1.421875 24.3125 -1.421875 
Q 15.921875 -1.421875 10.953125 3.296875 
Q 6 8.015625 6 15.921875 
Q 6 25.140625 12.171875 29.828125 
Q 18.359375 34.515625 30.609375 34.515625 
L 43.21875 34.515625 
L 43.21875 35.40625 
Q 43.21875 41.609375 39.140625 45 
Q 35.0625 48.390625 27.6875 48.390625 
Q 23 48.390625 18.546875 47.265625 
Q 14.109375 46.140625 10.015625 43.890625 
L 10.015625 52.203125 
Q 14.9375 54.109375 19.578125 55.046875 
Q 24.21875 56 28.609375 56 
Q 40.484375 56 46.34375 49.84375 
Q 52.203125 43.703125 52.203125 31.203125 
z
" id="DejaVuSans-97"/>
      <path d="M 18.3125 70.21875 
L 18.3125 54.6875 
L 36.8125 54.6875 
L 36.8125 47.703125 
L 18.3125 47.703125 
L 18.3125 18.015625 
Q 18.3125 11.328125 20.140625 9.421875 
Q 21.96875 7.515625 27.59375 7.515625 
L 36.8125 7.515625 
L 36.8125 0 
L 27.59375 0 
Q 17.1875 0 13.234375 3.875 
Q 9.28125 7.765625 9.28125 18.015625 
L 9.28125 47.703125 
L 2.6875 47.703125 
L 2.6875 54.6875 
L 9.28125 54.6875 
L 9.28125 70.21875 
z
" id="DejaVuSans-116"/>
      <path d="M 8.5 21.578125 
L 8.5 54.6875 
L 17.484375 54.6875 
L 17.484375 21.921875 
Q 17.484375 14.15625 20.5 10.265625 
Q 23.53125 6.390625 29.59375 6.390625 
Q 36.859375 6.390625 41.078125 11.03125 
Q 45.3125 15.671875 45.3125 23.6875 
L 45.3125 54.6875 
L 54.296875 54.6875 
L 54.296875 0 
L 45.3125 0 
L 45.3125 8.40625 
Q 42.046875 3.421875 37.71875 1 
Q 33.40625 -1.421875 27.6875 -1.421875 
Q 18.265625 -1.421875 13.375 4.4375 
Q 8.5 10.296875 8.5 21.578125 
z
M 31.109375 56 
z
" id="DejaVuSans-117"/>
     </defs>
     <g transform="translate(199.051406 151.854437)scale(0.1 -0.1)">
      <use xlink:href="#DejaVuSans-84"/>
      <use x="44.083984" xlink:href="#DejaVuSans-101"/>
      <use x="105.607422" xlink:href="#DejaVuSans-109"/>
      <use x="203.019531" xlink:href="#DejaVuSans-112"/>
      <use x="266.496094" xlink:href="#DejaVuSans-101"/>
      <use x="328.019531" xlink:href="#DejaVuSans-114"/>
      <use x="369.132812" xlink:href="#DejaVuSans-97"/>
      <use x="430.412109" xlink:href="#DejaVuSans-116"/>
      <use x="469.621094" xlink:href="#DejaVuSans-117"/>
      <use x="533" xlink:href="#DejaVuSans-114"/>
      <use x="571.863281" xlink:href="#DejaVuSans-101"/>
     </g>
    </g>
   </g>
   <g id="matplotlib.axis_2">
    <g id="ytick_1">
     <g id="line2d_7">
      <defs>
       <path d="M 0 0 
L -3.5 0 
" id="m37bfe2a3fb" style="stroke:#000000;stroke-width:0.8;"/>
      </defs>
      <g>
       <use style="stroke:#000000;stroke-width:0.8;" x="52.160938" xlink:href="#m37bfe2a3fb" y="134.208"/>
      </g>
     </g>
     <g id="text_2">
      <!-- 0.0 -->
      <defs>
       <path d="M 31.78125 66.40625 
Q 24.171875 66.40625 20.328125 58.90625 
Q 16.5 51.421875 16.5 36.375 
Q 16.5 21.390625 20.328125 13.890625 
Q 24.171875 6.390625 31.78125 6.390625 
Q 39.453125 6.390625 43.28125 13.890625 
Q 47.125 21.390625 47.125 36.375 
Q 47.125 51.421875 43.28125 58.90625 
Q 39.453125 66.40625 31.78125 66.40625 
z
M 31.78125 74.21875 
Q 44.046875 74.21875 50.515625 64.515625 
Q 56.984375 54.828125 56.984375 36.375 
Q 56.984375 17.96875 50.515625 8.265625 
Q 44.046875 -1.421875 31.78125 -1.421875 
Q 19.53125 -1.421875 13.0625 8.265625 
Q 6.59375 17.96875 6.59375 36.375 
Q 6.59375 54.828125 13.0625 64.515625 
Q 19.53125 74.21875 31.78125 74.21875 
z
" id="DejaVuSans-48"/>
       <path d="M 10.6875 12.40625 
L 21 12.40625 
L 21 0 
L 10.6875 0 
z
" id="DejaVuSans-46"/>
      </defs>
      <g transform="translate(29.257813 138.007219)scale(0.1 -0.1)">
       <use xlink:href="#DejaVuSans-48"/>
       <use x="63.623047" xlink:href="#DejaVuSans-46"/>
       <use x="95.410156" xlink:href="#DejaVuSans-48"/>
      </g>
     </g>
    </g>
    <g id="ytick_2">
     <g id="line2d_8">
      <g>
       <use style="stroke:#000000;stroke-width:0.8;" x="52.160938" xlink:href="#m37bfe2a3fb" y="108.797323"/>
      </g>
     </g>
     <g id="text_3">
      <!-- 0.5 -->
      <defs>
       <path d="M 10.796875 72.90625 
L 49.515625 72.90625 
L 49.515625 64.59375 
L 19.828125 64.59375 
L 19.828125 46.734375 
Q 21.96875 47.46875 24.109375 47.828125 
Q 26.265625 48.1875 28.421875 48.1875 
Q 40.625 48.1875 47.75 41.5 
Q 54.890625 34.8125 54.890625 23.390625 
Q 54.890625 11.625 47.5625 5.09375 
Q 40.234375 -1.421875 26.90625 -1.421875 
Q 22.3125 -1.421875 17.546875 -0.640625 
Q 12.796875 0.140625 7.71875 1.703125 
L 7.71875 11.625 
Q 12.109375 9.234375 16.796875 8.0625 
Q 21.484375 6.890625 26.703125 6.890625 
Q 35.15625 6.890625 40.078125 11.328125 
Q 45.015625 15.765625 45.015625 23.390625 
Q 45.015625 31 40.078125 35.4375 
Q 35.15625 39.890625 26.703125 39.890625 
Q 22.75 39.890625 18.8125 39.015625 
Q 14.890625 38.140625 10.796875 36.28125 
z
" id="DejaVuSans-53"/>
      </defs>
      <g transform="translate(29.257813 112.596542)scale(0.1 -0.1)">
       <use xlink:href="#DejaVuSans-48"/>
       <use x="63.623047" xlink:href="#DejaVuSans-46"/>
       <use x="95.410156" xlink:href="#DejaVuSans-53"/>
      </g>
     </g>
    </g>
    <g id="ytick_3">
     <g id="line2d_9">
      <g>
       <use style="stroke:#000000;stroke-width:0.8;" x="52.160938" xlink:href="#m37bfe2a3fb" y="83.386647"/>
      </g>
     </g>
     <g id="text_4">
      <!-- 1.0 -->
      <defs>
       <path d="M 12.40625 8.296875 
L 28.515625 8.296875 
L 28.515625 63.921875 
L 10.984375 60.40625 
L 10.984375 69.390625 
L 28.421875 72.90625 
L 38.28125 72.90625 
L 38.28125 8.296875 
L 54.390625 8.296875 
L 54.390625 0 
L 12.40625 0 
z
" id="DejaVuSans-49"/>
      </defs>
      <g transform="translate(29.257813 87.185866)scale(0.1 -0.1)">
       <use xlink:href="#DejaVuSans-49"/>
       <use x="63.623047" xlink:href="#DejaVuSans-46"/>
       <use x="95.410156" xlink:href="#DejaVuSans-48"/>
      </g>
     </g>
    </g>
    <g id="ytick_4">
     <g id="line2d_10">
      <g>
       <use style="stroke:#000000;stroke-width:0.8;" x="52.160938" xlink:href="#m37bfe2a3fb" y="57.97597"/>
      </g>
     </g>
     <g id="text_5">
      <!-- 1.5 -->
      <g transform="translate(29.257813 61.775189)scale(0.1 -0.1)">
       <use xlink:href="#DejaVuSans-49"/>
       <use x="63.623047" xlink:href="#DejaVuSans-46"/>
       <use x="95.410156" xlink:href="#DejaVuSans-53"/>
      </g>
     </g>
    </g>
    <g id="ytick_5">
     <g id="line2d_11">
      <g>
       <use style="stroke:#000000;stroke-width:0.8;" x="52.160938" xlink:href="#m37bfe2a3fb" y="32.565294"/>
      </g>
     </g>
     <g id="text_6">
      <!-- 2.0 -->
      <defs>
       <path d="M 19.1875 8.296875 
L 53.609375 8.296875 
L 53.609375 0 
L 7.328125 0 
L 7.328125 8.296875 
Q 12.9375 14.109375 22.625 23.890625 
Q 32.328125 33.6875 34.8125 36.53125 
Q 39.546875 41.84375 41.421875 45.53125 
Q 43.3125 49.21875 43.3125 52.78125 
Q 43.3125 58.59375 39.234375 62.25 
Q 35.15625 65.921875 28.609375 65.921875 
Q 23.96875 65.921875 18.8125 64.3125 
Q 13.671875 62.703125 7.8125 59.421875 
L 7.8125 69.390625 
Q 13.765625 71.78125 18.9375 73 
Q 24.125 74.21875 28.421875 74.21875 
Q 39.75 74.21875 46.484375 68.546875 
Q 53.21875 62.890625 53.21875 53.421875 
Q 53.21875 48.921875 51.53125 44.890625 
Q 49.859375 40.875 45.40625 35.40625 
Q 44.1875 33.984375 37.640625 27.21875 
Q 31.109375 20.453125 19.1875 8.296875 
z
" id="DejaVuSans-50"/>
      </defs>
      <g transform="translate(29.257813 36.364512)scale(0.1 -0.1)">
       <use xlink:href="#DejaVuSans-50"/>
       <use x="63.623047" xlink:href="#DejaVuSans-46"/>
       <use x="95.410156" xlink:href="#DejaVuSans-48"/>
      </g>
     </g>
    </g>
    <g id="text_7">
     <!-- Heat capacity -->
     <defs>
      <path d="M 9.8125 72.90625 
L 19.671875 72.90625 
L 19.671875 43.015625 
L 55.515625 43.015625 
L 55.515625 72.90625 
L 65.375 72.90625 
L 65.375 0 
L 55.515625 0 
L 55.515625 34.71875 
L 19.671875 34.71875 
L 19.671875 0 
L 9.8125 0 
z
" id="DejaVuSans-72"/>
      <path id="DejaVuSans-32"/>
      <path d="M 48.78125 52.59375 
L 48.78125 44.1875 
Q 44.96875 46.296875 41.140625 47.34375 
Q 37.3125 48.390625 33.40625 48.390625 
Q 24.65625 48.390625 19.8125 42.84375 
Q 14.984375 37.3125 14.984375 27.296875 
Q 14.984375 17.28125 19.8125 11.734375 
Q 24.65625 6.203125 33.40625 6.203125 
Q 37.3125 6.203125 41.140625 7.25 
Q 44.96875 8.296875 48.78125 10.40625 
L 48.78125 2.09375 
Q 45.015625 0.34375 40.984375 -0.53125 
Q 36.96875 -1.421875 32.421875 -1.421875 
Q 20.0625 -1.421875 12.78125 6.34375 
Q 5.515625 14.109375 5.515625 27.296875 
Q 5.515625 40.671875 12.859375 48.328125 
Q 20.21875 56 33.015625 56 
Q 37.15625 56 41.109375 55.140625 
Q 45.0625 54.296875 48.78125 52.59375 
z
" id="DejaVuSans-99"/>
      <path d="M 9.421875 54.6875 
L 18.40625 54.6875 
L 18.40625 0 
L 9.421875 0 
z
M 9.421875 75.984375 
L 18.40625 75.984375 
L 18.40625 64.59375 
L 9.421875 64.59375 
z
" id="DejaVuSans-105"/>
      <path d="M 32.171875 -5.078125 
Q 28.375 -14.84375 24.75 -17.8125 
Q 21.140625 -20.796875 15.09375 -20.796875 
L 7.90625 -20.796875 
L 7.90625 -13.28125 
L 13.1875 -13.28125 
Q 16.890625 -13.28125 18.9375 -11.515625 
Q 21 -9.765625 23.484375 -3.21875 
L 25.09375 0.875 
L 2.984375 54.6875 
L 12.5 54.6875 
L 29.59375 11.921875 
L 46.6875 54.6875 
L 56.203125 54.6875 
z
" id="DejaVuSans-121"/>
     </defs>
     <g transform="translate(23.178125 108.287375)rotate(-90)scale(0.1 -0.1)">
      <use xlink:href="#DejaVuSans-72"/>
      <use x="75.195312" xlink:href="#DejaVuSans-101"/>
      <use x="136.71875" xlink:href="#DejaVuSans-97"/>
      <use x="197.998047" xlink:href="#DejaVuSans-116"/>
      <use x="237.207031" xlink:href="#DejaVuSans-32"/>
      <use x="268.994141" xlink:href="#DejaVuSans-99"/>
      <use x="323.974609" xlink:href="#DejaVuSans-97"/>
      <use x="385.253906" xlink:href="#DejaVuSans-112"/>
      <use x="448.730469" xlink:href="#DejaVuSans-97"/>
      <use x="510.009766" xlink:href="#DejaVuSans-99"/>
      <use x="564.990234" xlink:href="#DejaVuSans-105"/>
      <use x="592.773438" xlink:href="#DejaVuSans-116"/>
      <use x="631.982422" xlink:href="#DejaVuSans-121"/>
     </g>
    </g>
   </g>
   <g id="line2d_12">
    <path clip-path="url(#p47b7e54f01)" d="M 68.393665 134.207996 
L 71.31848 134.20791 
L 74.243296 134.206942 
L 77.168112 134.200151 
L 80.092928 134.166542 
L 83.017743 134.038625 
L 85.942559 133.640523 
L 88.867375 132.582472 
L 91.792191 130.109668 
L 94.717006 124.942006 
L 97.641822 115.249488 
L 100.566638 99.115318 
L 103.491453 75.970614 
L 106.416269 48.832706 
L 109.341085 25.153552 
L 112.265901 13.248 
L 115.190716 16.180957 
L 118.115532 30.043717 
L 121.040348 48.137761 
L 123.965164 65.386402 
L 126.889979 79.520241 
L 129.814795 90.209988 
L 132.739611 97.975264 
L 135.664426 103.528651 
L 138.589242 107.50418 
L 141.514058 110.387841 
L 144.438874 112.527185 
L 147.363689 114.162083 
L 150.288505 115.45499 
L 153.213321 116.514791 
L 156.138137 117.414023 
L 159.062952 118.200808 
L 161.987768 118.906966 
L 164.912584 119.553465 
L 167.837399 120.154091 
L 170.762215 120.717886 
L 173.687031 121.25079 
L 176.611847 121.756729 
L 179.536662 122.23834 
L 182.461478 122.697448 
L 185.386294 123.135378 
L 188.311109 123.553157 
L 191.235925 123.951645 
L 194.160741 124.331608 
L 197.085557 124.693769 
L 200.010372 125.038833 
L 202.935188 125.367497 
L 205.860004 125.680458 
L 208.78482 125.978413 
L 211.709635 126.262052 
L 214.634451 126.532061 
L 217.559267 126.78911 
L 220.484082 127.033859 
L 223.408898 127.266945 
L 226.333714 127.488986 
L 229.25853 127.700576 
L 232.183345 127.902285 
L 235.108161 128.094655 
L 238.032977 128.278204 
L 240.957793 128.453424 
L 243.882608 128.620778 
L 246.807424 128.780708 
L 249.73224 128.933626 
L 252.657055 129.079924 
L 255.581871 129.219969 
L 258.506687 129.354107 
L 261.431503 129.482662 
L 264.356318 129.60594 
L 267.281134 129.724226 
L 270.20595 129.837789 
L 273.130766 129.946879 
L 276.055581 130.051735 
L 278.980397 130.152575 
L 281.905213 130.24961 
L 284.830028 130.343033 
L 287.754844 130.433027 
L 290.67966 130.519764 
L 293.604476 130.603405 
L 296.529291 130.684101 
L 299.454107 130.761995 
L 302.378923 130.837221 
L 305.303738 130.909904 
L 308.228554 130.980163 
L 311.15337 131.048109 
L 314.078186 131.113847 
L 317.003001 131.177477 
L 319.927817 131.239092 
L 322.852633 131.29878 
L 325.777449 131.356624 
L 328.702264 131.412703 
L 331.62708 131.467092 
L 334.551896 131.519861 
L 337.476711 131.571076 
L 340.401527 131.620801 
L 343.326343 131.669095 
L 346.251159 131.716015 
L 349.175974 131.761615 
L 352.10079 131.805947 
L 355.025606 131.849058 
L 357.950422 131.890995 
L 360.875237 131.931802 
L 363.800053 131.971521 
L 366.724869 132.010191 
L 369.649684 132.04785 
L 372.5745 132.084535 
L 375.499316 132.12028 
L 378.424132 132.155118 
L 381.348947 132.189081 
L 384.273763 132.222197 
L 387.198579 132.254497 
L 390.123395 132.286007 
L 393.04821 132.316754 
" style="fill:none;stroke:#1f77b4;stroke-linecap:square;stroke-width:1.5;"/>
   </g>
   <g id="line2d_13">
    <path clip-path="url(#p47b7e54f01)" d="M 68.393665 134.208 
L 71.31848 134.208 
L 74.243296 134.207996 
L 77.168112 134.207972 
L 80.092928 134.207856 
L 83.017743 134.207429 
L 85.942559 134.206152 
L 88.867375 134.202929 
L 91.792191 134.195808 
L 94.717006 134.181699 
L 97.641822 134.156115 
L 100.566638 134.113004 
L 103.491453 134.044646 
L 106.416269 133.94164 
L 109.341085 133.792938 
L 112.265901 133.585926 
L 115.190716 133.306526 
L 118.115532 132.939336 
L 121.040348 132.467801 
L 123.965164 131.874463 
L 126.889979 131.141319 
L 129.814795 130.250324 
L 132.739611 129.184107 
L 135.664426 127.926906 
L 138.589242 126.465769 
L 141.514058 124.791979 
L 144.438874 122.902666 
L 147.363689 120.802479 
L 150.288505 118.505159 
L 153.213321 116.034791 
L 156.138137 113.426494 
L 159.062952 110.726307 
L 161.987768 107.990091 
L 164.912584 105.281361 
L 167.837399 102.668136 
L 170.762215 100.219019 
L 173.687031 97.998907 
L 176.611847 96.064796 
L 179.536662 94.462194 
L 182.461478 93.222529 
L 185.386294 92.361847 
L 188.311109 91.880843 
L 191.235925 91.766125 
L 194.160741 91.992428 
L 197.085557 92.525423 
L 200.010372 93.324753 
L 202.935188 94.346971 
L 205.860004 95.548128 
L 208.78482 96.88587 
L 211.709635 98.320981 
L 214.634451 99.818395 
L 217.559267 101.347722 
L 220.484082 102.883405 
L 223.408898 104.404574 
L 226.333714 105.894714 
L 229.25853 107.341209 
L 232.183345 108.734832 
L 235.108161 110.069229 
L 238.032977 111.340422 
L 240.957793 112.546349 
L 243.882608 113.686468 
L 246.807424 114.761405 
L 249.73224 115.772663 
L 252.657055 116.722378 
L 255.581871 117.613124 
L 258.506687 118.447757 
L 261.431503 119.229291 
L 264.356318 119.960802 
L 267.281134 120.645363 
L 270.20595 121.285982 
L 273.130766 121.885574 
L 276.055581 122.446929 
L 278.980397 122.972697 
L 281.905213 123.465383 
L 284.830028 123.927338 
L 287.754844 124.360759 
L 290.67966 124.767698 
L 293.604476 125.150059 
L 296.529291 125.509611 
L 299.454107 125.847991 
L 302.378923 126.166712 
L 305.303738 126.467174 
L 308.228554 126.750669 
L 311.15337 127.018388 
L 314.078186 127.271431 
L 317.003001 127.510812 
L 319.927817 127.737467 
L 322.852633 127.952257 
L 325.777449 128.15598 
L 328.702264 128.349371 
L 331.62708 128.533106 
L 334.551896 128.707814 
L 337.476711 128.874073 
L 340.401527 129.032419 
L 343.326343 129.183348 
L 346.251159 129.327317 
L 349.175974 129.464752 
L 352.10079 129.596048 
L 355.025606 129.721569 
L 357.950422 129.841655 
L 360.875237 129.956622 
L 363.800053 130.066762 
L 366.724869 130.172348 
L 369.649684 130.273636 
L 372.5745 130.37086 
L 375.499316 130.464243 
L 378.424132 130.553989 
L 381.348947 130.640293 
L 384.273763 130.723333 
L 387.198579 130.803278 
L 390.123395 130.880286 
L 393.04821 130.954504 
" style="fill:none;stroke:#ff7f0e;stroke-linecap:square;stroke-width:1.5;"/>
   </g>
   <g id="line2d_14">
    <path clip-path="url(#p47b7e54f01)" d="M 68.393665 134.208 
L 71.31848 134.208 
L 74.243296 134.207998 
L 77.168112 134.207984 
L 80.092928 134.207915 
L 83.017743 134.207663 
L 85.942559 134.206908 
L 88.867375 134.205 
L 91.792191 134.200781 
L 94.717006 134.192412 
L 97.641822 134.177217 
L 100.566638 134.151579 
L 103.491453 134.110875 
L 106.416269 134.049466 
L 109.341085 133.960719 
L 112.265901 133.837053 
L 115.190716 133.669997 
L 118.115532 133.450254 
L 121.040348 133.167774 
L 123.965164 132.811839 
L 126.889979 132.37117 
L 129.814795 131.834082 
L 132.739611 131.188695 
L 135.664426 130.423237 
L 138.589242 129.526442 
L 141.514058 128.488072 
L 144.438874 127.299556 
L 147.363689 125.954743 
L 150.288505 124.450748 
L 153.213321 122.788832 
L 156.138137 120.975265 
L 159.062952 119.022072 
L 161.987768 116.94757 
L 164.912584 114.77659 
L 167.837399 112.540291 
L 170.762215 110.275498 
L 173.687031 108.023541 
L 176.611847 105.828639 
L 179.536662 103.735905 
L 182.461478 101.789148 
L 185.386294 100.028638 
L 188.311109 98.489063 
L 191.235925 97.197851 
L 194.160741 96.17402 
L 197.085557 95.427622 
L 200.010372 94.959819 
L 202.935188 94.763505 
L 205.860004 94.824386 
L 208.78482 95.122364 
L 211.709635 95.633077 
L 214.634451 96.329447 
L 217.559267 97.183124 
L 220.484082 98.165751 
L 223.408898 99.249981 
L 226.333714 100.410257 
L 229.25853 101.623332 
L 232.183345 102.868586 
L 235.108161 104.128153 
L 238.032977 105.386899 
L 240.957793 106.632301 
L 243.882608 107.854251 
L 246.807424 109.044817 
L 249.73224 110.197983 
L 252.657055 111.309386 
L 255.581871 112.376068 
L 258.506687 113.396236 
L 261.431503 114.369053 
L 264.356318 115.29445 
L 267.281134 116.172963 
L 270.20595 117.005594 
L 273.130766 117.793691 
L 276.055581 118.538856 
L 278.980397 119.242862 
L 281.905213 119.907588 
L 284.830028 120.534972 
L 287.754844 121.126966 
L 290.67966 121.685507 
L 293.604476 122.212494 
L 296.529291 122.70977 
L 299.454107 123.179111 
L 302.378923 123.622215 
L 305.303738 124.0407 
L 308.228554 124.436097 
L 311.15337 124.809855 
L 314.078186 125.163339 
L 317.003001 125.497829 
L 319.927817 125.814528 
L 322.852633 126.114561 
L 325.777449 126.398979 
L 328.702264 126.668766 
L 331.62708 126.924839 
L 334.551896 127.168054 
L 337.476711 127.399207 
L 340.401527 127.619043 
L 343.326343 127.828253 
L 346.251159 128.027482 
L 349.175974 128.217333 
L 352.10079 128.398365 
L 355.025606 128.571099 
L 357.950422 128.736023 
L 360.875237 128.89359 
L 363.800053 129.044223 
L 366.724869 129.188317 
L 369.649684 129.326241 
L 372.5745 129.458337 
L 375.499316 129.584929 
L 378.424132 129.706316 
L 381.348947 129.822779 
L 384.273763 129.934581 
L 387.198579 130.041968 
L 390.123395 130.145172 
L 393.04821 130.244407 
" style="fill:none;stroke:#2ca02c;stroke-linecap:square;stroke-width:1.5;"/>
   </g>
   <g id="line2d_15">
    <path clip-path="url(#p47b7e54f01)" d="M 68.393665 134.208 
L 71.31848 134.208 
L 74.243296 134.207998 
L 77.168112 134.207985 
L 80.092928 134.207921 
L 83.017743 134.207684 
L 85.942559 134.206979 
L 88.867375 134.205197 
L 91.792191 134.201259 
L 94.717006 134.193454 
L 97.641822 134.179299 
L 100.566638 134.155441 
L 103.491453 134.117614 
L 106.416269 134.060625 
L 109.341085 133.978391 
L 112.265901 133.863985 
L 115.190716 133.7097 
L 118.115532 133.507116 
L 121.040348 133.247173 
L 123.965164 132.920257 
L 126.889979 132.516298 
L 129.814795 132.024909 
L 132.739611 131.435574 
L 135.664426 130.737902 
L 138.589242 129.921961 
L 141.514058 128.978709 
L 144.438874 127.900513 
L 147.363689 126.681765 
L 150.288505 125.319561 
L 153.213321 123.814417 
L 156.138137 122.170972 
L 159.062952 120.398605 
L 161.987768 118.511903 
L 164.912584 116.530897 
L 167.837399 114.480987 
L 170.762215 112.39251 
L 173.687031 110.299922 
L 176.611847 108.240609 
L 179.536662 106.253376 
L 182.461478 104.376729 
L 185.386294 102.647074 
L 188.311109 101.096986 
L 191.235925 99.753701 
L 194.160741 98.637962 
L 197.085557 97.763297 
L 200.010372 97.135782 
L 202.935188 96.754265 
L 205.860004 96.610997 
L 208.78482 96.692571 
L 211.709635 96.981073 
L 214.634451 97.455309 
L 217.559267 98.092033 
L 220.484082 98.867077 
L 223.408898 99.756329 
L 226.333714 100.736532 
L 229.25853 101.785889 
L 232.183345 102.884486 
L 235.108161 104.01454 
L 238.032977 105.160513 
L 240.957793 106.309113 
L 243.882608 107.449201 
L 246.807424 108.571656 
L 249.73224 109.669184 
L 252.657055 110.736125 
L 255.581871 111.76824 
L 258.506687 112.762514 
L 261.431503 113.716964 
L 264.356318 114.630464 
L 267.281134 115.502591 
L 270.20595 116.333485 
L 273.130766 117.123731 
L 276.055581 117.874258 
L 278.980397 118.586249 
L 281.905213 119.261076 
L 284.830028 119.900237 
L 287.754844 120.505309 
L 290.67966 121.077911 
L 293.604476 121.619671 
L 296.529291 122.132208 
L 299.454107 122.617106 
L 302.378923 123.075909 
L 305.303738 123.510104 
L 308.228554 123.92112 
L 311.15337 124.31032 
L 314.078186 124.679 
L 317.003001 125.028391 
L 319.927817 125.359652 
L 322.852633 125.673878 
L 325.777449 125.972099 
L 328.702264 126.255285 
L 331.62708 126.524341 
L 334.551896 126.780121 
L 337.476711 127.02342 
L 340.401527 127.254985 
L 343.326343 127.475514 
L 346.251159 127.685659 
L 349.175974 127.88603 
L 352.10079 128.077197 
L 355.025606 128.259692 
L 357.950422 128.434014 
L 360.875237 128.600629 
L 363.800053 128.75997 
L 366.724869 128.912446 
L 369.649684 129.058436 
L 372.5745 129.198297 
L 375.499316 129.332362 
L 378.424132 129.460942 
L 381.348947 129.584331 
L 384.273763 129.702802 
L 387.198579 129.816611 
L 390.123395 129.926 
L 393.04821 130.031195 
" style="fill:none;stroke:#d62728;stroke-linecap:square;stroke-width:1.5;"/>
   </g>
   <g id="line2d_16">
    <path clip-path="url(#p47b7e54f01)" d="M 68.393665 134.208 
L 71.31848 134.208 
L 74.243296 134.207998 
L 77.168112 134.207984 
L 80.092928 134.207916 
L 83.017743 134.207665 
L 85.942559 134.206916 
L 88.867375 134.205024 
L 91.792191 134.200843 
L 94.717006 134.192551 
L 97.641822 134.177506 
L 100.566638 134.152134 
L 103.491453 134.111871 
L 106.416269 134.051155 
L 109.341085 133.963436 
L 112.265901 133.841221 
L 115.190716 133.676118 
L 118.115532 133.458893 
L 121.040348 133.179523 
L 123.965164 132.827268 
L 126.889979 132.390766 
L 129.814795 131.858174 
L 132.739611 131.217379 
L 135.664426 130.456292 
L 138.589242 129.563258 
L 141.514058 128.527591 
L 144.438874 127.340234 
L 147.363689 125.994545 
L 150.288505 124.487179 
L 153.213321 122.819016 
L 156.138137 120.996069 
L 159.062952 119.030273 
L 161.987768 116.94007 
L 164.912584 114.750648 
L 167.837399 112.49377 
L 170.762215 110.207095 
L 173.687031 107.932978 
L 176.611847 105.71679 
L 179.536662 103.604846 
L 182.461478 101.642105 
L 185.386294 99.869849 
L 188.311109 98.323555 
L 191.235925 97.031154 
L 194.160741 96.011851 
L 197.085557 95.275572 
L 200.010372 94.823058 
L 202.935188 94.646544 
L 205.860004 94.730906 
L 208.78482 95.055117 
L 211.709635 95.593854 
L 214.634451 96.319108 
L 217.559267 97.201683 
L 220.484082 98.212483 
L 223.408898 99.323557 
L 226.333714 100.508878 
L 229.25853 101.744868 
L 232.183345 103.010694 
L 235.108161 104.288382 
L 238.032977 105.562784 
L 240.957793 106.821428 
L 243.882608 108.054313 
L 246.807424 109.253651 
L 249.73224 110.413593 
L 252.657055 111.529958 
L 255.581871 112.599973 
L 258.506687 113.622031 
L 261.431503 114.595472 
L 264.356318 115.520395 
L 267.281134 116.397492 
L 270.20595 117.227906 
L 273.130766 118.013117 
L 276.055581 118.754842 
L 278.980397 119.454956 
L 281.905213 120.115431 
L 284.830028 120.738281 
L 287.754844 121.325529 
L 290.67966 121.879171 
L 293.604476 122.401158 
L 296.529291 122.893376 
L 299.454107 123.357637 
L 302.378923 123.795671 
L 305.303738 124.20912 
L 308.228554 124.599539 
L 311.15337 124.968394 
L 314.078186 125.317061 
L 317.003001 125.646835 
L 319.927817 125.958925 
L 322.852633 126.254464 
L 325.777449 126.534508 
L 328.702264 126.800043 
L 331.62708 127.05199 
L 334.551896 127.291203 
L 337.476711 127.51848 
L 340.401527 127.734565 
L 343.326343 127.940147 
L 346.251159 128.135871 
L 349.175974 128.322336 
L 352.10079 128.500098 
L 355.025606 128.669678 
L 357.950422 128.831558 
L 360.875237 128.986189 
L 363.800053 129.133991 
L 366.724869 129.275355 
L 369.649684 129.410648 
L 372.5745 129.540208 
L 375.499316 129.664356 
L 378.424132 129.783387 
L 381.348947 129.897579 
L 384.273763 130.007193 
L 387.198579 130.112472 
L 390.123395 130.213642 
L 393.04821 130.310918 
" style="fill:none;stroke:#9467bd;stroke-linecap:square;stroke-width:1.5;"/>
   </g>
   <g id="patch_3">
    <path d="M 52.160938 140.256 
L 52.160938 7.2 
" style="fill:none;stroke:#000000;stroke-linecap:square;stroke-linejoin:miter;stroke-width:0.8;"/>
   </g>
   <g id="patch_4">
    <path d="M 409.280938 140.256 
L 409.280938 7.2 
" style="fill:none;stroke:#000000;stroke-linecap:square;stroke-linejoin:miter;stroke-width:0.8;"/>
   </g>
   <g id="patch_5">
    <path d="M 52.160938 140.256 
L 409.280938 140.256 
" style="fill:none;stroke:#000000;stroke-linecap:square;stroke-linejoin:miter;stroke-width:0.8;"/>
   </g>
   <g id="patch_6">
    <path d="M 52.160938 7.2 
L 409.280938 7.2 
" style="fill:none;stroke:#000000;stroke-linecap:square;stroke-linejoin:miter;stroke-width:0.8;"/>
   </g>
   <g id="legend_1">
    <g id="patch_7">
     <path d="M 330.980938 88.590625 
L 402.280938 88.590625 
Q 404.280938 88.590625 404.280938 86.590625 
L 404.280938 14.2 
Q 404.280938 12.2 402.280938 12.2 
L 330.980938 12.2 
Q 328.980938 12.2 328.980938 14.2 
L 328.980938 86.590625 
Q 328.980938 88.590625 330.980938 88.590625 
z
" style="fill:#ffffff;opacity:0.8;stroke:#cccccc;stroke-linejoin:miter;"/>
    </g>
    <g id="line2d_17">
     <path d="M 332.980938 20.298437 
L 352.980938 20.298437 
" style="fill:none;stroke:#1f77b4;stroke-linecap:square;stroke-width:1.5;"/>
    </g>
    <g id="line2d_18"/>
    <g id="text_8">
     <!-- $f\leq10^{-1}$ -->
     <defs>
      <path d="M 47.796875 75.984375 
L 46.390625 68.5 
L 37.796875 68.5 
Q 32.90625 68.5 30.6875 66.578125 
Q 28.46875 64.65625 27.390625 59.515625 
L 26.421875 54.6875 
L 41.21875 54.6875 
L 39.890625 47.703125 
L 25.09375 47.703125 
L 15.828125 0 
L 6.78125 0 
L 16.109375 47.703125 
L 7.515625 47.703125 
L 8.796875 54.6875 
L 17.390625 54.6875 
L 18.109375 58.5 
Q 19.96875 68.171875 24.625 72.078125 
Q 29.296875 75.984375 39.3125 75.984375 
z
" id="DejaVuSans-Oblique-102"/>
      <path d="M 73.1875 49.609375 
L 26.3125 36.078125 
L 73.1875 22.703125 
L 73.1875 14.015625 
L 10.59375 31.984375 
L 10.59375 40.28125 
L 73.1875 58.203125 
z
M 10.59375 8.296875 
L 73.1875 8.296875 
L 73.1875 0 
L 10.59375 0 
z
" id="DejaVuSans-8804"/>
      <path d="M 10.59375 35.5 
L 73.1875 35.5 
L 73.1875 27.203125 
L 10.59375 27.203125 
z
" id="DejaVuSans-8722"/>
     </defs>
     <g transform="translate(360.980938 23.798437)scale(0.1 -0.1)">
      <use transform="translate(0 0.684375)" xlink:href="#DejaVuSans-Oblique-102"/>
      <use transform="translate(54.6875 0.684375)" xlink:href="#DejaVuSans-8804"/>
      <use transform="translate(157.958984 0.684375)" xlink:href="#DejaVuSans-49"/>
      <use transform="translate(221.582031 0.684375)" xlink:href="#DejaVuSans-48"/>
      <use transform="translate(286.162109 38.965625)scale(0.7)" xlink:href="#DejaVuSans-8722"/>
      <use transform="translate(344.814453 38.965625)scale(0.7)" xlink:href="#DejaVuSans-49"/>
     </g>
    </g>
    <g id="line2d_19">
     <path d="M 332.980938 34.976562 
L 352.980938 34.976562 
" style="fill:none;stroke:#ff7f0e;stroke-linecap:square;stroke-width:1.5;"/>
    </g>
    <g id="line2d_20"/>
    <g id="text_9">
     <!-- $f\leq10^{-2}$ -->
     <g transform="translate(360.980938 38.476562)scale(0.1 -0.1)">
      <use transform="translate(0 0.765625)" xlink:href="#DejaVuSans-Oblique-102"/>
      <use transform="translate(54.6875 0.765625)" xlink:href="#DejaVuSans-8804"/>
      <use transform="translate(157.958984 0.765625)" xlink:href="#DejaVuSans-49"/>
      <use transform="translate(221.582031 0.765625)" xlink:href="#DejaVuSans-48"/>
      <use transform="translate(286.162109 39.046875)scale(0.7)" xlink:href="#DejaVuSans-8722"/>
      <use transform="translate(344.814453 39.046875)scale(0.7)" xlink:href="#DejaVuSans-50"/>
     </g>
    </g>
    <g id="line2d_21">
     <path d="M 332.980938 49.654687 
L 352.980938 49.654687 
" style="fill:none;stroke:#2ca02c;stroke-linecap:square;stroke-width:1.5;"/>
    </g>
    <g id="line2d_22"/>
    <g id="text_10">
     <!-- $f\leq10^{-3}$ -->
     <defs>
      <path d="M 40.578125 39.3125 
Q 47.65625 37.796875 51.625 33 
Q 55.609375 28.21875 55.609375 21.1875 
Q 55.609375 10.40625 48.1875 4.484375 
Q 40.765625 -1.421875 27.09375 -1.421875 
Q 22.515625 -1.421875 17.65625 -0.515625 
Q 12.796875 0.390625 7.625 2.203125 
L 7.625 11.71875 
Q 11.71875 9.328125 16.59375 8.109375 
Q 21.484375 6.890625 26.8125 6.890625 
Q 36.078125 6.890625 40.9375 10.546875 
Q 45.796875 14.203125 45.796875 21.1875 
Q 45.796875 27.640625 41.28125 31.265625 
Q 36.765625 34.90625 28.71875 34.90625 
L 20.21875 34.90625 
L 20.21875 43.015625 
L 29.109375 43.015625 
Q 36.375 43.015625 40.234375 45.921875 
Q 44.09375 48.828125 44.09375 54.296875 
Q 44.09375 59.90625 40.109375 62.90625 
Q 36.140625 65.921875 28.71875 65.921875 
Q 24.65625 65.921875 20.015625 65.03125 
Q 15.375 64.15625 9.8125 62.3125 
L 9.8125 71.09375 
Q 15.4375 72.65625 20.34375 73.4375 
Q 25.25 74.21875 29.59375 74.21875 
Q 40.828125 74.21875 47.359375 69.109375 
Q 53.90625 64.015625 53.90625 55.328125 
Q 53.90625 49.265625 50.4375 45.09375 
Q 46.96875 40.921875 40.578125 39.3125 
z
" id="DejaVuSans-51"/>
     </defs>
     <g transform="translate(360.980938 53.154687)scale(0.1 -0.1)">
      <use transform="translate(0 0.765625)" xlink:href="#DejaVuSans-Oblique-102"/>
      <use transform="translate(54.6875 0.765625)" xlink:href="#DejaVuSans-8804"/>
      <use transform="translate(157.958984 0.765625)" xlink:href="#DejaVuSans-49"/>
      <use transform="translate(221.582031 0.765625)" xlink:href="#DejaVuSans-48"/>
      <use transform="translate(286.162109 39.046875)scale(0.7)" xlink:href="#DejaVuSans-8722"/>
      <use transform="translate(344.814453 39.046875)scale(0.7)" xlink:href="#DejaVuSans-51"/>
     </g>
    </g>
    <g id="line2d_23">
     <path d="M 332.980938 64.332812 
L 352.980938 64.332812 
" style="fill:none;stroke:#d62728;stroke-linecap:square;stroke-width:1.5;"/>
    </g>
    <g id="line2d_24"/>
    <g id="text_11">
     <!-- $f\leq10^{-4}$ -->
     <defs>
      <path d="M 37.796875 64.3125 
L 12.890625 25.390625 
L 37.796875 25.390625 
z
M 35.203125 72.90625 
L 47.609375 72.90625 
L 47.609375 25.390625 
L 58.015625 25.390625 
L 58.015625 17.1875 
L 47.609375 17.1875 
L 47.609375 0 
L 37.796875 0 
L 37.796875 17.1875 
L 4.890625 17.1875 
L 4.890625 26.703125 
z
" id="DejaVuSans-52"/>
     </defs>
     <g transform="translate(360.980938 67.832812)scale(0.1 -0.1)">
      <use transform="translate(0 0.684375)" xlink:href="#DejaVuSans-Oblique-102"/>
      <use transform="translate(54.6875 0.684375)" xlink:href="#DejaVuSans-8804"/>
      <use transform="translate(157.958984 0.684375)" xlink:href="#DejaVuSans-49"/>
      <use transform="translate(221.582031 0.684375)" xlink:href="#DejaVuSans-48"/>
      <use transform="translate(286.162109 38.965625)scale(0.7)" xlink:href="#DejaVuSans-8722"/>
      <use transform="translate(344.814453 38.965625)scale(0.7)" xlink:href="#DejaVuSans-52"/>
     </g>
    </g>
    <g id="line2d_25">
     <path d="M 332.980938 79.010937 
L 352.980938 79.010937 
" style="fill:none;stroke:#9467bd;stroke-linecap:square;stroke-width:1.5;"/>
    </g>
    <g id="line2d_26"/>
    <g id="text_12">
     <!-- $f\leq10^{-5}$ -->
     <g transform="translate(360.980938 82.510937)scale(0.1 -0.1)">
      <use transform="translate(0 0.684375)" xlink:href="#DejaVuSans-Oblique-102"/>
      <use transform="translate(54.6875 0.684375)" xlink:href="#DejaVuSans-8804"/>
      <use transform="translate(157.958984 0.684375)" xlink:href="#DejaVuSans-49"/>
      <use transform="translate(221.582031 0.684375)" xlink:href="#DejaVuSans-48"/>
      <use transform="translate(286.162109 38.965625)scale(0.7)" xlink:href="#DejaVuSans-8722"/>
      <use transform="translate(344.814453 38.965625)scale(0.7)" xlink:href="#DejaVuSans-53"/>
     </g>
    </g>
   </g>
  </g>
  <g id="axes_2">
   <g id="patch_8">
    <path d="M 52.160938 273.312 
L 409.280938 273.312 
L 409.280938 140.256 
L 52.160938 140.256 
z
" style="fill:#ffffff;"/>
   </g>
   <g id="matplotlib.axis_3">
    <g id="xtick_7">
     <g id="line2d_27">
      <g>
       <use style="stroke:#000000;stroke-width:0.8;" x="103.491453" xlink:href="#m88badf49a6" y="273.312"/>
      </g>
     </g>
     <g id="text_13">
      <!-- 1 -->
      <g transform="translate(100.310203 287.910437)scale(0.1 -0.1)">
       <use xlink:href="#DejaVuSans-49"/>
      </g>
     </g>
    </g>
    <g id="xtick_8">
     <g id="line2d_28">
      <g>
       <use style="stroke:#000000;stroke-width:0.8;" x="161.987768" xlink:href="#m88badf49a6" y="273.312"/>
      </g>
     </g>
     <g id="text_14">
      <!-- 2 -->
      <g transform="translate(158.806518 287.910437)scale(0.1 -0.1)">
       <use xlink:href="#DejaVuSans-50"/>
      </g>
     </g>
    </g>
    <g id="xtick_9">
     <g id="line2d_29">
      <g>
       <use style="stroke:#000000;stroke-width:0.8;" x="220.484082" xlink:href="#m88badf49a6" y="273.312"/>
      </g>
     </g>
     <g id="text_15">
      <!-- 3 -->
      <g transform="translate(217.302832 287.910437)scale(0.1 -0.1)">
       <use xlink:href="#DejaVuSans-51"/>
      </g>
     </g>
    </g>
    <g id="xtick_10">
     <g id="line2d_30">
      <g>
       <use style="stroke:#000000;stroke-width:0.8;" x="278.980397" xlink:href="#m88badf49a6" y="273.312"/>
      </g>
     </g>
     <g id="text_16">
      <!-- 4 -->
      <g transform="translate(275.799147 287.910437)scale(0.1 -0.1)">
       <use xlink:href="#DejaVuSans-52"/>
      </g>
     </g>
    </g>
    <g id="xtick_11">
     <g id="line2d_31">
      <g>
       <use style="stroke:#000000;stroke-width:0.8;" x="337.476711" xlink:href="#m88badf49a6" y="273.312"/>
      </g>
     </g>
     <g id="text_17">
      <!-- 5 -->
      <g transform="translate(334.295461 287.910437)scale(0.1 -0.1)">
       <use xlink:href="#DejaVuSans-53"/>
      </g>
     </g>
    </g>
    <g id="xtick_12">
     <g id="line2d_32">
      <g>
       <use style="stroke:#000000;stroke-width:0.8;" x="395.973026" xlink:href="#m88badf49a6" y="273.312"/>
      </g>
     </g>
     <g id="text_18">
      <!-- 6 -->
      <defs>
       <path d="M 33.015625 40.375 
Q 26.375 40.375 22.484375 35.828125 
Q 18.609375 31.296875 18.609375 23.390625 
Q 18.609375 15.53125 22.484375 10.953125 
Q 26.375 6.390625 33.015625 6.390625 
Q 39.65625 6.390625 43.53125 10.953125 
Q 47.40625 15.53125 47.40625 23.390625 
Q 47.40625 31.296875 43.53125 35.828125 
Q 39.65625 40.375 33.015625 40.375 
z
M 52.59375 71.296875 
L 52.59375 62.3125 
Q 48.875 64.0625 45.09375 64.984375 
Q 41.3125 65.921875 37.59375 65.921875 
Q 27.828125 65.921875 22.671875 59.328125 
Q 17.53125 52.734375 16.796875 39.40625 
Q 19.671875 43.65625 24.015625 45.921875 
Q 28.375 48.1875 33.59375 48.1875 
Q 44.578125 48.1875 50.953125 41.515625 
Q 57.328125 34.859375 57.328125 23.390625 
Q 57.328125 12.15625 50.6875 5.359375 
Q 44.046875 -1.421875 33.015625 -1.421875 
Q 20.359375 -1.421875 13.671875 8.265625 
Q 6.984375 17.96875 6.984375 36.375 
Q 6.984375 53.65625 15.1875 63.9375 
Q 23.390625 74.21875 37.203125 74.21875 
Q 40.921875 74.21875 44.703125 73.484375 
Q 48.484375 72.75 52.59375 71.296875 
z
" id="DejaVuSans-54"/>
      </defs>
      <g transform="translate(392.791776 287.910437)scale(0.1 -0.1)">
       <use xlink:href="#DejaVuSans-54"/>
      </g>
     </g>
    </g>
    <g id="text_19">
     <!-- Temperature -->
     <g transform="translate(199.051406 301.588562)scale(0.1 -0.1)">
      <use xlink:href="#DejaVuSans-84"/>
      <use x="44.083984" xlink:href="#DejaVuSans-101"/>
      <use x="105.607422" xlink:href="#DejaVuSans-109"/>
      <use x="203.019531" xlink:href="#DejaVuSans-112"/>
      <use x="266.496094" xlink:href="#DejaVuSans-101"/>
      <use x="328.019531" xlink:href="#DejaVuSans-114"/>
      <use x="369.132812" xlink:href="#DejaVuSans-97"/>
      <use x="430.412109" xlink:href="#DejaVuSans-116"/>
      <use x="469.621094" xlink:href="#DejaVuSans-117"/>
      <use x="533" xlink:href="#DejaVuSans-114"/>
      <use x="571.863281" xlink:href="#DejaVuSans-101"/>
     </g>
    </g>
   </g>
   <g id="matplotlib.axis_4">
    <g id="ytick_6">
     <g id="line2d_33">
      <g>
       <use style="stroke:#000000;stroke-width:0.8;" x="52.160938" xlink:href="#m37bfe2a3fb" y="271.532685"/>
      </g>
     </g>
     <g id="text_20">
      <!-- −0.6 -->
      <g transform="translate(20.878125 275.331903)scale(0.1 -0.1)">
       <use xlink:href="#DejaVuSans-8722"/>
       <use x="83.789062" xlink:href="#DejaVuSans-48"/>
       <use x="147.412109" xlink:href="#DejaVuSans-46"/>
       <use x="179.199219" xlink:href="#DejaVuSans-54"/>
      </g>
     </g>
    </g>
    <g id="ytick_7">
     <g id="line2d_34">
      <g>
       <use style="stroke:#000000;stroke-width:0.8;" x="52.160938" xlink:href="#m37bfe2a3fb" y="240.385359"/>
      </g>
     </g>
     <g id="text_21">
      <!-- −0.4 -->
      <g transform="translate(20.878125 244.184578)scale(0.1 -0.1)">
       <use xlink:href="#DejaVuSans-8722"/>
       <use x="83.789062" xlink:href="#DejaVuSans-48"/>
       <use x="147.412109" xlink:href="#DejaVuSans-46"/>
       <use x="179.199219" xlink:href="#DejaVuSans-52"/>
      </g>
     </g>
    </g>
    <g id="ytick_8">
     <g id="line2d_35">
      <g>
       <use style="stroke:#000000;stroke-width:0.8;" x="52.160938" xlink:href="#m37bfe2a3fb" y="209.238034"/>
      </g>
     </g>
     <g id="text_22">
      <!-- −0.2 -->
      <g transform="translate(20.878125 213.037252)scale(0.1 -0.1)">
       <use xlink:href="#DejaVuSans-8722"/>
       <use x="83.789062" xlink:href="#DejaVuSans-48"/>
       <use x="147.412109" xlink:href="#DejaVuSans-46"/>
       <use x="179.199219" xlink:href="#DejaVuSans-50"/>
      </g>
     </g>
    </g>
    <g id="ytick_9">
     <g id="line2d_36">
      <g>
       <use style="stroke:#000000;stroke-width:0.8;" x="52.160938" xlink:href="#m37bfe2a3fb" y="178.090708"/>
      </g>
     </g>
     <g id="text_23">
      <!-- 0.0 -->
      <g transform="translate(29.257813 181.889927)scale(0.1 -0.1)">
       <use xlink:href="#DejaVuSans-48"/>
       <use x="63.623047" xlink:href="#DejaVuSans-46"/>
       <use x="95.410156" xlink:href="#DejaVuSans-48"/>
      </g>
     </g>
    </g>
    <g id="ytick_10">
     <g id="line2d_37">
      <g>
       <use style="stroke:#000000;stroke-width:0.8;" x="52.160938" xlink:href="#m37bfe2a3fb" y="146.943383"/>
      </g>
     </g>
     <g id="text_24">
      <!-- 0.2 -->
      <g transform="translate(29.257813 150.742601)scale(0.1 -0.1)">
       <use xlink:href="#DejaVuSans-48"/>
       <use x="63.623047" xlink:href="#DejaVuSans-46"/>
       <use x="95.410156" xlink:href="#DejaVuSans-50"/>
      </g>
     </g>
    </g>
    <g id="text_25">
     <!-- Short-range order parameter -->
     <defs>
      <path d="M 53.515625 70.515625 
L 53.515625 60.890625 
Q 47.90625 63.578125 42.921875 64.890625 
Q 37.9375 66.21875 33.296875 66.21875 
Q 25.25 66.21875 20.875 63.09375 
Q 16.5 59.96875 16.5 54.203125 
Q 16.5 49.359375 19.40625 46.890625 
Q 22.3125 44.4375 30.421875 42.921875 
L 36.375 41.703125 
Q 47.40625 39.59375 52.65625 34.296875 
Q 57.90625 29 57.90625 20.125 
Q 57.90625 9.515625 50.796875 4.046875 
Q 43.703125 -1.421875 29.984375 -1.421875 
Q 24.8125 -1.421875 18.96875 -0.25 
Q 13.140625 0.921875 6.890625 3.21875 
L 6.890625 13.375 
Q 12.890625 10.015625 18.65625 8.296875 
Q 24.421875 6.59375 29.984375 6.59375 
Q 38.421875 6.59375 43.015625 9.90625 
Q 47.609375 13.234375 47.609375 19.390625 
Q 47.609375 24.75 44.3125 27.78125 
Q 41.015625 30.8125 33.5 32.328125 
L 27.484375 33.5 
Q 16.453125 35.6875 11.515625 40.375 
Q 6.59375 45.0625 6.59375 53.421875 
Q 6.59375 63.09375 13.40625 68.65625 
Q 20.21875 74.21875 32.171875 74.21875 
Q 37.3125 74.21875 42.625 73.28125 
Q 47.953125 72.359375 53.515625 70.515625 
z
" id="DejaVuSans-83"/>
      <path d="M 54.890625 33.015625 
L 54.890625 0 
L 45.90625 0 
L 45.90625 32.71875 
Q 45.90625 40.484375 42.875 44.328125 
Q 39.84375 48.1875 33.796875 48.1875 
Q 26.515625 48.1875 22.3125 43.546875 
Q 18.109375 38.921875 18.109375 30.90625 
L 18.109375 0 
L 9.078125 0 
L 9.078125 75.984375 
L 18.109375 75.984375 
L 18.109375 46.1875 
Q 21.34375 51.125 25.703125 53.5625 
Q 30.078125 56 35.796875 56 
Q 45.21875 56 50.046875 50.171875 
Q 54.890625 44.34375 54.890625 33.015625 
z
" id="DejaVuSans-104"/>
      <path d="M 30.609375 48.390625 
Q 23.390625 48.390625 19.1875 42.75 
Q 14.984375 37.109375 14.984375 27.296875 
Q 14.984375 17.484375 19.15625 11.84375 
Q 23.34375 6.203125 30.609375 6.203125 
Q 37.796875 6.203125 41.984375 11.859375 
Q 46.1875 17.53125 46.1875 27.296875 
Q 46.1875 37.015625 41.984375 42.703125 
Q 37.796875 48.390625 30.609375 48.390625 
z
M 30.609375 56 
Q 42.328125 56 49.015625 48.375 
Q 55.71875 40.765625 55.71875 27.296875 
Q 55.71875 13.875 49.015625 6.21875 
Q 42.328125 -1.421875 30.609375 -1.421875 
Q 18.84375 -1.421875 12.171875 6.21875 
Q 5.515625 13.875 5.515625 27.296875 
Q 5.515625 40.765625 12.171875 48.375 
Q 18.84375 56 30.609375 56 
z
" id="DejaVuSans-111"/>
      <path d="M 4.890625 31.390625 
L 31.203125 31.390625 
L 31.203125 23.390625 
L 4.890625 23.390625 
z
" id="DejaVuSans-45"/>
      <path d="M 54.890625 33.015625 
L 54.890625 0 
L 45.90625 0 
L 45.90625 32.71875 
Q 45.90625 40.484375 42.875 44.328125 
Q 39.84375 48.1875 33.796875 48.1875 
Q 26.515625 48.1875 22.3125 43.546875 
Q 18.109375 38.921875 18.109375 30.90625 
L 18.109375 0 
L 9.078125 0 
L 9.078125 54.6875 
L 18.109375 54.6875 
L 18.109375 46.1875 
Q 21.34375 51.125 25.703125 53.5625 
Q 30.078125 56 35.796875 56 
Q 45.21875 56 50.046875 50.171875 
Q 54.890625 44.34375 54.890625 33.015625 
z
" id="DejaVuSans-110"/>
      <path d="M 45.40625 27.984375 
Q 45.40625 37.75 41.375 43.109375 
Q 37.359375 48.484375 30.078125 48.484375 
Q 22.859375 48.484375 18.828125 43.109375 
Q 14.796875 37.75 14.796875 27.984375 
Q 14.796875 18.265625 18.828125 12.890625 
Q 22.859375 7.515625 30.078125 7.515625 
Q 37.359375 7.515625 41.375 12.890625 
Q 45.40625 18.265625 45.40625 27.984375 
z
M 54.390625 6.78125 
Q 54.390625 -7.171875 48.1875 -13.984375 
Q 42 -20.796875 29.203125 -20.796875 
Q 24.46875 -20.796875 20.265625 -20.09375 
Q 16.0625 -19.390625 12.109375 -17.921875 
L 12.109375 -9.1875 
Q 16.0625 -11.328125 19.921875 -12.34375 
Q 23.78125 -13.375 27.78125 -13.375 
Q 36.625 -13.375 41.015625 -8.765625 
Q 45.40625 -4.15625 45.40625 5.171875 
L 45.40625 9.625 
Q 42.625 4.78125 38.28125 2.390625 
Q 33.9375 0 27.875 0 
Q 17.828125 0 11.671875 7.65625 
Q 5.515625 15.328125 5.515625 27.984375 
Q 5.515625 40.671875 11.671875 48.328125 
Q 17.828125 56 27.875 56 
Q 33.9375 56 38.28125 53.609375 
Q 42.625 51.21875 45.40625 46.390625 
L 45.40625 54.6875 
L 54.390625 54.6875 
z
" id="DejaVuSans-103"/>
      <path d="M 45.40625 46.390625 
L 45.40625 75.984375 
L 54.390625 75.984375 
L 54.390625 0 
L 45.40625 0 
L 45.40625 8.203125 
Q 42.578125 3.328125 38.25 0.953125 
Q 33.9375 -1.421875 27.875 -1.421875 
Q 17.96875 -1.421875 11.734375 6.484375 
Q 5.515625 14.40625 5.515625 27.296875 
Q 5.515625 40.1875 11.734375 48.09375 
Q 17.96875 56 27.875 56 
Q 33.9375 56 38.25 53.625 
Q 42.578125 51.265625 45.40625 46.390625 
z
M 14.796875 27.296875 
Q 14.796875 17.390625 18.875 11.75 
Q 22.953125 6.109375 30.078125 6.109375 
Q 37.203125 6.109375 41.296875 11.75 
Q 45.40625 17.390625 45.40625 27.296875 
Q 45.40625 37.203125 41.296875 42.84375 
Q 37.203125 48.484375 30.078125 48.484375 
Q 22.953125 48.484375 18.875 42.84375 
Q 14.796875 37.203125 14.796875 27.296875 
z
" id="DejaVuSans-100"/>
     </defs>
     <g transform="translate(14.798438 279.453531)rotate(-90)scale(0.1 -0.1)">
      <use xlink:href="#DejaVuSans-83"/>
      <use x="63.476562" xlink:href="#DejaVuSans-104"/>
      <use x="126.855469" xlink:href="#DejaVuSans-111"/>
      <use x="188.037109" xlink:href="#DejaVuSans-114"/>
      <use x="229.150391" xlink:href="#DejaVuSans-116"/>
      <use x="268.359375" xlink:href="#DejaVuSans-45"/>
      <use x="304.443359" xlink:href="#DejaVuSans-114"/>
      <use x="345.556641" xlink:href="#DejaVuSans-97"/>
      <use x="406.835938" xlink:href="#DejaVuSans-110"/>
      <use x="470.214844" xlink:href="#DejaVuSans-103"/>
      <use x="533.691406" xlink:href="#DejaVuSans-101"/>
      <use x="595.214844" xlink:href="#DejaVuSans-32"/>
      <use x="627.001953" xlink:href="#DejaVuSans-111"/>
      <use x="688.183594" xlink:href="#DejaVuSans-114"/>
      <use x="727.546875" xlink:href="#DejaVuSans-100"/>
      <use x="791.023438" xlink:href="#DejaVuSans-101"/>
      <use x="852.546875" xlink:href="#DejaVuSans-114"/>
      <use x="893.660156" xlink:href="#DejaVuSans-32"/>
      <use x="925.447266" xlink:href="#DejaVuSans-112"/>
      <use x="988.923828" xlink:href="#DejaVuSans-97"/>
      <use x="1050.203125" xlink:href="#DejaVuSans-114"/>
      <use x="1091.316406" xlink:href="#DejaVuSans-97"/>
      <use x="1152.595703" xlink:href="#DejaVuSans-109"/>
      <use x="1250.007812" xlink:href="#DejaVuSans-101"/>
      <use x="1311.53125" xlink:href="#DejaVuSans-116"/>
      <use x="1350.740234" xlink:href="#DejaVuSans-101"/>
      <use x="1412.263672" xlink:href="#DejaVuSans-114"/>
     </g>
    </g>
   </g>
   <g id="line2d_38">
    <path clip-path="url(#pba88ead7bb)" d="M 68.393665 266.717144 
L 71.31848 266.717143 
L 74.243296 266.717126 
L 77.168112 266.716982 
L 80.092928 266.716131 
L 83.017743 266.712305 
L 85.942559 266.698445 
L 88.867375 266.656038 
L 91.792191 266.542849 
L 94.717006 266.273449 
L 97.641822 265.694492 
L 100.566638 264.567184 
L 103.491453 262.589038 
L 106.416269 259.499431 
L 109.341085 255.266719 
L 112.265901 250.225635 
L 115.190716 244.98351 
L 118.115532 240.129013 
L 121.040348 236.002677 
L 123.965164 232.676546 
L 126.889979 230.060146 
L 129.814795 228.007554 
L 132.739611 226.377976 
L 135.664426 225.057649 
L 138.589242 223.961925 
L 141.514058 223.03029 
L 144.438874 222.220218 
L 147.363689 221.501945 
L 150.288505 220.854541 
L 153.213321 220.263145 
L 156.138137 219.717052 
L 159.062952 219.20842 
L 161.987768 218.731394 
L 164.912584 218.28151 
L 167.837399 217.855294 
L 170.762215 217.449982 
L 173.687031 217.063335 
L 176.611847 216.693499 
L 179.536662 216.338918 
L 182.461478 215.998264 
L 185.386294 215.670389 
L 188.311109 215.354294 
L 191.235925 215.049097 
L 194.160741 214.754014 
L 197.085557 214.468349 
L 200.010372 214.191476 
L 202.935188 213.922832 
L 205.860004 213.661909 
L 208.78482 213.408244 
L 211.709635 213.161421 
L 214.634451 212.921058 
L 217.559267 212.686808 
L 220.484082 212.458352 
L 223.408898 212.235401 
L 226.333714 212.017686 
L 229.25853 211.804964 
L 232.183345 211.597009 
L 235.108161 211.393611 
L 238.032977 211.194578 
L 240.957793 210.999733 
L 243.882608 210.808909 
L 246.807424 210.621954 
L 249.73224 210.438723 
L 252.657055 210.259083 
L 255.581871 210.082909 
L 258.506687 209.910084 
L 261.431503 209.740498 
L 264.356318 209.574048 
L 267.281134 209.410636 
L 270.20595 209.25017 
L 273.130766 209.092564 
L 276.055581 208.937736 
L 278.980397 208.785606 
L 281.905213 208.6361 
L 284.830028 208.489149 
L 287.754844 208.344684 
L 290.67966 208.20264 
L 293.604476 208.062957 
L 296.529291 207.925576 
L 299.454107 207.790438 
L 302.378923 207.657491 
L 305.303738 207.526682 
L 308.228554 207.39796 
L 311.15337 207.271278 
L 314.078186 207.146588 
L 317.003001 207.023845 
L 319.927817 206.903006 
L 322.852633 206.784029 
L 325.777449 206.666873 
L 328.702264 206.551498 
L 331.62708 206.437866 
L 334.551896 206.32594 
L 337.476711 206.215684 
L 340.401527 206.107064 
L 343.326343 206.000044 
L 346.251159 205.894593 
L 349.175974 205.790678 
L 352.10079 205.688268 
L 355.025606 205.587333 
L 357.950422 205.487843 
L 360.875237 205.38977 
L 363.800053 205.293085 
L 366.724869 205.197762 
L 369.649684 205.103773 
L 372.5745 205.011093 
L 375.499316 204.919696 
L 378.424132 204.829559 
L 381.348947 204.740656 
L 384.273763 204.652965 
L 387.198579 204.566463 
L 390.123395 204.481127 
L 393.04821 204.396935 
" style="fill:none;stroke:#1f77b4;stroke-linecap:square;stroke-width:1.5;"/>
   </g>
   <g id="line2d_39">
    <path clip-path="url(#pba88ead7bb)" d="M 68.393665 159.841333 
L 71.31848 159.841332 
L 74.243296 159.84131 
L 77.168112 159.841128 
L 80.092928 159.840049 
L 83.017743 159.835193 
L 85.942559 159.817573 
L 88.867375 159.763666 
L 91.792191 159.6205 
L 94.717006 159.285467 
L 97.641822 158.594277 
L 100.566638 157.354204 
L 103.491453 155.465185 
L 106.416269 153.089592 
L 109.341085 150.697542 
L 112.265901 148.855107 
L 115.190716 147.898212 
L 118.115532 147.794528 
L 121.040348 148.275219 
L 123.965164 149.042729 
L 126.889979 149.885191 
L 129.814795 150.689268 
L 132.739611 151.410261 
L 135.664426 152.040377 
L 138.589242 152.587743 
L 141.514058 153.065298 
L 144.438874 153.485852 
L 147.363689 153.86031 
L 150.288505 154.197349 
L 153.213321 154.503635 
L 156.138137 154.784216 
L 159.062952 155.042892 
L 161.987768 155.282535 
L 164.912584 155.505338 
L 167.837399 155.713002 
L 170.762215 155.906873 
L 173.687031 156.088046 
L 176.611847 156.257429 
L 179.536662 156.415803 
L 182.461478 156.563851 
L 185.386294 156.702187 
L 188.311109 156.831372 
L 191.235925 156.951928 
L 194.160741 157.064343 
L 197.085557 157.169078 
L 200.010372 157.266572 
L 202.935188 157.357244 
L 205.860004 157.441491 
L 208.78482 157.519695 
L 211.709635 157.592219 
L 214.634451 157.659408 
L 217.559267 157.721594 
L 220.484082 157.779088 
L 223.408898 157.83219 
L 226.333714 157.881181 
L 229.25853 157.92633 
L 232.183345 157.967888 
L 235.108161 158.006095 
L 238.032977 158.041176 
L 240.957793 158.073342 
L 243.882608 158.102794 
L 246.807424 158.129719 
L 249.73224 158.154292 
L 252.657055 158.176679 
L 255.581871 158.197034 
L 258.506687 158.215501 
L 261.431503 158.232217 
L 264.356318 158.247308 
L 267.281134 158.260892 
L 270.20595 158.27308 
L 273.130766 158.283974 
L 276.055581 158.293671 
L 278.980397 158.30226 
L 281.905213 158.309825 
L 284.830028 158.316444 
L 287.754844 158.322189 
L 290.67966 158.327128 
L 293.604476 158.331323 
L 296.529291 158.334833 
L 299.454107 158.337713 
L 302.378923 158.340012 
L 305.303738 158.341777 
L 308.228554 158.343053 
L 311.15337 158.343879 
L 314.078186 158.344294 
L 317.003001 158.344333 
L 319.927817 158.344027 
L 322.852633 158.343407 
L 325.777449 158.342501 
L 328.702264 158.341334 
L 331.62708 158.339931 
L 334.551896 158.338315 
L 337.476711 158.336505 
L 340.401527 158.334521 
L 343.326343 158.33238 
L 346.251159 158.330099 
L 349.175974 158.327694 
L 352.10079 158.325177 
L 355.025606 158.322563 
L 357.950422 158.319862 
L 360.875237 158.317087 
L 363.800053 158.314248 
L 366.724869 158.311353 
L 369.649684 158.308412 
L 372.5745 158.305433 
L 375.499316 158.302422 
L 378.424132 158.299388 
L 381.348947 158.296335 
L 384.273763 158.293271 
L 387.198579 158.2902 
L 390.123395 158.287126 
L 393.04821 158.284055 
" style="fill:none;stroke:#1f77b4;stroke-dasharray:5.55,2.4;stroke-dashoffset:0;stroke-width:1.5;"/>
   </g>
   <g id="line2d_40">
    <path clip-path="url(#pba88ead7bb)" d="M 68.393665 265.151809 
L 71.31848 265.151809 
L 74.243296 265.151809 
L 77.168112 265.151808 
L 80.092928 265.151806 
L 83.017743 265.151795 
L 85.942559 265.151758 
L 88.867375 265.151649 
L 91.792191 265.151372 
L 94.717006 265.150745 
L 97.641822 265.149457 
L 100.566638 265.147015 
L 103.491453 265.142685 
L 106.416269 265.13543 
L 109.341085 265.123849 
L 112.265901 265.106107 
L 115.190716 265.079882 
L 118.115532 265.042298 
L 121.040348 264.989871 
L 123.965164 264.918465 
L 126.889979 264.823247 
L 129.814795 264.698669 
L 132.739611 264.538469 
L 135.664426 264.335706 
L 138.589242 264.08283 
L 141.514058 263.771819 
L 144.438874 263.394358 
L 147.363689 262.942099 
L 150.288505 262.406977 
L 153.213321 261.781589 
L 156.138137 261.059612 
L 159.062952 260.236236 
L 161.987768 259.308575 
L 164.912584 258.276025 
L 167.837399 257.140513 
L 170.762215 255.906613 
L 173.687031 254.581504 
L 176.611847 253.17476 
L 179.536662 251.697988 
L 182.461478 250.164337 
L 185.386294 248.587939 
L 188.311109 246.983307 
L 191.235925 245.364769 
L 194.160741 243.745958 
L 197.085557 242.139398 
L 200.010372 240.556208 
L 202.935188 239.005918 
L 205.860004 237.496388 
L 208.78482 236.033828 
L 211.709635 234.622881 
L 214.634451 233.266759 
L 217.559267 231.96741 
L 220.484082 230.725699 
L 223.408898 229.541592 
L 226.333714 228.414324 
L 229.25853 227.342563 
L 232.183345 226.324547 
L 235.108161 225.358205 
L 238.032977 224.441262 
L 240.957793 223.571316 
L 243.882608 222.745909 
L 246.807424 221.962579 
L 249.73224 221.2189 
L 252.657055 220.512509 
L 255.581871 219.841131 
L 258.506687 219.20259 
L 261.431503 218.59482 
L 264.356318 218.01587 
L 267.281134 217.463903 
L 270.20595 216.937198 
L 273.130766 216.434145 
L 276.055581 215.953242 
L 278.980397 215.493089 
L 281.905213 215.052385 
L 284.830028 214.62992 
L 287.754844 214.224572 
L 290.67966 213.835298 
L 293.604476 213.461129 
L 296.529291 213.101169 
L 299.454107 212.754583 
L 302.378923 212.420599 
L 305.303738 212.098499 
L 308.228554 211.787614 
L 311.15337 211.487327 
L 314.078186 211.197059 
L 317.003001 210.916274 
L 319.927817 210.644474 
L 322.852633 210.381193 
L 325.777449 210.125997 
L 328.702264 209.87848 
L 331.62708 209.638266 
L 334.551896 209.405 
L 337.476711 209.178352 
L 340.401527 208.958013 
L 343.326343 208.743692 
L 346.251159 208.535117 
L 349.175974 208.332033 
L 352.10079 208.1342 
L 355.025606 207.941393 
L 357.950422 207.753398 
L 360.875237 207.570018 
L 363.800053 207.391062 
L 366.724869 207.216353 
L 369.649684 207.045724 
L 372.5745 206.879015 
L 375.499316 206.716077 
L 378.424132 206.556767 
L 381.348947 206.400952 
L 384.273763 206.248504 
L 387.198579 206.099301 
L 390.123395 205.953229 
L 393.04821 205.810179 
" style="fill:none;stroke:#ff7f0e;stroke-linecap:square;stroke-width:1.5;"/>
   </g>
   <g id="line2d_41">
    <path clip-path="url(#pba88ead7bb)" d="M 68.393665 161.240398 
L 71.31848 161.240398 
L 74.243296 161.240398 
L 77.168112 161.240398 
L 80.092928 161.240395 
L 83.017743 161.240381 
L 85.942559 161.240335 
L 88.867375 161.240199 
L 91.792191 161.239853 
L 94.717006 161.23907 
L 97.641822 161.237458 
L 100.566638 161.234395 
L 103.491453 161.228953 
L 106.416269 161.219814 
L 109.341085 161.205189 
L 112.265901 161.182736 
L 115.190716 161.149485 
L 118.115532 161.101775 
L 121.040348 161.035216 
L 123.965164 160.944684 
L 126.889979 160.824369 
L 129.814795 160.667892 
L 132.739611 160.468508 
L 135.664426 160.219412 
L 138.589242 159.914145 
L 141.514058 159.547087 
L 144.438874 159.114004 
L 147.363689 158.612597 
L 150.288505 158.042988 
L 153.213321 157.408072 
L 156.138137 156.713686 
L 159.062952 155.968553 
L 161.987768 155.183999 
L 164.912584 154.373459 
L 167.837399 153.551818 
L 170.762215 152.734652 
L 173.687031 151.937419 
L 176.611847 151.174697 
L 179.536662 150.45951 
L 182.461478 149.802799 
L 185.386294 149.213068 
L 188.311109 148.696225 
L 191.235925 148.255587 
L 194.160741 147.892049 
L 197.085557 147.604364 
L 200.010372 147.389499 
L 202.935188 147.243023 
L 205.860004 147.159506 
L 208.78482 147.132879 
L 211.709635 147.156757 
L 214.634451 147.224707 
L 217.559267 147.330459 
L 220.484082 147.468061 
L 223.408898 147.631981 
L 226.333714 147.81718 
L 229.25853 148.019134 
L 232.183345 148.233842 
L 235.108161 148.457811 
L 238.032977 148.688027 
L 240.957793 148.921922 
L 243.882608 149.157326 
L 246.807424 149.392434 
L 249.73224 149.625758 
L 252.657055 149.856089 
L 255.581871 150.082458 
L 258.506687 150.304107 
L 261.431503 150.52045 
L 264.356318 150.731054 
L 267.281134 150.935611 
L 270.20595 151.133917 
L 273.130766 151.325853 
L 276.055581 151.511375 
L 278.980397 151.690492 
L 281.905213 151.863264 
L 284.830028 152.029783 
L 287.754844 152.190174 
L 290.67966 152.344583 
L 293.604476 152.493171 
L 296.529291 152.636113 
L 299.454107 152.773591 
L 302.378923 152.905792 
L 305.303738 153.032906 
L 308.228554 153.155123 
L 311.15337 153.272632 
L 314.078186 153.385619 
L 317.003001 153.494267 
L 319.927817 153.598755 
L 322.852633 153.699255 
L 325.777449 153.795936 
L 328.702264 153.888961 
L 331.62708 153.978486 
L 334.551896 154.064661 
L 337.476711 154.147632 
L 340.401527 154.227538 
L 343.326343 154.304511 
L 346.251159 154.378678 
L 349.175974 154.450162 
L 352.10079 154.519078 
L 355.025606 154.585538 
L 357.950422 154.649647 
L 360.875237 154.711508 
L 363.800053 154.771215 
L 366.724869 154.828862 
L 369.649684 154.884535 
L 372.5745 154.938318 
L 375.499316 154.99029 
L 378.424132 155.040528 
L 381.348947 155.089104 
L 384.273763 155.136086 
L 387.198579 155.181541 
L 390.123395 155.22553 
L 393.04821 155.268113 
" style="fill:none;stroke:#ff7f0e;stroke-dasharray:5.55,2.4;stroke-dashoffset:0;stroke-width:1.5;"/>
   </g>
   <g id="line2d_42">
    <path clip-path="url(#pba88ead7bb)" d="M 68.393665 265.869535 
L 71.31848 265.869535 
L 74.243296 265.869535 
L 77.168112 265.869534 
L 80.092928 265.869533 
L 83.017743 265.869526 
L 85.942559 265.869502 
L 88.867375 265.869431 
L 91.792191 265.869251 
L 94.717006 265.868845 
L 97.641822 265.868009 
L 100.566638 265.866425 
L 103.491453 265.863616 
L 106.416269 265.85891 
L 109.341085 265.851399 
L 112.265901 265.8399 
L 115.190716 265.822917 
L 118.115532 265.798604 
L 121.040348 265.764731 
L 123.965164 265.718657 
L 126.889979 265.657297 
L 129.814795 265.57711 
L 132.739611 265.474078 
L 135.664426 265.343706 
L 138.589242 265.181037 
L 141.514058 264.98068 
L 144.438874 264.736864 
L 147.363689 264.443522 
L 150.288505 264.094406 
L 153.213321 263.683232 
L 156.138137 263.203865 
L 159.062952 262.650532 
L 161.987768 262.018061 
L 164.912584 261.302137 
L 167.837399 260.49955 
L 170.762215 259.608436 
L 173.687031 258.628475 
L 176.611847 257.561034 
L 179.536662 256.409244 
L 182.461478 255.177982 
L 185.386294 253.87378 
L 188.311109 252.50464 
L 191.235925 251.079778 
L 194.160741 249.609316 
L 197.085557 248.103936 
L 200.010372 246.574532 
L 202.935188 245.031869 
L 205.860004 243.486285 
L 208.78482 241.947433 
L 211.709635 240.424087 
L 214.634451 238.924009 
L 217.559267 237.453872 
L 220.484082 236.019237 
L 223.408898 234.624576 
L 226.333714 233.273325 
L 229.25853 231.967973 
L 232.183345 230.710152 
L 235.108161 229.500747 
L 238.032977 228.340006 
L 240.957793 227.227637 
L 243.882608 226.162916 
L 246.807424 225.144769 
L 249.73224 224.171854 
L 252.657055 223.242632 
L 255.581871 222.355423 
L 258.506687 221.50846 
L 261.431503 220.699925 
L 264.356318 219.927985 
L 267.281134 219.19082 
L 270.20595 218.486639 
L 273.130766 217.8137 
L 276.055581 217.170317 
L 278.980397 216.554873 
L 281.905213 215.965821 
L 284.830028 215.401688 
L 287.754844 214.861078 
L 290.67966 214.34267 
L 293.604476 213.845217 
L 296.529291 213.367546 
L 299.454107 212.908552 
L 302.378923 212.467198 
L 305.303738 212.042512 
L 308.228554 211.633581 
L 311.15337 211.23955 
L 314.078186 210.859618 
L 317.003001 210.493036 
L 319.927817 210.1391 
L 322.852633 209.797154 
L 325.777449 209.46658 
L 328.702264 209.146803 
L 331.62708 208.83728 
L 334.551896 208.537506 
L 337.476711 208.247005 
L 340.401527 207.96533 
L 343.326343 207.692065 
L 346.251159 207.426814 
L 349.175974 207.169209 
L 352.10079 206.918904 
L 355.025606 206.67557 
L 357.950422 206.4389 
L 360.875237 206.208606 
L 363.800053 205.984413 
L 366.724869 205.766065 
L 369.649684 205.553317 
L 372.5745 205.345942 
L 375.499316 205.143722 
L 378.424132 204.946451 
L 381.348947 204.753936 
L 384.273763 204.565993 
L 387.198579 204.382447 
L 390.123395 204.203134 
L 393.04821 204.027897 
" style="fill:none;stroke:#2ca02c;stroke-linecap:square;stroke-width:1.5;"/>
   </g>
   <g id="line2d_43">
    <path clip-path="url(#pba88ead7bb)" d="M 68.393665 161.963776 
L 71.31848 161.963776 
L 74.243296 161.963776 
L 77.168112 161.963775 
L 80.092928 161.963773 
L 83.017743 161.963764 
L 85.942559 161.963731 
L 88.867375 161.963634 
L 91.792191 161.963388 
L 94.717006 161.962831 
L 97.641822 161.961685 
L 100.566638 161.959508 
L 103.491453 161.955641 
L 106.416269 161.949151 
L 109.341085 161.938777 
L 112.265901 161.92287 
L 115.190716 161.899343 
L 118.115532 161.865631 
L 121.040348 161.818657 
L 123.965164 161.754814 
L 126.889979 161.669976 
L 129.814795 161.559539 
L 132.739611 161.418495 
L 135.664426 161.241566 
L 138.589242 161.023381 
L 141.514058 160.758717 
L 144.438874 160.442784 
L 147.363689 160.071547 
L 150.288505 159.642062 
L 153.213321 159.152794 
L 156.138137 158.603894 
L 159.062952 157.997393 
L 161.987768 157.337298 
L 164.912584 156.629577 
L 167.837399 155.882026 
L 170.762215 155.104023 
L 173.687031 154.306193 
L 176.611847 153.500001 
L 179.536662 152.6973 
L 182.461478 151.909869 
L 185.386294 151.148956 
L 188.311109 150.42488 
L 191.235925 149.746688 
L 194.160741 149.121898 
L 197.085557 148.556344 
L 200.010372 148.054103 
L 202.935188 147.617527 
L 205.860004 147.24734 
L 208.78482 146.942805 
L 211.709635 146.701926 
L 214.634451 146.521681 
L 217.559267 146.398256 
L 220.484082 146.327273 
L 223.408898 146.304 
L 226.333714 146.323537 
L 229.25853 146.380968 
L 232.183345 146.471489 
L 235.108161 146.590501 
L 238.032977 146.733679 
L 240.957793 146.897021 
L 243.882608 147.07687 
L 246.807424 147.269925 
L 249.73224 147.473239 
L 252.657055 147.684209 
L 255.581871 147.900555 
L 258.506687 148.1203 
L 261.431503 148.341745 
L 264.356318 148.563443 
L 267.281134 148.784174 
L 270.20595 149.002921 
L 273.130766 149.218842 
L 276.055581 149.431255 
L 278.980397 149.639612 
L 281.905213 149.843483 
L 284.830028 150.04254 
L 287.754844 150.236541 
L 290.67966 150.425319 
L 293.604476 150.608767 
L 296.529291 150.786832 
L 299.454107 150.959504 
L 302.378923 151.126808 
L 305.303738 151.288799 
L 308.228554 151.445556 
L 311.15337 151.597177 
L 314.078186 151.743774 
L 317.003001 151.885471 
L 319.927817 152.0224 
L 322.852633 152.154701 
L 325.777449 152.282515 
L 328.702264 152.405987 
L 331.62708 152.525263 
L 334.551896 152.640488 
L 337.476711 152.751805 
L 340.401527 152.859358 
L 343.326343 152.963284 
L 346.251159 153.063721 
L 349.175974 153.160801 
L 352.10079 153.254653 
L 355.025606 153.345402 
L 357.950422 153.433169 
L 360.875237 153.51807 
L 363.800053 153.600218 
L 366.724869 153.679723 
L 369.649684 153.756687 
L 372.5745 153.831212 
L 375.499316 153.903393 
L 378.424132 153.973323 
L 381.348947 154.041091 
L 384.273763 154.106781 
L 387.198579 154.170475 
L 390.123395 154.23225 
L 393.04821 154.292181 
" style="fill:none;stroke:#2ca02c;stroke-dasharray:5.55,2.4;stroke-dashoffset:0;stroke-width:1.5;"/>
   </g>
   <g id="line2d_44">
    <path clip-path="url(#pba88ead7bb)" d="M 68.393665 266.903647 
L 71.31848 266.903647 
L 74.243296 266.903647 
L 77.168112 266.903646 
L 80.092928 266.903645 
L 83.017743 266.903639 
L 85.942559 266.903617 
L 88.867375 266.903552 
L 91.792191 266.903387 
L 94.717006 266.903015 
L 97.641822 266.90225 
L 100.566638 266.900802 
L 103.491453 266.898236 
L 106.416269 266.893942 
L 109.341085 266.887095 
L 112.265901 266.876623 
L 115.190716 266.861171 
L 118.115532 266.839072 
L 121.040348 266.808312 
L 123.965164 266.766508 
L 126.889979 266.710884 
L 129.814795 266.638247 
L 132.739611 266.544983 
L 135.664426 266.427046 
L 138.589242 266.279972 
L 141.514058 266.098902 
L 144.438874 265.878626 
L 147.363689 265.61365 
L 150.288505 265.298291 
L 153.213321 264.926797 
L 156.138137 264.493496 
L 159.062952 263.99298 
L 161.987768 263.420295 
L 164.912584 262.771163 
L 167.837399 262.042195 
L 170.762215 261.231103 
L 173.687031 260.33688 
L 176.611847 259.359944 
L 179.536662 258.302233 
L 182.461478 257.167224 
L 185.386294 255.959895 
L 188.311109 254.686604 
L 191.235925 253.354914 
L 194.160741 251.973355 
L 197.085557 250.551154 
L 200.010372 249.097946 
L 202.935188 247.623475 
L 205.860004 246.137325 
L 208.78482 244.648675 
L 211.709635 243.166091 
L 214.634451 241.697374 
L 217.559267 240.249452 
L 220.484082 238.82832 
L 223.408898 237.439022 
L 226.333714 236.085665 
L 229.25853 234.771469 
L 232.183345 233.498826 
L 235.108161 232.269387 
L 238.032977 231.08414 
L 240.957793 229.943503 
L 243.882608 228.847411 
L 246.807424 227.795395 
L 249.73224 226.786661 
L 252.657055 225.820158 
L 255.581871 224.894635 
L 258.506687 224.008699 
L 261.431503 223.160854 
L 264.356318 222.34954 
L 267.281134 221.573167 
L 270.20595 220.830136 
L 273.130766 220.118861 
L 276.055581 219.437784 
L 278.980397 218.785387 
L 281.905213 218.160201 
L 284.830028 217.560811 
L 287.754844 216.985864 
L 290.67966 216.434067 
L 293.604476 215.904189 
L 296.529291 215.395064 
L 299.454107 214.905586 
L 302.378923 214.43471 
L 305.303738 213.981451 
L 308.228554 213.544881 
L 311.15337 213.124123 
L 314.078186 212.718355 
L 317.003001 212.326802 
L 319.927817 211.948737 
L 322.852633 211.583475 
L 325.777449 211.230374 
L 328.702264 210.888829 
L 331.62708 210.558272 
L 334.551896 210.238171 
L 337.476711 209.928023 
L 340.401527 209.627356 
L 343.326343 209.335728 
L 346.251159 209.05272 
L 349.175974 208.77794 
L 352.10079 208.511017 
L 355.025606 208.251602 
L 357.950422 207.999367 
L 360.875237 207.754002 
L 363.800053 207.515214 
L 366.724869 207.282726 
L 369.649684 207.056278 
L 372.5745 206.835622 
L 375.499316 206.620525 
L 378.424132 206.410767 
L 381.348947 206.206137 
L 384.273763 206.006437 
L 387.198579 205.81148 
L 390.123395 205.621086 
L 393.04821 205.435087 
" style="fill:none;stroke:#d62728;stroke-linecap:square;stroke-width:1.5;"/>
   </g>
   <g id="line2d_45">
    <path clip-path="url(#pba88ead7bb)" d="M 68.393665 164.017379 
L 71.31848 164.017379 
L 74.243296 164.017379 
L 77.168112 164.017378 
L 80.092928 164.017376 
L 83.017743 164.017366 
L 85.942559 164.01733 
L 88.867375 164.017226 
L 91.792191 164.016962 
L 94.717006 164.016363 
L 97.641822 164.015133 
L 100.566638 164.012798 
L 103.491453 164.008656 
L 106.416269 164.001712 
L 109.341085 163.990622 
L 112.265901 163.973635 
L 115.190716 163.94854 
L 118.115532 163.912623 
L 121.040348 163.862635 
L 123.965164 163.794782 
L 126.889979 163.704739 
L 129.814795 163.5877 
L 132.739611 163.438468 
L 135.664426 163.251601 
L 138.589242 163.02161 
L 141.514058 162.743204 
L 144.438874 162.411587 
L 147.363689 162.022769 
L 150.288505 161.573887 
L 153.213321 161.063486 
L 156.138137 160.491753 
L 159.062952 159.860669 
L 161.987768 159.174062 
L 164.912584 158.437568 
L 167.837399 157.658491 
L 170.762215 156.845583 
L 173.687031 156.008749 
L 176.611847 155.158699 
L 179.536662 154.306573 
L 182.461478 153.463545 
L 185.386294 152.640444 
L 188.311109 151.847396 
L 191.235925 151.093518 
L 194.160741 150.386673 
L 197.085557 149.733293 
L 200.010372 149.138284 
L 202.935188 148.605001 
L 205.860004 148.135293 
L 208.78482 147.729607 
L 211.709635 147.387137 
L 214.634451 147.106002 
L 217.559267 146.883439 
L 220.484082 146.716002 
L 223.408898 146.599754 
L 226.333714 146.530441 
L 229.25853 146.503643 
L 232.183345 146.514913 
L 235.108161 146.559877 
L 238.032977 146.634322 
L 240.957793 146.734255 
L 243.882608 146.855947 
L 246.807424 146.995959 
L 249.73224 147.151153 
L 252.657055 147.318698 
L 255.581871 147.49606 
L 258.506687 147.68099 
L 261.431503 147.871512 
L 264.356318 148.065897 
L 267.281134 148.262649 
L 270.20595 148.460481 
L 273.130766 148.658293 
L 276.055581 148.855158 
L 278.980397 149.050295 
L 281.905213 149.243058 
L 284.830028 149.432917 
L 287.754844 149.619443 
L 290.67966 149.802295 
L 293.604476 149.98121 
L 296.529291 150.155987 
L 299.454107 150.326485 
L 302.378923 150.492609 
L 305.303738 150.654303 
L 308.228554 150.811548 
L 311.15337 150.96435 
L 314.078186 151.112741 
L 317.003001 151.256772 
L 319.927817 151.396509 
L 322.852633 151.532032 
L 325.777449 151.663428 
L 328.702264 151.790795 
L 331.62708 151.914235 
L 334.551896 152.033856 
L 337.476711 152.149765 
L 340.401527 152.262075 
L 343.326343 152.370897 
L 346.251159 152.476343 
L 349.175974 152.578523 
L 352.10079 152.677547 
L 355.025606 152.773523 
L 357.950422 152.866555 
L 360.875237 152.956748 
L 363.800053 153.044201 
L 366.724869 153.129012 
L 369.649684 153.211277 
L 372.5745 153.291087 
L 375.499316 153.368531 
L 378.424132 153.443695 
L 381.348947 153.516662 
L 384.273763 153.587512 
L 387.198579 153.656323 
L 390.123395 153.723168 
L 393.04821 153.788119 
" style="fill:none;stroke:#d62728;stroke-dasharray:5.55,2.4;stroke-dashoffset:0;stroke-width:1.5;"/>
   </g>
   <g id="line2d_46">
    <path clip-path="url(#pba88ead7bb)" d="M 68.393665 267.264 
L 71.31848 267.264 
L 74.243296 267.264 
L 77.168112 267.264 
L 80.092928 267.263998 
L 83.017743 267.263991 
L 85.942559 267.263967 
L 88.867375 267.263895 
L 91.792191 267.263713 
L 94.717006 267.263302 
L 97.641822 267.262457 
L 100.566638 267.260857 
L 103.491453 267.258021 
L 106.416269 267.253274 
L 109.341085 267.245704 
L 112.265901 267.234123 
L 115.190716 267.217029 
L 118.115532 267.19257 
L 121.040348 267.158508 
L 123.965164 267.112188 
L 126.889979 267.05051 
L 129.814795 266.969904 
L 132.739611 266.866316 
L 135.664426 266.7352 
L 138.589242 266.571532 
L 141.514058 266.369833 
L 144.438874 266.124227 
L 147.363689 265.828519 
L 150.288505 265.476314 
L 153.213321 265.061165 
L 156.138137 264.576764 
L 159.062952 264.017163 
L 161.987768 263.377021 
L 164.912584 262.651868 
L 167.837399 261.838373 
L 170.762215 260.934591 
L 173.687031 259.940169 
L 176.611847 258.856502 
L 179.536662 257.686809 
L 182.461478 256.436123 
L 185.386294 255.111185 
L 188.311109 253.720257 
L 191.235925 252.272855 
L 194.160741 250.779418 
L 197.085557 249.250958 
L 200.010372 247.698685 
L 202.935188 246.133664 
L 205.860004 244.566494 
L 208.78482 243.007052 
L 211.709635 241.464291 
L 214.634451 239.946103 
L 217.559267 238.459249 
L 220.484082 237.009333 
L 223.408898 235.600835 
L 226.333714 234.23717 
L 229.25853 232.920778 
L 232.183345 231.653224 
L 235.108161 230.435314 
L 238.032977 229.267205 
L 240.957793 228.148514 
L 243.882608 227.078418 
L 246.807424 226.055751 
L 249.73224 225.07908 
L 252.657055 224.146779 
L 255.581871 223.257088 
L 258.506687 222.408165 
L 261.431503 221.598122 
L 264.356318 220.825066 
L 267.281134 220.08712 
L 270.20595 219.382443 
L 273.130766 218.709247 
L 276.055581 218.065809 
L 278.980397 217.450474 
L 281.905213 216.861667 
L 284.830028 216.297888 
L 287.754844 215.757718 
L 290.67966 215.239815 
L 293.604476 214.742916 
L 296.529291 214.265832 
L 299.454107 213.807446 
L 302.378923 213.366712 
L 305.303738 212.942646 
L 308.228554 212.534328 
L 311.15337 212.140899 
L 314.078186 211.761551 
L 317.003001 211.395531 
L 319.927817 211.042132 
L 322.852633 210.700695 
L 325.777449 210.370601 
L 328.702264 210.051272 
L 331.62708 209.742165 
L 334.551896 209.442773 
L 337.476711 209.152621 
L 340.401527 208.871263 
L 343.326343 208.59828 
L 346.251159 208.333279 
L 349.175974 208.075891 
L 352.10079 207.825771 
L 355.025606 207.582591 
L 357.950422 207.346045 
L 360.875237 207.115845 
L 363.800053 206.891719 
L 366.724869 206.673409 
L 369.649684 206.460674 
L 372.5745 206.253285 
L 375.499316 206.051027 
L 378.424132 205.853695 
L 381.348947 205.661097 
L 384.273763 205.473049 
L 387.198579 205.289378 
L 390.123395 205.10992 
L 393.04821 204.934519 
" style="fill:none;stroke:#9467bd;stroke-linecap:square;stroke-width:1.5;"/>
   </g>
   <g id="line2d_47">
    <path clip-path="url(#pba88ead7bb)" d="M 68.393665 163.502654 
L 71.31848 163.502654 
L 74.243296 163.502654 
L 77.168112 163.502654 
L 80.092928 163.502651 
L 83.017743 163.502641 
L 85.942559 163.502603 
L 88.867375 163.502493 
L 91.792191 163.502214 
L 94.717006 163.501581 
L 97.641822 163.500279 
L 100.566638 163.497809 
L 103.491453 163.493423 
L 106.416269 163.486068 
L 109.341085 163.474315 
L 112.265901 163.456302 
L 115.190716 163.429675 
L 118.115532 163.391538 
L 121.040348 163.338425 
L 123.965164 163.266279 
L 126.889979 163.170473 
L 129.814795 163.04586 
L 132.739611 162.886881 
L 135.664426 162.687719 
L 138.589242 162.442529 
L 141.514058 162.145713 
L 144.438874 161.792259 
L 147.363689 161.378095 
L 150.288505 160.900451 
L 153.213321 160.358187 
L 156.138137 159.752043 
L 159.062952 159.08481 
L 161.987768 158.361373 
L 164.912584 157.588649 
L 167.837399 156.775396 
L 170.762215 155.931932 
L 173.687031 155.069758 
L 176.611847 154.20113 
L 179.536662 153.338584 
L 182.461478 152.494469 
L 185.386294 151.680485 
L 188.311109 150.907278 
L 191.235925 150.184107 
L 194.160741 149.51859 
L 197.085557 148.916555 
L 200.010372 148.381987 
L 202.935188 147.917064 
L 205.860004 147.522278 
L 208.78482 147.196613 
L 211.709635 146.937765 
L 214.634451 146.742387 
L 217.559267 146.606337 
L 220.484082 146.524916 
L 223.408898 146.493087 
L 226.333714 146.505663 
L 229.25853 146.557469 
L 232.183345 146.643467 
L 235.108161 146.758853 
L 238.032977 146.899124 
L 240.957793 147.060122 
L 243.882608 147.238061 
L 246.807424 147.429531 
L 249.73224 147.631496 
L 252.657055 147.841279 
L 255.581871 148.056541 
L 258.506687 148.275259 
L 261.431503 148.495698 
L 264.356318 148.716384 
L 267.281134 148.936075 
L 270.20595 149.15374 
L 273.130766 149.368528 
L 276.055581 149.57975 
L 278.980397 149.786856 
L 281.905213 149.989415 
L 284.830028 150.1871 
L 287.754844 150.379672 
L 290.67966 150.566967 
L 293.604476 150.748883 
L 296.529291 150.925371 
L 299.454107 151.096425 
L 302.378923 151.262077 
L 305.303738 151.422385 
L 308.228554 151.577434 
L 311.15337 151.727326 
L 314.078186 151.872179 
L 317.003001 152.012119 
L 319.927817 152.147285 
L 322.852633 152.277818 
L 325.777449 152.403864 
L 328.702264 152.525571 
L 331.62708 152.643087 
L 334.551896 152.756561 
L 337.476711 152.866139 
L 340.401527 152.971966 
L 343.326343 153.074181 
L 346.251159 153.172924 
L 349.175974 153.268329 
L 352.10079 153.360525 
L 355.025606 153.44964 
L 357.950422 153.535795 
L 360.875237 153.619108 
L 363.800053 153.699693 
L 366.724869 153.777658 
L 369.649684 153.853109 
L 372.5745 153.926145 
L 375.499316 153.996864 
L 378.424132 154.065359 
L 381.348947 154.131718 
L 384.273763 154.196025 
L 387.198579 154.258363 
L 390.123395 154.318809 
L 393.04821 154.377438 
" style="fill:none;stroke:#9467bd;stroke-dasharray:5.55,2.4;stroke-dashoffset:0;stroke-width:1.5;"/>
   </g>
   <g id="patch_9">
    <path d="M 52.160938 273.312 
L 52.160938 140.256 
" style="fill:none;stroke:#000000;stroke-linecap:square;stroke-linejoin:miter;stroke-width:0.8;"/>
   </g>
   <g id="patch_10">
    <path d="M 409.280938 273.312 
L 409.280938 140.256 
" style="fill:none;stroke:#000000;stroke-linecap:square;stroke-linejoin:miter;stroke-width:0.8;"/>
   </g>
   <g id="patch_11">
    <path d="M 52.160938 273.312 
L 409.280938 273.312 
" style="fill:none;stroke:#000000;stroke-linecap:square;stroke-linejoin:miter;stroke-width:0.8;"/>
   </g>
   <g id="patch_12">
    <path d="M 52.160938 140.256 
L 409.280938 140.256 
" style="fill:none;stroke:#000000;stroke-linecap:square;stroke-linejoin:miter;stroke-width:0.8;"/>
   </g>
   <g id="legend_2">
    <g id="patch_13">
     <path d="M 336.3825 268.312 
L 402.280938 268.312 
Q 404.280938 268.312 404.280938 266.312 
L 404.280938 237.95575 
Q 404.280938 235.95575 402.280938 235.95575 
L 336.3825 235.95575 
Q 334.3825 235.95575 334.3825 237.95575 
L 334.3825 266.312 
Q 334.3825 268.312 336.3825 268.312 
z
" style="fill:#ffffff;opacity:0.8;stroke:#cccccc;stroke-linejoin:miter;"/>
    </g>
    <g id="line2d_48">
     <path d="M 338.3825 244.054187 
L 358.3825 244.054187 
" style="fill:none;stroke:#1f77b4;stroke-linecap:square;stroke-width:1.5;"/>
    </g>
    <g id="line2d_49"/>
    <g id="text_26">
     <!-- mean -->
     <g transform="translate(366.3825 247.554187)scale(0.1 -0.1)">
      <use xlink:href="#DejaVuSans-109"/>
      <use x="97.412109" xlink:href="#DejaVuSans-101"/>
      <use x="158.935547" xlink:href="#DejaVuSans-97"/>
      <use x="220.214844" xlink:href="#DejaVuSans-110"/>
     </g>
    </g>
    <g id="line2d_50">
     <path d="M 338.3825 258.732312 
L 358.3825 258.732312 
" style="fill:none;stroke:#1f77b4;stroke-dasharray:5.55,2.4;stroke-dashoffset:0;stroke-width:1.5;"/>
    </g>
    <g id="line2d_51"/>
    <g id="text_27">
     <!-- stddev -->
     <defs>
      <path d="M 44.28125 53.078125 
L 44.28125 44.578125 
Q 40.484375 46.53125 36.375 47.5 
Q 32.28125 48.484375 27.875 48.484375 
Q 21.1875 48.484375 17.84375 46.4375 
Q 14.5 44.390625 14.5 40.28125 
Q 14.5 37.15625 16.890625 35.375 
Q 19.28125 33.59375 26.515625 31.984375 
L 29.59375 31.296875 
Q 39.15625 29.25 43.1875 25.515625 
Q 47.21875 21.78125 47.21875 15.09375 
Q 47.21875 7.46875 41.1875 3.015625 
Q 35.15625 -1.421875 24.609375 -1.421875 
Q 20.21875 -1.421875 15.453125 -0.5625 
Q 10.6875 0.296875 5.421875 2 
L 5.421875 11.28125 
Q 10.40625 8.6875 15.234375 7.390625 
Q 20.0625 6.109375 24.8125 6.109375 
Q 31.15625 6.109375 34.5625 8.28125 
Q 37.984375 10.453125 37.984375 14.40625 
Q 37.984375 18.0625 35.515625 20.015625 
Q 33.0625 21.96875 24.703125 23.78125 
L 21.578125 24.515625 
Q 13.234375 26.265625 9.515625 29.90625 
Q 5.8125 33.546875 5.8125 39.890625 
Q 5.8125 47.609375 11.28125 51.796875 
Q 16.75 56 26.8125 56 
Q 31.78125 56 36.171875 55.265625 
Q 40.578125 54.546875 44.28125 53.078125 
z
" id="DejaVuSans-115"/>
      <path d="M 2.984375 54.6875 
L 12.5 54.6875 
L 29.59375 8.796875 
L 46.6875 54.6875 
L 56.203125 54.6875 
L 35.6875 0 
L 23.484375 0 
z
" id="DejaVuSans-118"/>
     </defs>
     <g transform="translate(366.3825 262.232312)scale(0.1 -0.1)">
      <use xlink:href="#DejaVuSans-115"/>
      <use x="52.099609" xlink:href="#DejaVuSans-116"/>
      <use x="91.308594" xlink:href="#DejaVuSans-100"/>
      <use x="154.785156" xlink:href="#DejaVuSans-100"/>
      <use x="218.261719" xlink:href="#DejaVuSans-101"/>
      <use x="279.785156" xlink:href="#DejaVuSans-118"/>
     </g>
    </g>
   </g>
  </g>
 </g>
 <defs>
  <clipPath id="p47b7e54f01">
   <rect height="133.056" width="357.12" x="52.160938" y="7.2"/>
  </clipPath>
  <clipPath id="pba88ead7bb">
   <rect height="133.056" width="357.12" x="52.160938" y="140.256"/>
  </clipPath>
 </defs>
</svg>
